<?xml version="1.0" encoding="utf-8" standalone="no"?>
<!DOCTYPE svg PUBLIC "-//W3C//DTD SVG 1.1//EN"
  "http://www.w3.org/Graphics/SVG/1.1/DTD/svg11.dtd">
<svg xmlns:xlink="http://www.w3.org/1999/xlink" width="720pt" height="432pt" viewBox="0 0 720 432" xmlns="http://www.w3.org/2000/svg" version="1.1">
 <metadata>
  <rdf:RDF xmlns:dc="http://purl.org/dc/elements/1.1/" xmlns:cc="http://creativecommons.org/ns#" xmlns:rdf="http://www.w3.org/1999/02/22-rdf-syntax-ns#">
   <cc:Work>
    <dc:type rdf:resource="http://purl.org/dc/dcmitype/StillImage"/>
    <dc:date>2026-03-08T08:45:08.315462</dc:date>
    <dc:format>image/svg+xml</dc:format>
    <dc:creator>
     <cc:Agent>
      <dc:title>Matplotlib v3.10.6, https://matplotlib.org/</dc:title>
     </cc:Agent>
    </dc:creator>
   </cc:Work>
  </rdf:RDF>
 </metadata>
 <defs>
  <style type="text/css">*{stroke-linejoin: round; stroke-linecap: butt}</style>
 </defs>
 <g id="figure_1">
  <g id="patch_1">
   <path d="M 0 432 
L 720 432 
L 720 0 
L 0 0 
z
" style="fill: #ffffff"/>
  </g>
  <g id="patch_2">
   <path d="M 0 432 
L 720 432 
L 720 0 
L 0 0 
z
" style="fill: #ffffff; stroke: #ffffff; stroke-linejoin: miter"/>
  </g>
  <g id="axes_1">
   <g id="matplotlib.axis_1">
    <g id="xtick_1">
     <g id="line2d_1">
      <path d="M 138.032475 396.04375 
L 138.032475 27.949375 
" clip-path="url(#pa1e30d2466)" style="fill: none; stroke: #e0e0e0; stroke-width: 0.4; stroke-linecap: round"/>
     </g>
     <g id="text_1">
      <!-- -0.10 -->
      <g style="fill: #4d4d4d" transform="translate(126.389428 405.082344) scale(0.09 -0.09)">
       <defs>
        <path id="DejaVuSans-2d" d="M 313 2009 
L 1997 2009 
L 1997 1497 
L 313 1497 
L 313 2009 
z
" transform="scale(0.015625)"/>
        <path id="DejaVuSans-30" d="M 2034 4250 
Q 1547 4250 1301 3770 
Q 1056 3291 1056 2328 
Q 1056 1369 1301 889 
Q 1547 409 2034 409 
Q 2525 409 2770 889 
Q 3016 1369 3016 2328 
Q 3016 3291 2770 3770 
Q 2525 4250 2034 4250 
z
M 2034 4750 
Q 2819 4750 3233 4129 
Q 3647 3509 3647 2328 
Q 3647 1150 3233 529 
Q 2819 -91 2034 -91 
Q 1250 -91 836 529 
Q 422 1150 422 2328 
Q 422 3509 836 4129 
Q 1250 4750 2034 4750 
z
" transform="scale(0.015625)"/>
        <path id="DejaVuSans-2e" d="M 684 794 
L 1344 794 
L 1344 0 
L 684 0 
L 684 794 
z
" transform="scale(0.015625)"/>
        <path id="DejaVuSans-31" d="M 794 531 
L 1825 531 
L 1825 4091 
L 703 3866 
L 703 4441 
L 1819 4666 
L 2450 4666 
L 2450 531 
L 3481 531 
L 3481 0 
L 794 0 
L 794 531 
z
" transform="scale(0.015625)"/>
       </defs>
       <use xlink:href="#DejaVuSans-2d"/>
       <use xlink:href="#DejaVuSans-30" transform="translate(36.083984 0)"/>
       <use xlink:href="#DejaVuSans-2e" transform="translate(99.707031 0)"/>
       <use xlink:href="#DejaVuSans-31" transform="translate(131.494141 0)"/>
       <use xlink:href="#DejaVuSans-30" transform="translate(195.117188 0)"/>
      </g>
     </g>
    </g>
    <g id="xtick_2">
     <g id="line2d_2">
      <path d="M 243.612287 396.04375 
L 243.612287 27.949375 
" clip-path="url(#pa1e30d2466)" style="fill: none; stroke: #e0e0e0; stroke-width: 0.4; stroke-linecap: round"/>
     </g>
     <g id="text_2">
      <!-- -0.05 -->
      <g style="fill: #4d4d4d" transform="translate(231.96924 405.082344) scale(0.09 -0.09)">
       <defs>
        <path id="DejaVuSans-35" d="M 691 4666 
L 3169 4666 
L 3169 4134 
L 1269 4134 
L 1269 2991 
Q 1406 3038 1543 3061 
Q 1681 3084 1819 3084 
Q 2600 3084 3056 2656 
Q 3513 2228 3513 1497 
Q 3513 744 3044 326 
Q 2575 -91 1722 -91 
Q 1428 -91 1123 -41 
Q 819 9 494 109 
L 494 744 
Q 775 591 1075 516 
Q 1375 441 1709 441 
Q 2250 441 2565 725 
Q 2881 1009 2881 1497 
Q 2881 1984 2565 2268 
Q 2250 2553 1709 2553 
Q 1456 2553 1204 2497 
Q 953 2441 691 2322 
L 691 4666 
z
" transform="scale(0.015625)"/>
       </defs>
       <use xlink:href="#DejaVuSans-2d"/>
       <use xlink:href="#DejaVuSans-30" transform="translate(36.083984 0)"/>
       <use xlink:href="#DejaVuSans-2e" transform="translate(99.707031 0)"/>
       <use xlink:href="#DejaVuSans-30" transform="translate(131.494141 0)"/>
       <use xlink:href="#DejaVuSans-35" transform="translate(195.117188 0)"/>
      </g>
     </g>
    </g>
    <g id="xtick_3">
     <g id="line2d_3">
      <path d="M 349.192099 396.04375 
L 349.192099 27.949375 
" clip-path="url(#pa1e30d2466)" style="fill: none; stroke: #e0e0e0; stroke-width: 0.4; stroke-linecap: round"/>
     </g>
     <g id="text_3">
      <!-- 0.00 -->
      <g style="fill: #4d4d4d" transform="translate(339.172568 405.082344) scale(0.09 -0.09)">
       <use xlink:href="#DejaVuSans-30"/>
       <use xlink:href="#DejaVuSans-2e" transform="translate(63.623047 0)"/>
       <use xlink:href="#DejaVuSans-30" transform="translate(95.410156 0)"/>
       <use xlink:href="#DejaVuSans-30" transform="translate(159.033203 0)"/>
      </g>
     </g>
    </g>
    <g id="xtick_4">
     <g id="line2d_4">
      <path d="M 454.771912 396.04375 
L 454.771912 27.949375 
" clip-path="url(#pa1e30d2466)" style="fill: none; stroke: #e0e0e0; stroke-width: 0.4; stroke-linecap: round"/>
     </g>
     <g id="text_4">
      <!-- 0.05 -->
      <g style="fill: #4d4d4d" transform="translate(444.75238 405.082344) scale(0.09 -0.09)">
       <use xlink:href="#DejaVuSans-30"/>
       <use xlink:href="#DejaVuSans-2e" transform="translate(63.623047 0)"/>
       <use xlink:href="#DejaVuSans-30" transform="translate(95.410156 0)"/>
       <use xlink:href="#DejaVuSans-35" transform="translate(159.033203 0)"/>
      </g>
     </g>
    </g>
    <g id="xtick_5">
     <g id="line2d_5">
      <path d="M 560.351724 396.04375 
L 560.351724 27.949375 
" clip-path="url(#pa1e30d2466)" style="fill: none; stroke: #e0e0e0; stroke-width: 0.4; stroke-linecap: round"/>
     </g>
     <g id="text_5">
      <!-- 0.10 -->
      <g style="fill: #4d4d4d" transform="translate(550.332193 405.082344) scale(0.09 -0.09)">
       <use xlink:href="#DejaVuSans-30"/>
       <use xlink:href="#DejaVuSans-2e" transform="translate(63.623047 0)"/>
       <use xlink:href="#DejaVuSans-31" transform="translate(95.410156 0)"/>
       <use xlink:href="#DejaVuSans-30" transform="translate(159.033203 0)"/>
      </g>
     </g>
    </g>
    <g id="xtick_6"/>
    <g id="xtick_7"/>
    <g id="xtick_8"/>
    <g id="xtick_9"/>
    <g id="xtick_10"/>
   </g>
   <g id="matplotlib.axis_2">
    <g id="ytick_1">
     <g id="line2d_6">
      <path d="M 50.150938 379.312187 
L 617.297969 379.312187 
" clip-path="url(#pa1e30d2466)" style="fill: none; stroke: #e0e0e0; stroke-width: 0.4; stroke-linecap: round"/>
     </g>
     <g id="text_6">
      <!-- 0 -->
      <g style="fill: #4d4d4d" transform="translate(42.224688 382.731484) scale(0.09 -0.09)">
       <use xlink:href="#DejaVuSans-30"/>
      </g>
     </g>
    </g>
    <g id="ytick_2">
     <g id="line2d_7">
      <path d="M 50.150938 257.183994 
L 617.297969 257.183994 
" clip-path="url(#pa1e30d2466)" style="fill: none; stroke: #e0e0e0; stroke-width: 0.4; stroke-linecap: round"/>
     </g>
     <g id="text_7">
      <!-- 500 -->
      <g style="fill: #4d4d4d" transform="translate(30.772188 260.603291) scale(0.09 -0.09)">
       <use xlink:href="#DejaVuSans-35"/>
       <use xlink:href="#DejaVuSans-30" transform="translate(63.623047 0)"/>
       <use xlink:href="#DejaVuSans-30" transform="translate(127.246094 0)"/>
      </g>
     </g>
    </g>
    <g id="ytick_3">
     <g id="line2d_8">
      <path d="M 50.150938 135.055801 
L 617.297969 135.055801 
" clip-path="url(#pa1e30d2466)" style="fill: none; stroke: #e0e0e0; stroke-width: 0.4; stroke-linecap: round"/>
     </g>
     <g id="text_8">
      <!-- 1000 -->
      <g style="fill: #4d4d4d" transform="translate(25.045938 138.475098) scale(0.09 -0.09)">
       <use xlink:href="#DejaVuSans-31"/>
       <use xlink:href="#DejaVuSans-30" transform="translate(63.623047 0)"/>
       <use xlink:href="#DejaVuSans-30" transform="translate(127.246094 0)"/>
       <use xlink:href="#DejaVuSans-30" transform="translate(190.869141 0)"/>
      </g>
     </g>
    </g>
    <g id="ytick_4"/>
    <g id="ytick_5"/>
    <g id="ytick_6"/>
   </g>
   <g id="PolyCollection_1">
    <path d="M 75.930348 379.312187 
L 75.930348 379.067931 
L 86.242112 379.067931 
L 86.242112 379.312187 
z
" clip-path="url(#pa1e30d2466)" style="fill: #1f77b4; fill-opacity: 0.6"/>
    <path d="M 86.242112 379.312187 
L 86.242112 379.312187 
L 96.553876 379.312187 
L 96.553876 379.312187 
z
" clip-path="url(#pa1e30d2466)" style="fill: #1f77b4; fill-opacity: 0.6"/>
    <path d="M 96.553876 379.312187 
L 96.553876 379.312187 
L 106.865641 379.312187 
L 106.865641 379.312187 
z
" clip-path="url(#pa1e30d2466)" style="fill: #1f77b4; fill-opacity: 0.6"/>
    <path d="M 106.865641 379.312187 
L 106.865641 379.312187 
L 117.177405 379.312187 
L 117.177405 379.312187 
z
" clip-path="url(#pa1e30d2466)" style="fill: #1f77b4; fill-opacity: 0.6"/>
    <path d="M 117.177405 379.312187 
L 117.177405 379.067931 
L 127.489169 379.067931 
L 127.489169 379.312187 
z
" clip-path="url(#pa1e30d2466)" style="fill: #1f77b4; fill-opacity: 0.6"/>
    <path d="M 127.489169 379.312187 
L 127.489169 378.823675 
L 137.800933 378.823675 
L 137.800933 379.312187 
z
" clip-path="url(#pa1e30d2466)" style="fill: #1f77b4; fill-opacity: 0.6"/>
    <path d="M 137.800933 379.312187 
L 137.800933 378.579418 
L 148.112697 378.579418 
L 148.112697 379.312187 
z
" clip-path="url(#pa1e30d2466)" style="fill: #1f77b4; fill-opacity: 0.6"/>
    <path d="M 148.112697 379.312187 
L 148.112697 378.335162 
L 158.424462 378.335162 
L 158.424462 379.312187 
z
" clip-path="url(#pa1e30d2466)" style="fill: #1f77b4; fill-opacity: 0.6"/>
    <path d="M 158.424462 379.312187 
L 158.424462 377.11388 
L 168.736226 377.11388 
L 168.736226 379.312187 
z
" clip-path="url(#pa1e30d2466)" style="fill: #1f77b4; fill-opacity: 0.6"/>
    <path d="M 168.736226 379.312187 
L 168.736226 376.869624 
L 179.04799 376.869624 
L 179.04799 379.312187 
z
" clip-path="url(#pa1e30d2466)" style="fill: #1f77b4; fill-opacity: 0.6"/>
    <path d="M 179.04799 379.312187 
L 179.04799 376.625367 
L 189.359754 376.625367 
L 189.359754 379.312187 
z
" clip-path="url(#pa1e30d2466)" style="fill: #1f77b4; fill-opacity: 0.6"/>
    <path d="M 189.359754 379.312187 
L 189.359754 374.915573 
L 199.671518 374.915573 
L 199.671518 379.312187 
z
" clip-path="url(#pa1e30d2466)" style="fill: #1f77b4; fill-opacity: 0.6"/>
    <path d="M 199.671518 379.312187 
L 199.671518 373.450034 
L 209.983283 373.450034 
L 209.983283 379.312187 
z
" clip-path="url(#pa1e30d2466)" style="fill: #1f77b4; fill-opacity: 0.6"/>
    <path d="M 209.983283 379.312187 
L 209.983283 371.495983 
L 220.295047 371.495983 
L 220.295047 379.312187 
z
" clip-path="url(#pa1e30d2466)" style="fill: #1f77b4; fill-opacity: 0.6"/>
    <path d="M 220.295047 379.312187 
L 220.295047 372.961521 
L 230.606811 372.961521 
L 230.606811 379.312187 
z
" clip-path="url(#pa1e30d2466)" style="fill: #1f77b4; fill-opacity: 0.6"/>
    <path d="M 230.606811 379.312187 
L 230.606811 369.541932 
L 240.918575 369.541932 
L 240.918575 379.312187 
z
" clip-path="url(#pa1e30d2466)" style="fill: #1f77b4; fill-opacity: 0.6"/>
    <path d="M 240.918575 379.312187 
L 240.918575 367.587881 
L 251.230339 367.587881 
L 251.230339 379.312187 
z
" clip-path="url(#pa1e30d2466)" style="fill: #1f77b4; fill-opacity: 0.6"/>
    <path d="M 251.230339 379.312187 
L 251.230339 367.343625 
L 261.542104 367.343625 
L 261.542104 379.312187 
z
" clip-path="url(#pa1e30d2466)" style="fill: #1f77b4; fill-opacity: 0.6"/>
    <path d="M 261.542104 379.312187 
L 261.542104 366.366599 
L 271.853868 366.366599 
L 271.853868 379.312187 
z
" clip-path="url(#pa1e30d2466)" style="fill: #1f77b4; fill-opacity: 0.6"/>
    <path d="M 271.853868 379.312187 
L 271.853868 362.702753 
L 282.165632 362.702753 
L 282.165632 379.312187 
z
" clip-path="url(#pa1e30d2466)" style="fill: #1f77b4; fill-opacity: 0.6"/>
    <path d="M 282.165632 379.312187 
L 282.165632 354.642292 
L 292.477396 354.642292 
L 292.477396 379.312187 
z
" clip-path="url(#pa1e30d2466)" style="fill: #1f77b4; fill-opacity: 0.6"/>
    <path d="M 292.477396 379.312187 
L 292.477396 348.04737 
L 302.789161 348.04737 
L 302.789161 379.312187 
z
" clip-path="url(#pa1e30d2466)" style="fill: #1f77b4; fill-opacity: 0.6"/>
    <path d="M 302.789161 379.312187 
L 302.789161 340.231166 
L 313.100925 340.231166 
L 313.100925 379.312187 
z
" clip-path="url(#pa1e30d2466)" style="fill: #1f77b4; fill-opacity: 0.6"/>
    <path d="M 313.100925 379.312187 
L 313.100925 328.506859 
L 323.412689 328.506859 
L 323.412689 379.312187 
z
" clip-path="url(#pa1e30d2466)" style="fill: #1f77b4; fill-opacity: 0.6"/>
    <path d="M 323.412689 379.312187 
L 323.412689 319.225116 
L 333.724453 319.225116 
L 333.724453 379.312187 
z
" clip-path="url(#pa1e30d2466)" style="fill: #1f77b4; fill-opacity: 0.6"/>
    <path d="M 333.724453 379.312187 
L 333.724453 313.851476 
L 344.036217 313.851476 
L 344.036217 379.312187 
z
" clip-path="url(#pa1e30d2466)" style="fill: #1f77b4; fill-opacity: 0.6"/>
    <path d="M 344.036217 379.312187 
L 344.036217 310.431886 
L 354.347982 310.431886 
L 354.347982 379.312187 
z
" clip-path="url(#pa1e30d2466)" style="fill: #1f77b4; fill-opacity: 0.6"/>
    <path d="M 354.347982 379.312187 
L 354.347982 318.003834 
L 364.659746 318.003834 
L 364.659746 379.312187 
z
" clip-path="url(#pa1e30d2466)" style="fill: #1f77b4; fill-opacity: 0.6"/>
    <path d="M 364.659746 379.312187 
L 364.659746 313.851476 
L 374.97151 313.851476 
L 374.97151 379.312187 
z
" clip-path="url(#pa1e30d2466)" style="fill: #1f77b4; fill-opacity: 0.6"/>
    <path d="M 374.97151 379.312187 
L 374.97151 334.369012 
L 385.283274 334.369012 
L 385.283274 379.312187 
z
" clip-path="url(#pa1e30d2466)" style="fill: #1f77b4; fill-opacity: 0.6"/>
    <path d="M 385.283274 379.312187 
L 385.283274 341.94096 
L 395.595038 341.94096 
L 395.595038 379.312187 
z
" clip-path="url(#pa1e30d2466)" style="fill: #1f77b4; fill-opacity: 0.6"/>
    <path d="M 395.595038 379.312187 
L 395.595038 349.024396 
L 405.906803 349.024396 
L 405.906803 379.312187 
z
" clip-path="url(#pa1e30d2466)" style="fill: #1f77b4; fill-opacity: 0.6"/>
    <path d="M 405.906803 379.312187 
L 405.906803 356.352087 
L 416.218567 356.352087 
L 416.218567 379.312187 
z
" clip-path="url(#pa1e30d2466)" style="fill: #1f77b4; fill-opacity: 0.6"/>
    <path d="M 416.218567 379.312187 
L 416.218567 358.794651 
L 426.530331 358.794651 
L 426.530331 379.312187 
z
" clip-path="url(#pa1e30d2466)" style="fill: #1f77b4; fill-opacity: 0.6"/>
    <path d="M 426.530331 379.312187 
L 426.530331 363.679779 
L 436.842095 363.679779 
L 436.842095 379.312187 
z
" clip-path="url(#pa1e30d2466)" style="fill: #1f77b4; fill-opacity: 0.6"/>
    <path d="M 436.842095 379.312187 
L 436.842095 367.832137 
L 447.153859 367.832137 
L 447.153859 379.312187 
z
" clip-path="url(#pa1e30d2466)" style="fill: #1f77b4; fill-opacity: 0.6"/>
    <path d="M 447.153859 379.312187 
L 447.153859 365.145317 
L 457.465624 365.145317 
L 457.465624 379.312187 
z
" clip-path="url(#pa1e30d2466)" style="fill: #1f77b4; fill-opacity: 0.6"/>
    <path d="M 457.465624 379.312187 
L 457.465624 369.786188 
L 467.777388 369.786188 
L 467.777388 379.312187 
z
" clip-path="url(#pa1e30d2466)" style="fill: #1f77b4; fill-opacity: 0.6"/>
    <path d="M 467.777388 379.312187 
L 467.777388 371.74024 
L 478.089152 371.74024 
L 478.089152 379.312187 
z
" clip-path="url(#pa1e30d2466)" style="fill: #1f77b4; fill-opacity: 0.6"/>
    <path d="M 478.089152 379.312187 
L 478.089152 371.251727 
L 488.400916 371.251727 
L 488.400916 379.312187 
z
" clip-path="url(#pa1e30d2466)" style="fill: #1f77b4; fill-opacity: 0.6"/>
    <path d="M 488.400916 379.312187 
L 488.400916 374.182803 
L 498.71268 374.182803 
L 498.71268 379.312187 
z
" clip-path="url(#pa1e30d2466)" style="fill: #1f77b4; fill-opacity: 0.6"/>
    <path d="M 498.71268 379.312187 
L 498.71268 374.42706 
L 509.024445 374.42706 
L 509.024445 379.312187 
z
" clip-path="url(#pa1e30d2466)" style="fill: #1f77b4; fill-opacity: 0.6"/>
    <path d="M 509.024445 379.312187 
L 509.024445 374.671316 
L 519.336209 374.671316 
L 519.336209 379.312187 
z
" clip-path="url(#pa1e30d2466)" style="fill: #1f77b4; fill-opacity: 0.6"/>
    <path d="M 519.336209 379.312187 
L 519.336209 376.625367 
L 529.647973 376.625367 
L 529.647973 379.312187 
z
" clip-path="url(#pa1e30d2466)" style="fill: #1f77b4; fill-opacity: 0.6"/>
    <path d="M 529.647973 379.312187 
L 529.647973 377.846649 
L 539.959737 377.846649 
L 539.959737 379.312187 
z
" clip-path="url(#pa1e30d2466)" style="fill: #1f77b4; fill-opacity: 0.6"/>
    <path d="M 539.959737 379.312187 
L 539.959737 377.846649 
L 550.271501 377.846649 
L 550.271501 379.312187 
z
" clip-path="url(#pa1e30d2466)" style="fill: #1f77b4; fill-opacity: 0.6"/>
    <path d="M 550.271501 379.312187 
L 550.271501 378.823675 
L 560.583266 378.823675 
L 560.583266 379.312187 
z
" clip-path="url(#pa1e30d2466)" style="fill: #1f77b4; fill-opacity: 0.6"/>
    <path d="M 560.583266 379.312187 
L 560.583266 379.067931 
L 570.89503 379.067931 
L 570.89503 379.312187 
z
" clip-path="url(#pa1e30d2466)" style="fill: #1f77b4; fill-opacity: 0.6"/>
    <path d="M 570.89503 379.312187 
L 570.89503 377.602393 
L 581.206794 377.602393 
L 581.206794 379.312187 
z
" clip-path="url(#pa1e30d2466)" style="fill: #1f77b4; fill-opacity: 0.6"/>
    <path d="M 581.206794 379.312187 
L 581.206794 378.579418 
L 591.518558 378.579418 
L 591.518558 379.312187 
z
" clip-path="url(#pa1e30d2466)" style="fill: #1f77b4; fill-opacity: 0.6"/>
    <path d="M 75.930348 379.312187 
L 75.930348 379.312187 
L 86.242112 379.312187 
L 86.242112 379.312187 
z
" clip-path="url(#pa1e30d2466)" style="fill: #ff7f0e; fill-opacity: 0.6"/>
    <path d="M 86.242112 379.312187 
L 86.242112 379.312187 
L 96.553876 379.312187 
L 96.553876 379.312187 
z
" clip-path="url(#pa1e30d2466)" style="fill: #ff7f0e; fill-opacity: 0.6"/>
    <path d="M 96.553876 379.312187 
L 96.553876 379.312187 
L 106.865641 379.312187 
L 106.865641 379.312187 
z
" clip-path="url(#pa1e30d2466)" style="fill: #ff7f0e; fill-opacity: 0.6"/>
    <path d="M 106.865641 379.312187 
L 106.865641 379.312187 
L 117.177405 379.312187 
L 117.177405 379.312187 
z
" clip-path="url(#pa1e30d2466)" style="fill: #ff7f0e; fill-opacity: 0.6"/>
    <path d="M 117.177405 379.312187 
L 117.177405 379.312187 
L 127.489169 379.312187 
L 127.489169 379.312187 
z
" clip-path="url(#pa1e30d2466)" style="fill: #ff7f0e; fill-opacity: 0.6"/>
    <path d="M 127.489169 379.312187 
L 127.489169 379.312187 
L 137.800933 379.312187 
L 137.800933 379.312187 
z
" clip-path="url(#pa1e30d2466)" style="fill: #ff7f0e; fill-opacity: 0.6"/>
    <path d="M 137.800933 379.312187 
L 137.800933 379.312187 
L 148.112697 379.312187 
L 148.112697 379.312187 
z
" clip-path="url(#pa1e30d2466)" style="fill: #ff7f0e; fill-opacity: 0.6"/>
    <path d="M 148.112697 379.312187 
L 148.112697 379.312187 
L 158.424462 379.312187 
L 158.424462 379.312187 
z
" clip-path="url(#pa1e30d2466)" style="fill: #ff7f0e; fill-opacity: 0.6"/>
    <path d="M 158.424462 379.312187 
L 158.424462 379.312187 
L 168.736226 379.312187 
L 168.736226 379.312187 
z
" clip-path="url(#pa1e30d2466)" style="fill: #ff7f0e; fill-opacity: 0.6"/>
    <path d="M 168.736226 379.312187 
L 168.736226 379.312187 
L 179.04799 379.312187 
L 179.04799 379.312187 
z
" clip-path="url(#pa1e30d2466)" style="fill: #ff7f0e; fill-opacity: 0.6"/>
    <path d="M 179.04799 379.312187 
L 179.04799 379.067931 
L 189.359754 379.067931 
L 189.359754 379.312187 
z
" clip-path="url(#pa1e30d2466)" style="fill: #ff7f0e; fill-opacity: 0.6"/>
    <path d="M 189.359754 379.312187 
L 189.359754 379.067931 
L 199.671518 379.067931 
L 199.671518 379.312187 
z
" clip-path="url(#pa1e30d2466)" style="fill: #ff7f0e; fill-opacity: 0.6"/>
    <path d="M 199.671518 379.312187 
L 199.671518 379.312187 
L 209.983283 379.312187 
L 209.983283 379.312187 
z
" clip-path="url(#pa1e30d2466)" style="fill: #ff7f0e; fill-opacity: 0.6"/>
    <path d="M 209.983283 379.312187 
L 209.983283 379.312187 
L 220.295047 379.312187 
L 220.295047 379.312187 
z
" clip-path="url(#pa1e30d2466)" style="fill: #ff7f0e; fill-opacity: 0.6"/>
    <path d="M 220.295047 379.312187 
L 220.295047 378.823675 
L 230.606811 378.823675 
L 230.606811 379.312187 
z
" clip-path="url(#pa1e30d2466)" style="fill: #ff7f0e; fill-opacity: 0.6"/>
    <path d="M 230.606811 379.312187 
L 230.606811 379.312187 
L 240.918575 379.312187 
L 240.918575 379.312187 
z
" clip-path="url(#pa1e30d2466)" style="fill: #ff7f0e; fill-opacity: 0.6"/>
    <path d="M 240.918575 379.312187 
L 240.918575 379.312187 
L 251.230339 379.312187 
L 251.230339 379.312187 
z
" clip-path="url(#pa1e30d2466)" style="fill: #ff7f0e; fill-opacity: 0.6"/>
    <path d="M 251.230339 379.312187 
L 251.230339 379.312187 
L 261.542104 379.312187 
L 261.542104 379.312187 
z
" clip-path="url(#pa1e30d2466)" style="fill: #ff7f0e; fill-opacity: 0.6"/>
    <path d="M 261.542104 379.312187 
L 261.542104 378.823675 
L 271.853868 378.823675 
L 271.853868 379.312187 
z
" clip-path="url(#pa1e30d2466)" style="fill: #ff7f0e; fill-opacity: 0.6"/>
    <path d="M 271.853868 379.312187 
L 271.853868 379.067931 
L 282.165632 379.067931 
L 282.165632 379.312187 
z
" clip-path="url(#pa1e30d2466)" style="fill: #ff7f0e; fill-opacity: 0.6"/>
    <path d="M 282.165632 379.312187 
L 282.165632 379.067931 
L 292.477396 379.067931 
L 292.477396 379.312187 
z
" clip-path="url(#pa1e30d2466)" style="fill: #ff7f0e; fill-opacity: 0.6"/>
    <path d="M 292.477396 379.312187 
L 292.477396 377.602393 
L 302.789161 377.602393 
L 302.789161 379.312187 
z
" clip-path="url(#pa1e30d2466)" style="fill: #ff7f0e; fill-opacity: 0.6"/>
    <path d="M 302.789161 379.312187 
L 302.789161 374.915573 
L 313.100925 374.915573 
L 313.100925 379.312187 
z
" clip-path="url(#pa1e30d2466)" style="fill: #ff7f0e; fill-opacity: 0.6"/>
    <path d="M 313.100925 379.312187 
L 313.100925 365.63383 
L 323.412689 365.63383 
L 323.412689 379.312187 
z
" clip-path="url(#pa1e30d2466)" style="fill: #ff7f0e; fill-opacity: 0.6"/>
    <path d="M 323.412689 379.312187 
L 323.412689 335.346038 
L 333.724453 335.346038 
L 333.724453 379.312187 
z
" clip-path="url(#pa1e30d2466)" style="fill: #ff7f0e; fill-opacity: 0.6"/>
    <path d="M 333.724453 379.312187 
L 333.724453 226.163433 
L 344.036217 226.163433 
L 344.036217 379.312187 
z
" clip-path="url(#pa1e30d2466)" style="fill: #ff7f0e; fill-opacity: 0.6"/>
    <path d="M 344.036217 379.312187 
L 344.036217 44.680937 
L 354.347982 44.680937 
L 354.347982 379.312187 
z
" clip-path="url(#pa1e30d2466)" style="fill: #ff7f0e; fill-opacity: 0.6"/>
    <path d="M 354.347982 379.312187 
L 354.347982 191.723282 
L 364.659746 191.723282 
L 364.659746 379.312187 
z
" clip-path="url(#pa1e30d2466)" style="fill: #ff7f0e; fill-opacity: 0.6"/>
    <path d="M 364.659746 379.312187 
L 364.659746 330.216654 
L 374.97151 330.216654 
L 374.97151 379.312187 
z
" clip-path="url(#pa1e30d2466)" style="fill: #ff7f0e; fill-opacity: 0.6"/>
    <path d="M 374.97151 379.312187 
L 374.97151 366.610855 
L 385.283274 366.610855 
L 385.283274 379.312187 
z
" clip-path="url(#pa1e30d2466)" style="fill: #ff7f0e; fill-opacity: 0.6"/>
    <path d="M 385.283274 379.312187 
L 385.283274 374.671316 
L 395.595038 374.671316 
L 395.595038 379.312187 
z
" clip-path="url(#pa1e30d2466)" style="fill: #ff7f0e; fill-opacity: 0.6"/>
    <path d="M 395.595038 379.312187 
L 395.595038 377.846649 
L 405.906803 377.846649 
L 405.906803 379.312187 
z
" clip-path="url(#pa1e30d2466)" style="fill: #ff7f0e; fill-opacity: 0.6"/>
    <path d="M 405.906803 379.312187 
L 405.906803 379.067931 
L 416.218567 379.067931 
L 416.218567 379.312187 
z
" clip-path="url(#pa1e30d2466)" style="fill: #ff7f0e; fill-opacity: 0.6"/>
    <path d="M 416.218567 379.312187 
L 416.218567 379.067931 
L 426.530331 379.067931 
L 426.530331 379.312187 
z
" clip-path="url(#pa1e30d2466)" style="fill: #ff7f0e; fill-opacity: 0.6"/>
    <path d="M 426.530331 379.312187 
L 426.530331 379.067931 
L 436.842095 379.067931 
L 436.842095 379.312187 
z
" clip-path="url(#pa1e30d2466)" style="fill: #ff7f0e; fill-opacity: 0.6"/>
    <path d="M 436.842095 379.312187 
L 436.842095 378.823675 
L 447.153859 378.823675 
L 447.153859 379.312187 
z
" clip-path="url(#pa1e30d2466)" style="fill: #ff7f0e; fill-opacity: 0.6"/>
    <path d="M 447.153859 379.312187 
L 447.153859 379.312187 
L 457.465624 379.312187 
L 457.465624 379.312187 
z
" clip-path="url(#pa1e30d2466)" style="fill: #ff7f0e; fill-opacity: 0.6"/>
    <path d="M 457.465624 379.312187 
L 457.465624 379.067931 
L 467.777388 379.067931 
L 467.777388 379.312187 
z
" clip-path="url(#pa1e30d2466)" style="fill: #ff7f0e; fill-opacity: 0.6"/>
    <path d="M 467.777388 379.312187 
L 467.777388 379.312187 
L 478.089152 379.312187 
L 478.089152 379.312187 
z
" clip-path="url(#pa1e30d2466)" style="fill: #ff7f0e; fill-opacity: 0.6"/>
    <path d="M 478.089152 379.312187 
L 478.089152 379.312187 
L 488.400916 379.312187 
L 488.400916 379.312187 
z
" clip-path="url(#pa1e30d2466)" style="fill: #ff7f0e; fill-opacity: 0.6"/>
    <path d="M 488.400916 379.312187 
L 488.400916 379.312187 
L 498.71268 379.312187 
L 498.71268 379.312187 
z
" clip-path="url(#pa1e30d2466)" style="fill: #ff7f0e; fill-opacity: 0.6"/>
    <path d="M 498.71268 379.312187 
L 498.71268 379.312187 
L 509.024445 379.312187 
L 509.024445 379.312187 
z
" clip-path="url(#pa1e30d2466)" style="fill: #ff7f0e; fill-opacity: 0.6"/>
    <path d="M 509.024445 379.312187 
L 509.024445 379.312187 
L 519.336209 379.312187 
L 519.336209 379.312187 
z
" clip-path="url(#pa1e30d2466)" style="fill: #ff7f0e; fill-opacity: 0.6"/>
    <path d="M 519.336209 379.312187 
L 519.336209 379.312187 
L 529.647973 379.312187 
L 529.647973 379.312187 
z
" clip-path="url(#pa1e30d2466)" style="fill: #ff7f0e; fill-opacity: 0.6"/>
    <path d="M 529.647973 379.312187 
L 529.647973 379.312187 
L 539.959737 379.312187 
L 539.959737 379.312187 
z
" clip-path="url(#pa1e30d2466)" style="fill: #ff7f0e; fill-opacity: 0.6"/>
    <path d="M 539.959737 379.312187 
L 539.959737 379.312187 
L 550.271501 379.312187 
L 550.271501 379.312187 
z
" clip-path="url(#pa1e30d2466)" style="fill: #ff7f0e; fill-opacity: 0.6"/>
    <path d="M 550.271501 379.312187 
L 550.271501 379.312187 
L 560.583266 379.312187 
L 560.583266 379.312187 
z
" clip-path="url(#pa1e30d2466)" style="fill: #ff7f0e; fill-opacity: 0.6"/>
    <path d="M 560.583266 379.312187 
L 560.583266 379.312187 
L 570.89503 379.312187 
L 570.89503 379.312187 
z
" clip-path="url(#pa1e30d2466)" style="fill: #ff7f0e; fill-opacity: 0.6"/>
    <path d="M 570.89503 379.312187 
L 570.89503 379.312187 
L 581.206794 379.312187 
L 581.206794 379.312187 
z
" clip-path="url(#pa1e30d2466)" style="fill: #ff7f0e; fill-opacity: 0.6"/>
    <path d="M 581.206794 379.312187 
L 581.206794 379.312187 
L 591.518558 379.312187 
L 591.518558 379.312187 
z
" clip-path="url(#pa1e30d2466)" style="fill: #ff7f0e; fill-opacity: 0.6"/>
   </g>
  </g>
  <g id="text_9">
   <!-- Returns Distribution -->
   <g transform="translate(253.113984 17.837813) scale(0.14 -0.14)">
    <defs>
     <path id="DejaVuSans-Bold-52" d="M 2297 2597 
Q 2675 2597 2839 2737 
Q 3003 2878 3003 3200 
Q 3003 3519 2839 3656 
Q 2675 3794 2297 3794 
L 1791 3794 
L 1791 2597 
L 2297 2597 
z
M 1791 1766 
L 1791 0 
L 588 0 
L 588 4666 
L 2425 4666 
Q 3347 4666 3776 4356 
Q 4206 4047 4206 3378 
Q 4206 2916 3982 2619 
Q 3759 2322 3309 2181 
Q 3556 2125 3751 1926 
Q 3947 1728 4147 1325 
L 4800 0 
L 3519 0 
L 2950 1159 
Q 2778 1509 2601 1637 
Q 2425 1766 2131 1766 
L 1791 1766 
z
" transform="scale(0.015625)"/>
     <path id="DejaVuSans-Bold-65" d="M 4031 1759 
L 4031 1441 
L 1416 1441 
Q 1456 1047 1700 850 
Q 1944 653 2381 653 
Q 2734 653 3104 758 
Q 3475 863 3866 1075 
L 3866 213 
Q 3469 63 3072 -14 
Q 2675 -91 2278 -91 
Q 1328 -91 801 392 
Q 275 875 275 1747 
Q 275 2603 792 3093 
Q 1309 3584 2216 3584 
Q 3041 3584 3536 3087 
Q 4031 2591 4031 1759 
z
M 2881 2131 
Q 2881 2450 2695 2645 
Q 2509 2841 2209 2841 
Q 1884 2841 1681 2658 
Q 1478 2475 1428 2131 
L 2881 2131 
z
" transform="scale(0.015625)"/>
     <path id="DejaVuSans-Bold-74" d="M 1759 4494 
L 1759 3500 
L 2913 3500 
L 2913 2700 
L 1759 2700 
L 1759 1216 
Q 1759 972 1856 886 
Q 1953 800 2241 800 
L 2816 800 
L 2816 0 
L 1856 0 
Q 1194 0 917 276 
Q 641 553 641 1216 
L 641 2700 
L 84 2700 
L 84 3500 
L 641 3500 
L 641 4494 
L 1759 4494 
z
" transform="scale(0.015625)"/>
     <path id="DejaVuSans-Bold-75" d="M 500 1363 
L 500 3500 
L 1625 3500 
L 1625 3150 
Q 1625 2866 1622 2436 
Q 1619 2006 1619 1863 
Q 1619 1441 1641 1255 
Q 1663 1069 1716 984 
Q 1784 875 1895 815 
Q 2006 756 2150 756 
Q 2500 756 2700 1025 
Q 2900 1294 2900 1772 
L 2900 3500 
L 4019 3500 
L 4019 0 
L 2900 0 
L 2900 506 
Q 2647 200 2364 54 
Q 2081 -91 1741 -91 
Q 1134 -91 817 281 
Q 500 653 500 1363 
z
" transform="scale(0.015625)"/>
     <path id="DejaVuSans-Bold-72" d="M 3138 2547 
Q 2991 2616 2845 2648 
Q 2700 2681 2553 2681 
Q 2122 2681 1889 2404 
Q 1656 2128 1656 1613 
L 1656 0 
L 538 0 
L 538 3500 
L 1656 3500 
L 1656 2925 
Q 1872 3269 2151 3426 
Q 2431 3584 2822 3584 
Q 2878 3584 2943 3579 
Q 3009 3575 3134 3559 
L 3138 2547 
z
" transform="scale(0.015625)"/>
     <path id="DejaVuSans-Bold-6e" d="M 4056 2131 
L 4056 0 
L 2931 0 
L 2931 347 
L 2931 1631 
Q 2931 2084 2911 2256 
Q 2891 2428 2841 2509 
Q 2775 2619 2662 2680 
Q 2550 2741 2406 2741 
Q 2056 2741 1856 2470 
Q 1656 2200 1656 1722 
L 1656 0 
L 538 0 
L 538 3500 
L 1656 3500 
L 1656 2988 
Q 1909 3294 2193 3439 
Q 2478 3584 2822 3584 
Q 3428 3584 3742 3212 
Q 4056 2841 4056 2131 
z
" transform="scale(0.015625)"/>
     <path id="DejaVuSans-Bold-73" d="M 3272 3391 
L 3272 2541 
Q 2913 2691 2578 2766 
Q 2244 2841 1947 2841 
Q 1628 2841 1473 2761 
Q 1319 2681 1319 2516 
Q 1319 2381 1436 2309 
Q 1553 2238 1856 2203 
L 2053 2175 
Q 2913 2066 3209 1816 
Q 3506 1566 3506 1031 
Q 3506 472 3093 190 
Q 2681 -91 1863 -91 
Q 1516 -91 1145 -36 
Q 775 19 384 128 
L 384 978 
Q 719 816 1070 734 
Q 1422 653 1784 653 
Q 2113 653 2278 743 
Q 2444 834 2444 1013 
Q 2444 1163 2330 1236 
Q 2216 1309 1875 1350 
L 1678 1375 
Q 931 1469 631 1722 
Q 331 1975 331 2491 
Q 331 3047 712 3315 
Q 1094 3584 1881 3584 
Q 2191 3584 2531 3537 
Q 2872 3491 3272 3391 
z
" transform="scale(0.015625)"/>
     <path id="DejaVuSans-Bold-20" transform="scale(0.015625)"/>
     <path id="DejaVuSans-Bold-44" d="M 1791 3756 
L 1791 909 
L 2222 909 
Q 2959 909 3348 1275 
Q 3738 1641 3738 2338 
Q 3738 3031 3350 3393 
Q 2963 3756 2222 3756 
L 1791 3756 
z
M 588 4666 
L 1856 4666 
Q 2919 4666 3439 4514 
Q 3959 4363 4331 4000 
Q 4659 3684 4818 3271 
Q 4978 2859 4978 2338 
Q 4978 1809 4818 1395 
Q 4659 981 4331 666 
Q 3956 303 3431 151 
Q 2906 0 1856 0 
L 588 0 
L 588 4666 
z
" transform="scale(0.015625)"/>
     <path id="DejaVuSans-Bold-69" d="M 538 3500 
L 1656 3500 
L 1656 0 
L 538 0 
L 538 3500 
z
M 538 4863 
L 1656 4863 
L 1656 3950 
L 538 3950 
L 538 4863 
z
" transform="scale(0.015625)"/>
     <path id="DejaVuSans-Bold-62" d="M 2400 722 
Q 2759 722 2948 984 
Q 3138 1247 3138 1747 
Q 3138 2247 2948 2509 
Q 2759 2772 2400 2772 
Q 2041 2772 1848 2508 
Q 1656 2244 1656 1747 
Q 1656 1250 1848 986 
Q 2041 722 2400 722 
z
M 1656 2988 
Q 1888 3294 2169 3439 
Q 2450 3584 2816 3584 
Q 3463 3584 3878 3070 
Q 4294 2556 4294 1747 
Q 4294 938 3878 423 
Q 3463 -91 2816 -91 
Q 2450 -91 2169 54 
Q 1888 200 1656 506 
L 1656 0 
L 538 0 
L 538 4863 
L 1656 4863 
L 1656 2988 
z
" transform="scale(0.015625)"/>
     <path id="DejaVuSans-Bold-6f" d="M 2203 2784 
Q 1831 2784 1636 2517 
Q 1441 2250 1441 1747 
Q 1441 1244 1636 976 
Q 1831 709 2203 709 
Q 2569 709 2762 976 
Q 2956 1244 2956 1747 
Q 2956 2250 2762 2517 
Q 2569 2784 2203 2784 
z
M 2203 3584 
Q 3106 3584 3614 3096 
Q 4122 2609 4122 1747 
Q 4122 884 3614 396 
Q 3106 -91 2203 -91 
Q 1297 -91 786 396 
Q 275 884 275 1747 
Q 275 2609 786 3096 
Q 1297 3584 2203 3584 
z
" transform="scale(0.015625)"/>
    </defs>
    <use xlink:href="#DejaVuSans-Bold-52"/>
    <use xlink:href="#DejaVuSans-Bold-65" transform="translate(77.001953 0)"/>
    <use xlink:href="#DejaVuSans-Bold-74" transform="translate(144.824219 0)"/>
    <use xlink:href="#DejaVuSans-Bold-75" transform="translate(192.626953 0)"/>
    <use xlink:href="#DejaVuSans-Bold-72" transform="translate(263.818359 0)"/>
    <use xlink:href="#DejaVuSans-Bold-6e" transform="translate(313.134766 0)"/>
    <use xlink:href="#DejaVuSans-Bold-73" transform="translate(384.326172 0)"/>
    <use xlink:href="#DejaVuSans-Bold-20" transform="translate(443.847656 0)"/>
    <use xlink:href="#DejaVuSans-Bold-44" transform="translate(478.662109 0)"/>
    <use xlink:href="#DejaVuSans-Bold-69" transform="translate(561.669922 0)"/>
    <use xlink:href="#DejaVuSans-Bold-73" transform="translate(595.947266 0)"/>
    <use xlink:href="#DejaVuSans-Bold-74" transform="translate(655.46875 0)"/>
    <use xlink:href="#DejaVuSans-Bold-72" transform="translate(703.271484 0)"/>
    <use xlink:href="#DejaVuSans-Bold-69" transform="translate(752.587891 0)"/>
    <use xlink:href="#DejaVuSans-Bold-62" transform="translate(786.865234 0)"/>
    <use xlink:href="#DejaVuSans-Bold-75" transform="translate(858.447266 0)"/>
    <use xlink:href="#DejaVuSans-Bold-74" transform="translate(929.638672 0)"/>
    <use xlink:href="#DejaVuSans-Bold-69" transform="translate(977.441406 0)"/>
    <use xlink:href="#DejaVuSans-Bold-6f" transform="translate(1011.71875 0)"/>
    <use xlink:href="#DejaVuSans-Bold-6e" transform="translate(1080.419922 0)"/>
   </g>
  </g>
  <g id="text_10">
   <!-- Daily Return -->
   <g transform="translate(299.809219 422.512344) scale(0.11 -0.11)">
    <defs>
     <path id="DejaVuSans-44" d="M 1259 4147 
L 1259 519 
L 2022 519 
Q 2988 519 3436 956 
Q 3884 1394 3884 2338 
Q 3884 3275 3436 3711 
Q 2988 4147 2022 4147 
L 1259 4147 
z
M 628 4666 
L 1925 4666 
Q 3281 4666 3915 4102 
Q 4550 3538 4550 2338 
Q 4550 1131 3912 565 
Q 3275 0 1925 0 
L 628 0 
L 628 4666 
z
" transform="scale(0.015625)"/>
     <path id="DejaVuSans-61" d="M 2194 1759 
Q 1497 1759 1228 1600 
Q 959 1441 959 1056 
Q 959 750 1161 570 
Q 1363 391 1709 391 
Q 2188 391 2477 730 
Q 2766 1069 2766 1631 
L 2766 1759 
L 2194 1759 
z
M 3341 1997 
L 3341 0 
L 2766 0 
L 2766 531 
Q 2569 213 2275 61 
Q 1981 -91 1556 -91 
Q 1019 -91 701 211 
Q 384 513 384 1019 
Q 384 1609 779 1909 
Q 1175 2209 1959 2209 
L 2766 2209 
L 2766 2266 
Q 2766 2663 2505 2880 
Q 2244 3097 1772 3097 
Q 1472 3097 1187 3025 
Q 903 2953 641 2809 
L 641 3341 
Q 956 3463 1253 3523 
Q 1550 3584 1831 3584 
Q 2591 3584 2966 3190 
Q 3341 2797 3341 1997 
z
" transform="scale(0.015625)"/>
     <path id="DejaVuSans-69" d="M 603 3500 
L 1178 3500 
L 1178 0 
L 603 0 
L 603 3500 
z
M 603 4863 
L 1178 4863 
L 1178 4134 
L 603 4134 
L 603 4863 
z
" transform="scale(0.015625)"/>
     <path id="DejaVuSans-6c" d="M 603 4863 
L 1178 4863 
L 1178 0 
L 603 0 
L 603 4863 
z
" transform="scale(0.015625)"/>
     <path id="DejaVuSans-79" d="M 2059 -325 
Q 1816 -950 1584 -1140 
Q 1353 -1331 966 -1331 
L 506 -1331 
L 506 -850 
L 844 -850 
Q 1081 -850 1212 -737 
Q 1344 -625 1503 -206 
L 1606 56 
L 191 3500 
L 800 3500 
L 1894 763 
L 2988 3500 
L 3597 3500 
L 2059 -325 
z
" transform="scale(0.015625)"/>
     <path id="DejaVuSans-20" transform="scale(0.015625)"/>
     <path id="DejaVuSans-52" d="M 2841 2188 
Q 3044 2119 3236 1894 
Q 3428 1669 3622 1275 
L 4263 0 
L 3584 0 
L 2988 1197 
Q 2756 1666 2539 1819 
Q 2322 1972 1947 1972 
L 1259 1972 
L 1259 0 
L 628 0 
L 628 4666 
L 2053 4666 
Q 2853 4666 3247 4331 
Q 3641 3997 3641 3322 
Q 3641 2881 3436 2590 
Q 3231 2300 2841 2188 
z
M 1259 4147 
L 1259 2491 
L 2053 2491 
Q 2509 2491 2742 2702 
Q 2975 2913 2975 3322 
Q 2975 3731 2742 3939 
Q 2509 4147 2053 4147 
L 1259 4147 
z
" transform="scale(0.015625)"/>
     <path id="DejaVuSans-65" d="M 3597 1894 
L 3597 1613 
L 953 1613 
Q 991 1019 1311 708 
Q 1631 397 2203 397 
Q 2534 397 2845 478 
Q 3156 559 3463 722 
L 3463 178 
Q 3153 47 2828 -22 
Q 2503 -91 2169 -91 
Q 1331 -91 842 396 
Q 353 884 353 1716 
Q 353 2575 817 3079 
Q 1281 3584 2069 3584 
Q 2775 3584 3186 3129 
Q 3597 2675 3597 1894 
z
M 3022 2063 
Q 3016 2534 2758 2815 
Q 2500 3097 2075 3097 
Q 1594 3097 1305 2825 
Q 1016 2553 972 2059 
L 3022 2063 
z
" transform="scale(0.015625)"/>
     <path id="DejaVuSans-74" d="M 1172 4494 
L 1172 3500 
L 2356 3500 
L 2356 3053 
L 1172 3053 
L 1172 1153 
Q 1172 725 1289 603 
Q 1406 481 1766 481 
L 2356 481 
L 2356 0 
L 1766 0 
Q 1100 0 847 248 
Q 594 497 594 1153 
L 594 3053 
L 172 3053 
L 172 3500 
L 594 3500 
L 594 4494 
L 1172 4494 
z
" transform="scale(0.015625)"/>
     <path id="DejaVuSans-75" d="M 544 1381 
L 544 3500 
L 1119 3500 
L 1119 1403 
Q 1119 906 1312 657 
Q 1506 409 1894 409 
Q 2359 409 2629 706 
Q 2900 1003 2900 1516 
L 2900 3500 
L 3475 3500 
L 3475 0 
L 2900 0 
L 2900 538 
Q 2691 219 2414 64 
Q 2138 -91 1772 -91 
Q 1169 -91 856 284 
Q 544 659 544 1381 
z
M 1991 3584 
L 1991 3584 
z
" transform="scale(0.015625)"/>
     <path id="DejaVuSans-72" d="M 2631 2963 
Q 2534 3019 2420 3045 
Q 2306 3072 2169 3072 
Q 1681 3072 1420 2755 
Q 1159 2438 1159 1844 
L 1159 0 
L 581 0 
L 581 3500 
L 1159 3500 
L 1159 2956 
Q 1341 3275 1631 3429 
Q 1922 3584 2338 3584 
Q 2397 3584 2469 3576 
Q 2541 3569 2628 3553 
L 2631 2963 
z
" transform="scale(0.015625)"/>
     <path id="DejaVuSans-6e" d="M 3513 2113 
L 3513 0 
L 2938 0 
L 2938 2094 
Q 2938 2591 2744 2837 
Q 2550 3084 2163 3084 
Q 1697 3084 1428 2787 
Q 1159 2491 1159 1978 
L 1159 0 
L 581 0 
L 581 3500 
L 1159 3500 
L 1159 2956 
Q 1366 3272 1645 3428 
Q 1925 3584 2291 3584 
Q 2894 3584 3203 3211 
Q 3513 2838 3513 2113 
z
" transform="scale(0.015625)"/>
    </defs>
    <use xlink:href="#DejaVuSans-44"/>
    <use xlink:href="#DejaVuSans-61" transform="translate(77.001953 0)"/>
    <use xlink:href="#DejaVuSans-69" transform="translate(138.28125 0)"/>
    <use xlink:href="#DejaVuSans-6c" transform="translate(166.064453 0)"/>
    <use xlink:href="#DejaVuSans-79" transform="translate(193.847656 0)"/>
    <use xlink:href="#DejaVuSans-20" transform="translate(253.027344 0)"/>
    <use xlink:href="#DejaVuSans-52" transform="translate(284.814453 0)"/>
    <use xlink:href="#DejaVuSans-65" transform="translate(349.796875 0)"/>
    <use xlink:href="#DejaVuSans-74" transform="translate(411.320312 0)"/>
    <use xlink:href="#DejaVuSans-75" transform="translate(450.529297 0)"/>
    <use xlink:href="#DejaVuSans-72" transform="translate(513.908203 0)"/>
    <use xlink:href="#DejaVuSans-6e" transform="translate(553.271484 0)"/>
   </g>
  </g>
  <g id="text_11">
   <!-- Frequency -->
   <g transform="translate(15.558281 240.409219) rotate(-90) scale(0.11 -0.11)">
    <defs>
     <path id="DejaVuSans-46" d="M 628 4666 
L 3309 4666 
L 3309 4134 
L 1259 4134 
L 1259 2759 
L 3109 2759 
L 3109 2228 
L 1259 2228 
L 1259 0 
L 628 0 
L 628 4666 
z
" transform="scale(0.015625)"/>
     <path id="DejaVuSans-71" d="M 947 1747 
Q 947 1113 1208 752 
Q 1469 391 1925 391 
Q 2381 391 2643 752 
Q 2906 1113 2906 1747 
Q 2906 2381 2643 2742 
Q 2381 3103 1925 3103 
Q 1469 3103 1208 2742 
Q 947 2381 947 1747 
z
M 2906 525 
Q 2725 213 2448 61 
Q 2172 -91 1784 -91 
Q 1150 -91 751 415 
Q 353 922 353 1747 
Q 353 2572 751 3078 
Q 1150 3584 1784 3584 
Q 2172 3584 2448 3432 
Q 2725 3281 2906 2969 
L 2906 3500 
L 3481 3500 
L 3481 -1331 
L 2906 -1331 
L 2906 525 
z
" transform="scale(0.015625)"/>
     <path id="DejaVuSans-63" d="M 3122 3366 
L 3122 2828 
Q 2878 2963 2633 3030 
Q 2388 3097 2138 3097 
Q 1578 3097 1268 2742 
Q 959 2388 959 1747 
Q 959 1106 1268 751 
Q 1578 397 2138 397 
Q 2388 397 2633 464 
Q 2878 531 3122 666 
L 3122 134 
Q 2881 22 2623 -34 
Q 2366 -91 2075 -91 
Q 1284 -91 818 406 
Q 353 903 353 1747 
Q 353 2603 823 3093 
Q 1294 3584 2113 3584 
Q 2378 3584 2631 3529 
Q 2884 3475 3122 3366 
z
" transform="scale(0.015625)"/>
    </defs>
    <use xlink:href="#DejaVuSans-46"/>
    <use xlink:href="#DejaVuSans-72" transform="translate(50.269531 0)"/>
    <use xlink:href="#DejaVuSans-65" transform="translate(89.132812 0)"/>
    <use xlink:href="#DejaVuSans-71" transform="translate(150.65625 0)"/>
    <use xlink:href="#DejaVuSans-75" transform="translate(214.132812 0)"/>
    <use xlink:href="#DejaVuSans-65" transform="translate(277.511719 0)"/>
    <use xlink:href="#DejaVuSans-6e" transform="translate(339.035156 0)"/>
    <use xlink:href="#DejaVuSans-63" transform="translate(402.414062 0)"/>
    <use xlink:href="#DejaVuSans-79" transform="translate(457.394531 0)"/>
   </g>
  </g>
  <g id="text_12">
   <!-- Series -->
   <g transform="translate(639.897969 196.835938) scale(0.1 -0.1)">
    <defs>
     <path id="DejaVuSans-Bold-53" d="M 3834 4519 
L 3834 3531 
Q 3450 3703 3084 3790 
Q 2719 3878 2394 3878 
Q 1963 3878 1756 3759 
Q 1550 3641 1550 3391 
Q 1550 3203 1689 3098 
Q 1828 2994 2194 2919 
L 2706 2816 
Q 3484 2659 3812 2340 
Q 4141 2022 4141 1434 
Q 4141 663 3683 286 
Q 3225 -91 2284 -91 
Q 1841 -91 1394 -6 
Q 947 78 500 244 
L 500 1259 
Q 947 1022 1364 901 
Q 1781 781 2169 781 
Q 2563 781 2772 912 
Q 2981 1044 2981 1288 
Q 2981 1506 2839 1625 
Q 2697 1744 2272 1838 
L 1806 1941 
Q 1106 2091 782 2419 
Q 459 2747 459 3303 
Q 459 4000 909 4375 
Q 1359 4750 2203 4750 
Q 2588 4750 2994 4692 
Q 3400 4634 3834 4519 
z
" transform="scale(0.015625)"/>
    </defs>
    <use xlink:href="#DejaVuSans-Bold-53"/>
    <use xlink:href="#DejaVuSans-Bold-65" transform="translate(72.021484 0)"/>
    <use xlink:href="#DejaVuSans-Bold-72" transform="translate(139.84375 0)"/>
    <use xlink:href="#DejaVuSans-Bold-69" transform="translate(189.160156 0)"/>
    <use xlink:href="#DejaVuSans-Bold-65" transform="translate(223.4375 0)"/>
    <use xlink:href="#DejaVuSans-Bold-73" transform="translate(291.259766 0)"/>
   </g>
  </g>
  <g id="patch_3">
   <path d="M 639.897969 216.915625 
L 655.737969 216.915625 
L 655.737969 201.075625 
L 639.897969 201.075625 
z
" clip-path="url(#p3d5bd1cd5b)" style="fill: #1f77b4; fill-opacity: 0.6"/>
  </g>
  <g id="text_13">
   <!-- Benchmark -->
   <g transform="translate(660.537969 211.479062) scale(0.09 -0.09)">
    <defs>
     <path id="DejaVuSans-42" d="M 1259 2228 
L 1259 519 
L 2272 519 
Q 2781 519 3026 730 
Q 3272 941 3272 1375 
Q 3272 1813 3026 2020 
Q 2781 2228 2272 2228 
L 1259 2228 
z
M 1259 4147 
L 1259 2741 
L 2194 2741 
Q 2656 2741 2882 2914 
Q 3109 3088 3109 3444 
Q 3109 3797 2882 3972 
Q 2656 4147 2194 4147 
L 1259 4147 
z
M 628 4666 
L 2241 4666 
Q 2963 4666 3353 4366 
Q 3744 4066 3744 3513 
Q 3744 3084 3544 2831 
Q 3344 2578 2956 2516 
Q 3422 2416 3680 2098 
Q 3938 1781 3938 1306 
Q 3938 681 3513 340 
Q 3088 0 2303 0 
L 628 0 
L 628 4666 
z
" transform="scale(0.015625)"/>
     <path id="DejaVuSans-68" d="M 3513 2113 
L 3513 0 
L 2938 0 
L 2938 2094 
Q 2938 2591 2744 2837 
Q 2550 3084 2163 3084 
Q 1697 3084 1428 2787 
Q 1159 2491 1159 1978 
L 1159 0 
L 581 0 
L 581 4863 
L 1159 4863 
L 1159 2956 
Q 1366 3272 1645 3428 
Q 1925 3584 2291 3584 
Q 2894 3584 3203 3211 
Q 3513 2838 3513 2113 
z
" transform="scale(0.015625)"/>
     <path id="DejaVuSans-6d" d="M 3328 2828 
Q 3544 3216 3844 3400 
Q 4144 3584 4550 3584 
Q 5097 3584 5394 3201 
Q 5691 2819 5691 2113 
L 5691 0 
L 5113 0 
L 5113 2094 
Q 5113 2597 4934 2840 
Q 4756 3084 4391 3084 
Q 3944 3084 3684 2787 
Q 3425 2491 3425 1978 
L 3425 0 
L 2847 0 
L 2847 2094 
Q 2847 2600 2669 2842 
Q 2491 3084 2119 3084 
Q 1678 3084 1418 2786 
Q 1159 2488 1159 1978 
L 1159 0 
L 581 0 
L 581 3500 
L 1159 3500 
L 1159 2956 
Q 1356 3278 1631 3431 
Q 1906 3584 2284 3584 
Q 2666 3584 2933 3390 
Q 3200 3197 3328 2828 
z
" transform="scale(0.015625)"/>
     <path id="DejaVuSans-6b" d="M 581 4863 
L 1159 4863 
L 1159 1991 
L 2875 3500 
L 3609 3500 
L 1753 1863 
L 3688 0 
L 2938 0 
L 1159 1709 
L 1159 0 
L 581 0 
L 581 4863 
z
" transform="scale(0.015625)"/>
    </defs>
    <use xlink:href="#DejaVuSans-42"/>
    <use xlink:href="#DejaVuSans-65" transform="translate(68.603516 0)"/>
    <use xlink:href="#DejaVuSans-6e" transform="translate(130.126953 0)"/>
    <use xlink:href="#DejaVuSans-63" transform="translate(193.505859 0)"/>
    <use xlink:href="#DejaVuSans-68" transform="translate(248.486328 0)"/>
    <use xlink:href="#DejaVuSans-6d" transform="translate(311.865234 0)"/>
    <use xlink:href="#DejaVuSans-61" transform="translate(409.277344 0)"/>
    <use xlink:href="#DejaVuSans-72" transform="translate(470.556641 0)"/>
    <use xlink:href="#DejaVuSans-6b" transform="translate(511.669922 0)"/>
   </g>
  </g>
  <g id="patch_4">
   <path d="M 639.897969 234.755625 
L 655.737969 234.755625 
L 655.737969 218.915625 
L 639.897969 218.915625 
z
" clip-path="url(#pe13c30a97f)" style="fill: #ff7f0e; fill-opacity: 0.6"/>
  </g>
  <g id="text_14">
   <!-- Portfolio -->
   <g transform="translate(660.537969 229.319063) scale(0.09 -0.09)">
    <defs>
     <path id="DejaVuSans-50" d="M 1259 4147 
L 1259 2394 
L 2053 2394 
Q 2494 2394 2734 2622 
Q 2975 2850 2975 3272 
Q 2975 3691 2734 3919 
Q 2494 4147 2053 4147 
L 1259 4147 
z
M 628 4666 
L 2053 4666 
Q 2838 4666 3239 4311 
Q 3641 3956 3641 3272 
Q 3641 2581 3239 2228 
Q 2838 1875 2053 1875 
L 1259 1875 
L 1259 0 
L 628 0 
L 628 4666 
z
" transform="scale(0.015625)"/>
     <path id="DejaVuSans-6f" d="M 1959 3097 
Q 1497 3097 1228 2736 
Q 959 2375 959 1747 
Q 959 1119 1226 758 
Q 1494 397 1959 397 
Q 2419 397 2687 759 
Q 2956 1122 2956 1747 
Q 2956 2369 2687 2733 
Q 2419 3097 1959 3097 
z
M 1959 3584 
Q 2709 3584 3137 3096 
Q 3566 2609 3566 1747 
Q 3566 888 3137 398 
Q 2709 -91 1959 -91 
Q 1206 -91 779 398 
Q 353 888 353 1747 
Q 353 2609 779 3096 
Q 1206 3584 1959 3584 
z
" transform="scale(0.015625)"/>
     <path id="DejaVuSans-66" d="M 2375 4863 
L 2375 4384 
L 1825 4384 
Q 1516 4384 1395 4259 
Q 1275 4134 1275 3809 
L 1275 3500 
L 2222 3500 
L 2222 3053 
L 1275 3053 
L 1275 0 
L 697 0 
L 697 3053 
L 147 3053 
L 147 3500 
L 697 3500 
L 697 3744 
Q 697 4328 969 4595 
Q 1241 4863 1831 4863 
L 2375 4863 
z
" transform="scale(0.015625)"/>
    </defs>
    <use xlink:href="#DejaVuSans-50"/>
    <use xlink:href="#DejaVuSans-6f" transform="translate(56.677734 0)"/>
    <use xlink:href="#DejaVuSans-72" transform="translate(117.859375 0)"/>
    <use xlink:href="#DejaVuSans-74" transform="translate(158.972656 0)"/>
    <use xlink:href="#DejaVuSans-66" transform="translate(198.181641 0)"/>
    <use xlink:href="#DejaVuSans-6f" transform="translate(233.386719 0)"/>
    <use xlink:href="#DejaVuSans-6c" transform="translate(294.568359 0)"/>
    <use xlink:href="#DejaVuSans-69" transform="translate(322.351562 0)"/>
    <use xlink:href="#DejaVuSans-6f" transform="translate(350.134766 0)"/>
   </g>
  </g>
 </g>
 <defs>
  <clipPath id="pa1e30d2466">
   <rect x="50.150938" y="27.949375" width="567.147031" height="368.094375"/>
  </clipPath>
  <clipPath id="p3d5bd1cd5b">
   <path d="M 639.897969 216.915625 
L 639.897969 201.075625 
L 655.737969 201.075625 
L 655.737969 216.915625 
"/>
  </clipPath>
  <clipPath id="pe13c30a97f">
   <path d="M 639.897969 234.755625 
L 639.897969 218.915625 
L 655.737969 218.915625 
L 655.737969 234.755625 
"/>
  </clipPath>
 </defs>
</svg>
