<?xml version="1.0" encoding="utf-8" standalone="no"?>
<!DOCTYPE svg PUBLIC "-//W3C//DTD SVG 1.1//EN"
  "http://www.w3.org/Graphics/SVG/1.1/DTD/svg11.dtd">
<svg xmlns:xlink="http://www.w3.org/1999/xlink" width="720pt" height="432pt" viewBox="0 0 720 432" xmlns="http://www.w3.org/2000/svg" version="1.1">
 <metadata>
  <rdf:RDF xmlns:dc="http://purl.org/dc/elements/1.1/" xmlns:cc="http://creativecommons.org/ns#" xmlns:rdf="http://www.w3.org/1999/02/22-rdf-syntax-ns#">
   <cc:Work>
    <dc:type rdf:resource="http://purl.org/dc/dcmitype/StillImage"/>
    <dc:date>2026-03-08T08:45:08.771588</dc:date>
    <dc:format>image/svg+xml</dc:format>
    <dc:creator>
     <cc:Agent>
      <dc:title>Matplotlib v3.10.6, https://matplotlib.org/</dc:title>
     </cc:Agent>
    </dc:creator>
   </cc:Work>
  </rdf:RDF>
 </metadata>
 <defs>
  <style type="text/css">*{stroke-linejoin: round; stroke-linecap: butt}</style>
 </defs>
 <g id="figure_1">
  <g id="patch_1">
   <path d="M 0 432 
L 720 432 
L 720 0 
L 0 0 
z
" style="fill: #ffffff"/>
  </g>
  <g id="patch_2">
   <path d="M 0 432 
L 720 432 
L 720 0 
L 0 0 
z
" style="fill: #ffffff; stroke: #ffffff; stroke-linejoin: miter"/>
  </g>
  <g id="axes_1">
   <g id="matplotlib.axis_1">
    <g id="xtick_1">
     <g id="line2d_1">
      <path d="M 72.384611 396.04375 
L 72.384611 27.949375 
" clip-path="url(#p236a965775)" style="fill: none; stroke: #e0e0e0; stroke-width: 0.4; stroke-linecap: round"/>
     </g>
     <g id="text_1">
      <!-- 0 -->
      <g style="fill: #4d4d4d" transform="translate(69.521486 405.082344) scale(0.09 -0.09)">
       <defs>
        <path id="DejaVuSans-30" d="M 2034 4250 
Q 1547 4250 1301 3770 
Q 1056 3291 1056 2328 
Q 1056 1369 1301 889 
Q 1547 409 2034 409 
Q 2525 409 2770 889 
Q 3016 1369 3016 2328 
Q 3016 3291 2770 3770 
Q 2525 4250 2034 4250 
z
M 2034 4750 
Q 2819 4750 3233 4129 
Q 3647 3509 3647 2328 
Q 3647 1150 3233 529 
Q 2819 -91 2034 -91 
Q 1250 -91 836 529 
Q 422 1150 422 2328 
Q 422 3509 836 4129 
Q 1250 4750 2034 4750 
z
" transform="scale(0.015625)"/>
       </defs>
       <use xlink:href="#DejaVuSans-30"/>
      </g>
     </g>
    </g>
    <g id="xtick_2">
     <g id="line2d_2">
      <path d="M 193.423241 396.04375 
L 193.423241 27.949375 
" clip-path="url(#p236a965775)" style="fill: none; stroke: #e0e0e0; stroke-width: 0.4; stroke-linecap: round"/>
     </g>
     <g id="text_2">
      <!-- 50 -->
      <g style="fill: #4d4d4d" transform="translate(187.696991 405.082344) scale(0.09 -0.09)">
       <defs>
        <path id="DejaVuSans-35" d="M 691 4666 
L 3169 4666 
L 3169 4134 
L 1269 4134 
L 1269 2991 
Q 1406 3038 1543 3061 
Q 1681 3084 1819 3084 
Q 2600 3084 3056 2656 
Q 3513 2228 3513 1497 
Q 3513 744 3044 326 
Q 2575 -91 1722 -91 
Q 1428 -91 1123 -41 
Q 819 9 494 109 
L 494 744 
Q 775 591 1075 516 
Q 1375 441 1709 441 
Q 2250 441 2565 725 
Q 2881 1009 2881 1497 
Q 2881 1984 2565 2268 
Q 2250 2553 1709 2553 
Q 1456 2553 1204 2497 
Q 953 2441 691 2322 
L 691 4666 
z
" transform="scale(0.015625)"/>
       </defs>
       <use xlink:href="#DejaVuSans-35"/>
       <use xlink:href="#DejaVuSans-30" transform="translate(63.623047 0)"/>
      </g>
     </g>
    </g>
    <g id="xtick_3">
     <g id="line2d_3">
      <path d="M 314.46187 396.04375 
L 314.46187 27.949375 
" clip-path="url(#p236a965775)" style="fill: none; stroke: #e0e0e0; stroke-width: 0.4; stroke-linecap: round"/>
     </g>
     <g id="text_3">
      <!-- 100 -->
      <g style="fill: #4d4d4d" transform="translate(305.872495 405.082344) scale(0.09 -0.09)">
       <defs>
        <path id="DejaVuSans-31" d="M 794 531 
L 1825 531 
L 1825 4091 
L 703 3866 
L 703 4441 
L 1819 4666 
L 2450 4666 
L 2450 531 
L 3481 531 
L 3481 0 
L 794 0 
L 794 531 
z
" transform="scale(0.015625)"/>
       </defs>
       <use xlink:href="#DejaVuSans-31"/>
       <use xlink:href="#DejaVuSans-30" transform="translate(63.623047 0)"/>
       <use xlink:href="#DejaVuSans-30" transform="translate(127.246094 0)"/>
      </g>
     </g>
    </g>
    <g id="xtick_4">
     <g id="line2d_4">
      <path d="M 435.5005 396.04375 
L 435.5005 27.949375 
" clip-path="url(#p236a965775)" style="fill: none; stroke: #e0e0e0; stroke-width: 0.4; stroke-linecap: round"/>
     </g>
     <g id="text_4">
      <!-- 150 -->
      <g style="fill: #4d4d4d" transform="translate(426.911125 405.082344) scale(0.09 -0.09)">
       <use xlink:href="#DejaVuSans-31"/>
       <use xlink:href="#DejaVuSans-35" transform="translate(63.623047 0)"/>
       <use xlink:href="#DejaVuSans-30" transform="translate(127.246094 0)"/>
      </g>
     </g>
    </g>
    <g id="xtick_5">
     <g id="line2d_5">
      <path d="M 556.539129 396.04375 
L 556.539129 27.949375 
" clip-path="url(#p236a965775)" style="fill: none; stroke: #e0e0e0; stroke-width: 0.4; stroke-linecap: round"/>
     </g>
     <g id="text_5">
      <!-- 200 -->
      <g style="fill: #4d4d4d" transform="translate(547.949754 405.082344) scale(0.09 -0.09)">
       <defs>
        <path id="DejaVuSans-32" d="M 1228 531 
L 3431 531 
L 3431 0 
L 469 0 
L 469 531 
Q 828 903 1448 1529 
Q 2069 2156 2228 2338 
Q 2531 2678 2651 2914 
Q 2772 3150 2772 3378 
Q 2772 3750 2511 3984 
Q 2250 4219 1831 4219 
Q 1534 4219 1204 4116 
Q 875 4013 500 3803 
L 500 4441 
Q 881 4594 1212 4672 
Q 1544 4750 1819 4750 
Q 2544 4750 2975 4387 
Q 3406 4025 3406 3419 
Q 3406 3131 3298 2873 
Q 3191 2616 2906 2266 
Q 2828 2175 2409 1742 
Q 1991 1309 1228 531 
z
" transform="scale(0.015625)"/>
       </defs>
       <use xlink:href="#DejaVuSans-32"/>
       <use xlink:href="#DejaVuSans-30" transform="translate(63.623047 0)"/>
       <use xlink:href="#DejaVuSans-30" transform="translate(127.246094 0)"/>
      </g>
     </g>
    </g>
    <g id="xtick_6">
     <g id="line2d_6">
      <path d="M 677.577759 396.04375 
L 677.577759 27.949375 
" clip-path="url(#p236a965775)" style="fill: none; stroke: #e0e0e0; stroke-width: 0.4; stroke-linecap: round"/>
     </g>
     <g id="text_6">
      <!-- 250 -->
      <g style="fill: #4d4d4d" transform="translate(668.988384 405.082344) scale(0.09 -0.09)">
       <use xlink:href="#DejaVuSans-32"/>
       <use xlink:href="#DejaVuSans-35" transform="translate(63.623047 0)"/>
       <use xlink:href="#DejaVuSans-30" transform="translate(127.246094 0)"/>
      </g>
     </g>
    </g>
    <g id="xtick_7"/>
    <g id="xtick_8"/>
    <g id="xtick_9"/>
    <g id="xtick_10"/>
    <g id="xtick_11"/>
   </g>
   <g id="matplotlib.axis_2">
    <g id="ytick_1">
     <g id="line2d_7">
      <path d="M 44.424688 363.51425 
L 712.8 363.51425 
" clip-path="url(#p236a965775)" style="fill: none; stroke: #e0e0e0; stroke-width: 0.4; stroke-linecap: round"/>
     </g>
     <g id="text_7">
      <!-- 90 -->
      <g style="fill: #4d4d4d" transform="translate(30.772188 366.933547) scale(0.09 -0.09)">
       <defs>
        <path id="DejaVuSans-39" d="M 703 97 
L 703 672 
Q 941 559 1184 500 
Q 1428 441 1663 441 
Q 2288 441 2617 861 
Q 2947 1281 2994 2138 
Q 2813 1869 2534 1725 
Q 2256 1581 1919 1581 
Q 1219 1581 811 2004 
Q 403 2428 403 3163 
Q 403 3881 828 4315 
Q 1253 4750 1959 4750 
Q 2769 4750 3195 4129 
Q 3622 3509 3622 2328 
Q 3622 1225 3098 567 
Q 2575 -91 1691 -91 
Q 1453 -91 1209 -44 
Q 966 3 703 97 
z
M 1959 2075 
Q 2384 2075 2632 2365 
Q 2881 2656 2881 3163 
Q 2881 3666 2632 3958 
Q 2384 4250 1959 4250 
Q 1534 4250 1286 3958 
Q 1038 3666 1038 3163 
Q 1038 2656 1286 2365 
Q 1534 2075 1959 2075 
z
" transform="scale(0.015625)"/>
       </defs>
       <use xlink:href="#DejaVuSans-39"/>
       <use xlink:href="#DejaVuSans-30" transform="translate(63.623047 0)"/>
      </g>
     </g>
    </g>
    <g id="ytick_2">
     <g id="line2d_8">
      <path d="M 44.424688 274.677065 
L 712.8 274.677065 
" clip-path="url(#p236a965775)" style="fill: none; stroke: #e0e0e0; stroke-width: 0.4; stroke-linecap: round"/>
     </g>
     <g id="text_8">
      <!-- 100 -->
      <g style="fill: #4d4d4d" transform="translate(25.045938 278.096362) scale(0.09 -0.09)">
       <use xlink:href="#DejaVuSans-31"/>
       <use xlink:href="#DejaVuSans-30" transform="translate(63.623047 0)"/>
       <use xlink:href="#DejaVuSans-30" transform="translate(127.246094 0)"/>
      </g>
     </g>
    </g>
    <g id="ytick_3">
     <g id="line2d_9">
      <path d="M 44.424688 185.839879 
L 712.8 185.839879 
" clip-path="url(#p236a965775)" style="fill: none; stroke: #e0e0e0; stroke-width: 0.4; stroke-linecap: round"/>
     </g>
     <g id="text_9">
      <!-- 110 -->
      <g style="fill: #4d4d4d" transform="translate(25.045938 189.259176) scale(0.09 -0.09)">
       <use xlink:href="#DejaVuSans-31"/>
       <use xlink:href="#DejaVuSans-31" transform="translate(63.623047 0)"/>
       <use xlink:href="#DejaVuSans-30" transform="translate(127.246094 0)"/>
      </g>
     </g>
    </g>
    <g id="ytick_4">
     <g id="line2d_10">
      <path d="M 44.424688 97.002694 
L 712.8 97.002694 
" clip-path="url(#p236a965775)" style="fill: none; stroke: #e0e0e0; stroke-width: 0.4; stroke-linecap: round"/>
     </g>
     <g id="text_10">
      <!-- 120 -->
      <g style="fill: #4d4d4d" transform="translate(25.045938 100.421991) scale(0.09 -0.09)">
       <use xlink:href="#DejaVuSans-31"/>
       <use xlink:href="#DejaVuSans-32" transform="translate(63.623047 0)"/>
       <use xlink:href="#DejaVuSans-30" transform="translate(127.246094 0)"/>
      </g>
     </g>
    </g>
    <g id="ytick_5"/>
    <g id="ytick_6"/>
    <g id="ytick_7"/>
    <g id="ytick_8"/>
   </g>
   <g id="FillBetweenPolyCollection_1">
    <path d="M 74.805384 264.493105 
L 74.805384 285.206354 
L 77.226156 287.949019 
L 79.646929 290.978316 
L 82.067701 292.648536 
L 84.488474 294.163604 
L 86.909246 296.153389 
L 89.330019 297.908253 
L 91.750792 298.81962 
L 94.171564 300.321676 
L 96.592337 302.136233 
L 99.013109 303.229215 
L 101.433882 303.945696 
L 103.854655 305.234181 
L 106.275427 305.916729 
L 108.6962 306.398335 
L 111.116972 306.557781 
L 113.537745 308.018985 
L 115.958518 309.605198 
L 118.37929 311.510098 
L 120.800063 311.528579 
L 123.220835 311.383299 
L 125.641608 312.838739 
L 128.062381 314.077077 
L 130.483153 315.989217 
L 132.903926 315.693651 
L 135.324698 315.957101 
L 137.745471 317.410618 
L 140.166243 317.235895 
L 142.587016 318.513167 
L 145.007789 320.493193 
L 147.428561 320.947257 
L 149.849334 322.112058 
L 152.270106 321.319284 
L 154.690879 322.319673 
L 157.111652 323.299547 
L 159.532424 324.161854 
L 161.953197 323.946761 
L 164.373969 324.999447 
L 166.794742 325.393298 
L 169.215515 325.955461 
L 171.636287 326.088076 
L 174.05706 329.841583 
L 176.477832 329.341252 
L 178.898605 329.227309 
L 181.319378 329.948649 
L 183.74015 330.776933 
L 186.160923 330.090811 
L 188.581695 333.556238 
L 191.002468 331.468994 
L 193.423241 332.397784 
L 195.844013 331.552635 
L 198.264786 330.742685 
L 200.685558 329.824807 
L 203.106331 330.868546 
L 205.527103 331.320115 
L 207.947876 331.548887 
L 210.368649 331.449305 
L 212.789421 332.724594 
L 215.210194 333.998801 
L 217.630966 332.160272 
L 220.051739 332.711983 
L 222.472512 335.187878 
L 224.893284 334.898391 
L 227.314057 337.107246 
L 229.734829 336.016287 
L 232.155602 338.641547 
L 234.576375 339.95709 
L 236.997147 337.126663 
L 239.41792 334.880059 
L 241.838692 337.404033 
L 244.259465 338.535512 
L 246.680238 338.882005 
L 249.10101 342.41013 
L 251.521783 341.906525 
L 253.942555 341.803575 
L 256.363328 340.396988 
L 258.7841 343.284131 
L 261.204873 341.875682 
L 263.625646 341.509855 
L 266.046418 343.234554 
L 268.467191 341.103483 
L 270.887963 340.512796 
L 273.308736 339.88826 
L 275.729509 340.464492 
L 278.150281 342.313382 
L 280.571054 340.623866 
L 282.991826 342.686039 
L 285.412599 342.279232 
L 287.833372 342.489596 
L 290.254144 343.479187 
L 292.674917 342.852134 
L 295.095689 342.35709 
L 297.516462 344.52038 
L 299.937235 343.222266 
L 302.358007 345.713242 
L 304.77878 346.31559 
L 307.199552 345.149585 
L 309.620325 345.560986 
L 312.041097 346.219519 
L 314.46187 346.025694 
L 316.882643 346.274025 
L 319.303415 349.509618 
L 321.724188 351.190921 
L 324.14496 351.224241 
L 326.565733 350.793466 
L 328.986506 352.608397 
L 331.407278 352.919856 
L 333.828051 354.330916 
L 336.248823 355.143383 
L 338.669596 355.829019 
L 341.090369 355.888805 
L 343.511141 355.076555 
L 345.931914 356.291466 
L 348.352686 354.274052 
L 350.773459 355.141032 
L 353.194232 356.289562 
L 355.615004 358.584146 
L 358.035777 358.883433 
L 360.456549 360.880241 
L 362.877322 361.122549 
L 365.298094 361.007765 
L 367.718867 360.348731 
L 370.13964 362.055382 
L 372.560412 361.445598 
L 374.981185 361.254167 
L 377.401957 361.997544 
L 379.82273 360.401956 
L 382.243503 361.688765 
L 384.664275 364.652993 
L 387.085048 363.923235 
L 389.50582 364.134714 
L 391.926593 366.315308 
L 394.347366 362.698182 
L 396.768138 362.451044 
L 399.188911 360.613525 
L 401.609683 360.413048 
L 404.030456 361.537915 
L 406.451229 361.527502 
L 408.872001 361.24568 
L 411.292774 359.749576 
L 413.713546 361.919353 
L 416.134319 362.7403 
L 418.555092 362.202652 
L 420.975864 360.478356 
L 423.396637 359.612294 
L 425.817409 357.650417 
L 428.238182 358.395326 
L 430.658954 358.138858 
L 433.079727 359.619397 
L 435.5005 357.638476 
L 437.921272 357.635701 
L 440.342045 357.091992 
L 442.762817 356.599377 
L 445.18359 358.034146 
L 447.604363 356.63926 
L 450.025135 358.995932 
L 452.445908 359.470507 
L 454.86668 361.294787 
L 457.287453 358.943192 
L 459.708226 358.854256 
L 462.128998 361.374211 
L 464.549771 358.642286 
L 466.970543 361.114846 
L 469.391316 359.769912 
L 471.812089 358.992928 
L 474.232861 357.282032 
L 476.653634 359.578208 
L 479.074406 359.677077 
L 481.495179 361.999875 
L 483.915951 360.927816 
L 486.336724 362.722698 
L 488.757497 360.222019 
L 491.178269 360.358335 
L 493.599042 358.560514 
L 496.019814 360.683682 
L 498.440587 360.640919 
L 500.86136 361.299138 
L 503.282132 361.141428 
L 505.702905 361.122346 
L 508.123677 361.960937 
L 510.54445 363.977281 
L 512.965223 361.898335 
L 515.385995 361.476159 
L 517.806768 363.108137 
L 520.22754 362.225361 
L 522.648313 362.32958 
L 525.069086 362.35002 
L 527.489858 362.309164 
L 529.910631 363.284629 
L 532.331403 361.991843 
L 534.752176 363.514745 
L 537.172948 365.024638 
L 539.593721 362.752352 
L 542.014494 365.145035 
L 544.435266 365.606621 
L 546.856039 364.48722 
L 549.276811 365.724632 
L 551.697584 365.811487 
L 554.118357 362.700383 
L 556.539129 367.328606 
L 558.959902 368.064112 
L 561.380674 366.276454 
L 563.801447 369.502802 
L 566.22222 368.411442 
L 568.642992 367.864982 
L 571.063765 367.639762 
L 573.484537 370.589164 
L 575.90531 368.446684 
L 578.326083 370.390096 
L 580.746855 367.529148 
L 583.167628 369.657571 
L 585.5884 368.024851 
L 588.009173 369.025776 
L 590.429946 371.502552 
L 592.850718 372.575047 
L 595.271491 371.120222 
L 597.692263 368.244649 
L 600.113036 370.722043 
L 602.533808 372.439633 
L 604.954581 373.765415 
L 607.375354 375.188614 
L 609.796126 375.29506 
L 612.216899 371.836975 
L 614.637671 372.854241 
L 617.058444 369.871862 
L 619.479217 372.456571 
L 621.899989 371.919811 
L 624.320762 371.238194 
L 626.741534 372.303513 
L 629.162307 373.718022 
L 631.58308 374.198422 
L 634.003852 374.478778 
L 636.424625 376.081713 
L 638.845397 376.917575 
L 641.26617 376.164398 
L 643.686943 375.946336 
L 646.107715 374.308862 
L 648.528488 374.614752 
L 650.94926 375.46962 
L 653.370033 375.248906 
L 655.790805 378.019939 
L 658.211578 377.348384 
L 660.632351 377.356916 
L 663.053123 378.064549 
L 665.473896 377.595752 
L 667.894668 377.476587 
L 670.315441 379.312188 
L 672.736214 377.942163 
L 675.156986 377.462379 
L 677.577759 379.289056 
L 679.998531 374.180309 
L 682.419304 375.213106 
L 682.419304 51.016689 
L 682.419304 51.016689 
L 679.998531 49.837317 
L 677.577759 44.680938 
L 675.156986 45.214638 
L 672.736214 48.228726 
L 670.315441 48.853109 
L 667.894668 46.638845 
L 665.473896 54.901513 
L 663.053123 55.894286 
L 660.632351 55.938627 
L 658.211578 57.021087 
L 655.790805 56.015644 
L 653.370033 59.303535 
L 650.94926 59.771629 
L 648.528488 59.609179 
L 646.107715 60.82833 
L 643.686943 63.723163 
L 641.26617 66.959866 
L 638.845397 66.937801 
L 636.424625 69.222658 
L 634.003852 63.709688 
L 631.58308 69.106987 
L 629.162307 67.030613 
L 626.741534 70.187414 
L 624.320762 71.080902 
L 621.899989 70.499762 
L 619.479217 73.429155 
L 617.058444 72.477675 
L 614.637671 70.512549 
L 612.216899 73.521446 
L 609.796126 80.610347 
L 607.375354 80.067066 
L 604.954581 78.409681 
L 602.533808 77.976498 
L 600.113036 75.589021 
L 597.692263 77.098044 
L 595.271491 74.25147 
L 592.850718 76.593158 
L 590.429946 74.866928 
L 588.009173 77.67535 
L 585.5884 76.513536 
L 583.167628 75.880861 
L 580.746855 72.171286 
L 578.326083 76.511156 
L 575.90531 72.530416 
L 573.484537 74.794211 
L 571.063765 75.576534 
L 568.642992 76.708516 
L 566.22222 79.300971 
L 563.801447 79.769662 
L 561.380674 81.205107 
L 558.959902 80.726037 
L 556.539129 77.595033 
L 554.118357 77.164976 
L 551.697584 81.666626 
L 549.276811 81.590593 
L 546.856039 84.840857 
L 544.435266 86.197914 
L 542.014494 86.86748 
L 539.593721 85.346891 
L 537.172948 84.101139 
L 534.752176 85.383418 
L 532.331403 82.733264 
L 529.910631 82.945244 
L 527.489858 86.154999 
L 525.069086 84.974329 
L 522.648313 88.267006 
L 520.22754 87.601792 
L 517.806768 88.868153 
L 515.385995 86.257275 
L 512.965223 86.486213 
L 510.54445 88.866331 
L 508.123677 89.938082 
L 505.702905 90.580814 
L 503.282132 93.834032 
L 500.86136 91.139077 
L 498.440587 97.540849 
L 496.019814 96.82884 
L 493.599042 95.770472 
L 491.178269 96.11764 
L 488.757497 99.413752 
L 486.336724 98.848771 
L 483.915951 98.927388 
L 481.495179 96.839585 
L 479.074406 96.083399 
L 476.653634 94.902203 
L 474.232861 95.853272 
L 471.812089 93.279556 
L 469.391316 94.594831 
L 466.970543 99.823813 
L 464.549771 99.652218 
L 462.128998 96.702128 
L 459.708226 100.11292 
L 457.287453 104.027242 
L 454.86668 102.384573 
L 452.445908 102.762242 
L 450.025135 99.992887 
L 447.604363 101.742058 
L 445.18359 102.840586 
L 442.762817 103.405789 
L 440.342045 103.527421 
L 437.921272 105.331184 
L 435.5005 105.30465 
L 433.079727 107.266794 
L 430.658954 107.298019 
L 428.238182 107.88481 
L 425.817409 107.495751 
L 423.396637 108.82715 
L 420.975864 110.717419 
L 418.555092 111.681697 
L 416.134319 110.317851 
L 413.713546 114.35735 
L 411.292774 113.648133 
L 408.872001 115.782084 
L 406.451229 114.721927 
L 404.030456 112.63955 
L 401.609683 110.692443 
L 399.188911 111.76423 
L 396.768138 114.300452 
L 394.347366 116.91456 
L 391.926593 117.53797 
L 389.50582 120.391674 
L 387.085048 118.475461 
L 384.664275 119.484652 
L 382.243503 122.001711 
L 379.82273 122.259216 
L 377.401957 120.360812 
L 374.981185 121.370491 
L 372.560412 121.897645 
L 370.13964 124.445745 
L 367.718867 126.109697 
L 365.298094 127.717499 
L 362.877322 126.94245 
L 360.456549 131.055098 
L 358.035777 130.68727 
L 355.615004 132.062182 
L 353.194232 134.818199 
L 350.773459 132.501904 
L 348.352686 132.437007 
L 345.931914 133.854187 
L 343.511141 136.653719 
L 341.090369 138.428877 
L 338.669596 137.624245 
L 336.248823 140.392984 
L 333.828051 141.110111 
L 331.407278 142.726051 
L 328.986506 140.146229 
L 326.565733 138.796805 
L 324.14496 138.54125 
L 321.724188 141.327046 
L 319.303415 143.005686 
L 316.882643 145.065206 
L 314.46187 145.24763 
L 312.041097 147.73322 
L 309.620325 147.657477 
L 307.199552 151.188081 
L 304.77878 152.101258 
L 302.358007 152.010044 
L 299.937235 154.102674 
L 297.516462 152.837911 
L 295.095689 156.271929 
L 292.674917 156.74619 
L 290.254144 159.430637 
L 287.833372 157.439203 
L 285.412599 160.879816 
L 282.991826 160.385089 
L 280.571054 160.828544 
L 278.150281 164.13768 
L 275.729509 162.101013 
L 273.308736 159.376496 
L 270.887963 162.019475 
L 268.467191 162.959424 
L 266.046418 167.088405 
L 263.625646 168.131822 
L 261.204873 167.631155 
L 258.7841 170.034665 
L 256.363328 169.488536 
L 253.942555 174.158616 
L 251.521783 172.044872 
L 249.10101 172.70735 
L 246.680238 173.30047 
L 244.259465 175.268499 
L 241.838692 179.057837 
L 239.41792 177.781445 
L 236.997147 176.367937 
L 234.576375 179.824884 
L 232.155602 183.235462 
L 229.734829 180.98007 
L 227.314057 181.554479 
L 224.893284 182.468358 
L 222.472512 183.390196 
L 220.051739 182.557723 
L 217.630966 181.988057 
L 215.210194 182.190218 
L 212.789421 186.055284 
L 210.368649 187.824878 
L 207.947876 186.828611 
L 205.527103 187.809595 
L 203.106331 187.000124 
L 200.685558 189.767856 
L 198.264786 190.207886 
L 195.844013 191.213914 
L 193.423241 193.913887 
L 191.002468 194.820683 
L 188.581695 194.426639 
L 186.160923 194.138776 
L 183.74015 196.51494 
L 181.319378 197.895275 
L 178.898605 197.190817 
L 176.477832 199.608413 
L 174.05706 201.396669 
L 171.636287 202.241002 
L 169.215515 203.457559 
L 166.794742 204.031009 
L 164.373969 205.711746 
L 161.953197 205.316052 
L 159.532424 207.104605 
L 157.111652 209.588483 
L 154.690879 209.543227 
L 152.270106 209.392342 
L 149.849334 210.123611 
L 147.428561 211.75544 
L 145.007789 214.0211 
L 142.587016 212.884085 
L 140.166243 214.670701 
L 137.745471 215.007824 
L 135.324698 217.734292 
L 132.903926 219.682533 
L 130.483153 219.344186 
L 128.062381 221.199824 
L 125.641608 223.615639 
L 123.220835 225.468399 
L 120.800063 227.517969 
L 118.37929 226.978421 
L 115.958518 229.802113 
L 113.537745 231.914925 
L 111.116972 232.429033 
L 108.6962 235.010234 
L 106.275427 235.818274 
L 103.854655 237.526738 
L 101.433882 239.785125 
L 99.013109 239.702279 
L 96.592337 241.953795 
L 94.171564 244.371322 
L 91.750792 247.24436 
L 89.330019 249.234194 
L 86.909246 251.915349 
L 84.488474 252.743985 
L 82.067701 255.298504 
L 79.646929 258.160386 
L 77.226156 260.341833 
L 74.805384 264.493105 
z
" clip-path="url(#p236a965775)" style="fill: #1f77b4; fill-opacity: 0.14902"/>
   </g>
   <g id="line2d_11">
    <path d="M 74.805384 285.206354 
L 77.226156 287.949019 
L 79.646929 290.978316 
L 82.067701 292.648536 
L 84.488474 294.163604 
L 86.909246 296.153389 
L 89.330019 297.908253 
L 91.750792 298.81962 
L 94.171564 300.321676 
L 96.592337 302.136233 
L 99.013109 303.229215 
L 101.433882 303.945696 
L 103.854655 305.234181 
L 106.275427 305.916729 
L 108.6962 306.398335 
L 111.116972 306.557781 
L 115.958518 309.605198 
L 118.37929 311.510098 
L 120.800063 311.528579 
L 123.220835 311.383299 
L 125.641608 312.838739 
L 128.062381 314.077077 
L 130.483153 315.989217 
L 132.903926 315.693651 
L 135.324698 315.957101 
L 137.745471 317.410618 
L 140.166243 317.235895 
L 142.587016 318.513167 
L 145.007789 320.493193 
L 147.428561 320.947257 
L 149.849334 322.112058 
L 152.270106 321.319284 
L 157.111652 323.299547 
L 159.532424 324.161854 
L 161.953197 323.946761 
L 164.373969 324.999447 
L 166.794742 325.393298 
L 169.215515 325.955461 
L 171.636287 326.088076 
L 174.05706 329.841583 
L 176.477832 329.341252 
L 178.898605 329.227309 
L 183.74015 330.776933 
L 186.160923 330.090811 
L 188.581695 333.556238 
L 191.002468 331.468994 
L 193.423241 332.397784 
L 200.685558 329.824807 
L 203.106331 330.868546 
L 205.527103 331.320115 
L 207.947876 331.548887 
L 210.368649 331.449305 
L 215.210194 333.998801 
L 217.630966 332.160272 
L 220.051739 332.711983 
L 222.472512 335.187878 
L 224.893284 334.898391 
L 227.314057 337.107246 
L 229.734829 336.016287 
L 232.155602 338.641547 
L 234.576375 339.95709 
L 236.997147 337.126663 
L 239.41792 334.880059 
L 241.838692 337.404033 
L 244.259465 338.535512 
L 246.680238 338.882005 
L 249.10101 342.41013 
L 251.521783 341.906525 
L 253.942555 341.803575 
L 256.363328 340.396988 
L 258.7841 343.284131 
L 261.204873 341.875682 
L 263.625646 341.509855 
L 266.046418 343.234554 
L 268.467191 341.103483 
L 273.308736 339.88826 
L 275.729509 340.464492 
L 278.150281 342.313382 
L 280.571054 340.623866 
L 282.991826 342.686039 
L 285.412599 342.279232 
L 287.833372 342.489596 
L 290.254144 343.479187 
L 292.674917 342.852134 
L 295.095689 342.35709 
L 297.516462 344.52038 
L 299.937235 343.222266 
L 302.358007 345.713242 
L 304.77878 346.31559 
L 307.199552 345.149585 
L 309.620325 345.560986 
L 312.041097 346.219519 
L 314.46187 346.025694 
L 316.882643 346.274025 
L 319.303415 349.509618 
L 321.724188 351.190921 
L 324.14496 351.224241 
L 326.565733 350.793466 
L 328.986506 352.608397 
L 331.407278 352.919856 
L 333.828051 354.330916 
L 336.248823 355.143383 
L 338.669596 355.829019 
L 341.090369 355.888805 
L 343.511141 355.076555 
L 345.931914 356.291466 
L 348.352686 354.274052 
L 350.773459 355.141032 
L 353.194232 356.289562 
L 355.615004 358.584146 
L 358.035777 358.883433 
L 360.456549 360.880241 
L 362.877322 361.122549 
L 365.298094 361.007765 
L 367.718867 360.348731 
L 370.13964 362.055382 
L 372.560412 361.445598 
L 374.981185 361.254167 
L 377.401957 361.997544 
L 379.82273 360.401956 
L 382.243503 361.688765 
L 384.664275 364.652993 
L 387.085048 363.923235 
L 389.50582 364.134714 
L 391.926593 366.315308 
L 394.347366 362.698182 
L 396.768138 362.451044 
L 399.188911 360.613525 
L 401.609683 360.413048 
L 404.030456 361.537915 
L 406.451229 361.527502 
L 408.872001 361.24568 
L 411.292774 359.749576 
L 413.713546 361.919353 
L 416.134319 362.7403 
L 418.555092 362.202652 
L 420.975864 360.478356 
L 423.396637 359.612294 
L 425.817409 357.650417 
L 428.238182 358.395326 
L 430.658954 358.138858 
L 433.079727 359.619397 
L 435.5005 357.638476 
L 437.921272 357.635701 
L 442.762817 356.599377 
L 445.18359 358.034146 
L 447.604363 356.63926 
L 450.025135 358.995932 
L 452.445908 359.470507 
L 454.86668 361.294787 
L 457.287453 358.943192 
L 459.708226 358.854256 
L 462.128998 361.374211 
L 464.549771 358.642286 
L 466.970543 361.114846 
L 469.391316 359.769912 
L 471.812089 358.992928 
L 474.232861 357.282032 
L 476.653634 359.578208 
L 479.074406 359.677077 
L 481.495179 361.999875 
L 483.915951 360.927816 
L 486.336724 362.722698 
L 488.757497 360.222019 
L 491.178269 360.358335 
L 493.599042 358.560514 
L 496.019814 360.683682 
L 498.440587 360.640919 
L 500.86136 361.299138 
L 503.282132 361.141428 
L 505.702905 361.122346 
L 508.123677 361.960937 
L 510.54445 363.977281 
L 512.965223 361.898335 
L 515.385995 361.476159 
L 517.806768 363.108137 
L 520.22754 362.225361 
L 525.069086 362.35002 
L 527.489858 362.309164 
L 529.910631 363.284629 
L 532.331403 361.991843 
L 537.172948 365.024638 
L 539.593721 362.752352 
L 542.014494 365.145035 
L 544.435266 365.606621 
L 546.856039 364.48722 
L 549.276811 365.724632 
L 551.697584 365.811487 
L 554.118357 362.700383 
L 556.539129 367.328606 
L 558.959902 368.064112 
L 561.380674 366.276454 
L 563.801447 369.502802 
L 566.22222 368.411442 
L 568.642992 367.864982 
L 571.063765 367.639762 
L 573.484537 370.589164 
L 575.90531 368.446684 
L 578.326083 370.390096 
L 580.746855 367.529148 
L 583.167628 369.657571 
L 585.5884 368.024851 
L 588.009173 369.025776 
L 590.429946 371.502552 
L 592.850718 372.575047 
L 595.271491 371.120222 
L 597.692263 368.244649 
L 600.113036 370.722043 
L 602.533808 372.439633 
L 607.375354 375.188614 
L 609.796126 375.29506 
L 612.216899 371.836975 
L 614.637671 372.854241 
L 617.058444 369.871862 
L 619.479217 372.456571 
L 621.899989 371.919811 
L 624.320762 371.238194 
L 626.741534 372.303513 
L 629.162307 373.718022 
L 631.58308 374.198422 
L 634.003852 374.478778 
L 636.424625 376.081713 
L 638.845397 376.917575 
L 641.26617 376.164398 
L 643.686943 375.946336 
L 646.107715 374.308862 
L 648.528488 374.614752 
L 650.94926 375.46962 
L 653.370033 375.248906 
L 655.790805 378.019939 
L 658.211578 377.348384 
L 660.632351 377.356916 
L 663.053123 378.064549 
L 665.473896 377.595752 
L 667.894668 377.476587 
L 670.315441 379.312188 
L 672.736214 377.942163 
L 675.156986 377.462379 
L 677.577759 379.289056 
L 679.998531 374.180309 
L 682.419304 375.213106 
L 682.419304 375.213106 
" clip-path="url(#p236a965775)" style="fill: none; stroke: #000000; stroke-opacity: 0; stroke-width: 0.886227; stroke-linejoin: miter"/>
   </g>
   <g id="line2d_12">
    <path d="M 74.805384 264.493105 
L 77.226156 260.341833 
L 79.646929 258.160386 
L 82.067701 255.298504 
L 84.488474 252.743985 
L 86.909246 251.915349 
L 89.330019 249.234194 
L 91.750792 247.24436 
L 94.171564 244.371322 
L 96.592337 241.953795 
L 99.013109 239.702279 
L 101.433882 239.785125 
L 103.854655 237.526738 
L 106.275427 235.818274 
L 108.6962 235.010234 
L 111.116972 232.429033 
L 113.537745 231.914925 
L 115.958518 229.802113 
L 118.37929 226.978421 
L 120.800063 227.517969 
L 123.220835 225.468399 
L 125.641608 223.615639 
L 128.062381 221.199824 
L 130.483153 219.344186 
L 132.903926 219.682533 
L 135.324698 217.734292 
L 137.745471 215.007824 
L 140.166243 214.670701 
L 142.587016 212.884085 
L 145.007789 214.0211 
L 147.428561 211.75544 
L 149.849334 210.123611 
L 152.270106 209.392342 
L 157.111652 209.588483 
L 159.532424 207.104605 
L 161.953197 205.316052 
L 164.373969 205.711746 
L 166.794742 204.031009 
L 169.215515 203.457559 
L 171.636287 202.241002 
L 174.05706 201.396669 
L 176.477832 199.608413 
L 178.898605 197.190817 
L 181.319378 197.895275 
L 183.74015 196.51494 
L 186.160923 194.138776 
L 191.002468 194.820683 
L 193.423241 193.913887 
L 195.844013 191.213914 
L 198.264786 190.207886 
L 200.685558 189.767856 
L 203.106331 187.000124 
L 205.527103 187.809595 
L 207.947876 186.828611 
L 210.368649 187.824878 
L 212.789421 186.055284 
L 215.210194 182.190218 
L 217.630966 181.988057 
L 220.051739 182.557723 
L 222.472512 183.390196 
L 227.314057 181.554479 
L 229.734829 180.98007 
L 232.155602 183.235462 
L 236.997147 176.367937 
L 239.41792 177.781445 
L 241.838692 179.057837 
L 244.259465 175.268499 
L 246.680238 173.30047 
L 251.521783 172.044872 
L 253.942555 174.158616 
L 256.363328 169.488536 
L 258.7841 170.034665 
L 261.204873 167.631155 
L 263.625646 168.131822 
L 266.046418 167.088405 
L 268.467191 162.959424 
L 270.887963 162.019475 
L 273.308736 159.376496 
L 275.729509 162.101013 
L 278.150281 164.13768 
L 280.571054 160.828544 
L 282.991826 160.385089 
L 285.412599 160.879816 
L 287.833372 157.439203 
L 290.254144 159.430637 
L 292.674917 156.74619 
L 295.095689 156.271929 
L 297.516462 152.837911 
L 299.937235 154.102674 
L 302.358007 152.010044 
L 304.77878 152.101258 
L 307.199552 151.188081 
L 309.620325 147.657477 
L 312.041097 147.73322 
L 314.46187 145.24763 
L 316.882643 145.065206 
L 319.303415 143.005686 
L 321.724188 141.327046 
L 324.14496 138.54125 
L 326.565733 138.796805 
L 328.986506 140.146229 
L 331.407278 142.726051 
L 333.828051 141.110111 
L 336.248823 140.392984 
L 338.669596 137.624245 
L 341.090369 138.428877 
L 343.511141 136.653719 
L 345.931914 133.854187 
L 348.352686 132.437007 
L 350.773459 132.501904 
L 353.194232 134.818199 
L 355.615004 132.062182 
L 358.035777 130.68727 
L 360.456549 131.055098 
L 362.877322 126.94245 
L 365.298094 127.717499 
L 370.13964 124.445745 
L 372.560412 121.897645 
L 374.981185 121.370491 
L 377.401957 120.360812 
L 379.82273 122.259216 
L 382.243503 122.001711 
L 384.664275 119.484652 
L 387.085048 118.475461 
L 389.50582 120.391674 
L 391.926593 117.53797 
L 394.347366 116.91456 
L 399.188911 111.76423 
L 401.609683 110.692443 
L 406.451229 114.721927 
L 408.872001 115.782084 
L 411.292774 113.648133 
L 413.713546 114.35735 
L 416.134319 110.317851 
L 418.555092 111.681697 
L 420.975864 110.717419 
L 423.396637 108.82715 
L 425.817409 107.495751 
L 428.238182 107.88481 
L 430.658954 107.298019 
L 433.079727 107.266794 
L 435.5005 105.30465 
L 437.921272 105.331184 
L 440.342045 103.527421 
L 442.762817 103.405789 
L 445.18359 102.840586 
L 447.604363 101.742058 
L 450.025135 99.992887 
L 452.445908 102.762242 
L 454.86668 102.384573 
L 457.287453 104.027242 
L 459.708226 100.11292 
L 462.128998 96.702128 
L 464.549771 99.652218 
L 466.970543 99.823813 
L 469.391316 94.594831 
L 471.812089 93.279556 
L 474.232861 95.853272 
L 476.653634 94.902203 
L 479.074406 96.083399 
L 481.495179 96.839585 
L 483.915951 98.927388 
L 486.336724 98.848771 
L 488.757497 99.413752 
L 491.178269 96.11764 
L 493.599042 95.770472 
L 496.019814 96.82884 
L 498.440587 97.540849 
L 500.86136 91.139077 
L 503.282132 93.834032 
L 505.702905 90.580814 
L 508.123677 89.938082 
L 510.54445 88.866331 
L 512.965223 86.486213 
L 515.385995 86.257275 
L 517.806768 88.868153 
L 520.22754 87.601792 
L 522.648313 88.267006 
L 525.069086 84.974329 
L 527.489858 86.154999 
L 529.910631 82.945244 
L 532.331403 82.733264 
L 534.752176 85.383418 
L 537.172948 84.101139 
L 539.593721 85.346891 
L 542.014494 86.86748 
L 544.435266 86.197914 
L 546.856039 84.840857 
L 549.276811 81.590593 
L 551.697584 81.666626 
L 554.118357 77.164976 
L 556.539129 77.595033 
L 558.959902 80.726037 
L 561.380674 81.205107 
L 563.801447 79.769662 
L 566.22222 79.300971 
L 568.642992 76.708516 
L 571.063765 75.576534 
L 573.484537 74.794211 
L 575.90531 72.530416 
L 578.326083 76.511156 
L 580.746855 72.171286 
L 583.167628 75.880861 
L 585.5884 76.513536 
L 588.009173 77.67535 
L 590.429946 74.866928 
L 592.850718 76.593158 
L 595.271491 74.25147 
L 597.692263 77.098044 
L 600.113036 75.589021 
L 602.533808 77.976498 
L 604.954581 78.409681 
L 607.375354 80.067066 
L 609.796126 80.610347 
L 612.216899 73.521446 
L 614.637671 70.512549 
L 617.058444 72.477675 
L 619.479217 73.429155 
L 621.899989 70.499762 
L 624.320762 71.080902 
L 626.741534 70.187414 
L 629.162307 67.030613 
L 631.58308 69.106987 
L 634.003852 63.709688 
L 636.424625 69.222658 
L 638.845397 66.937801 
L 641.26617 66.959866 
L 643.686943 63.723163 
L 646.107715 60.82833 
L 648.528488 59.609179 
L 650.94926 59.771629 
L 653.370033 59.303535 
L 655.790805 56.015644 
L 658.211578 57.021087 
L 660.632351 55.938627 
L 663.053123 55.894286 
L 665.473896 54.901513 
L 667.894668 46.638845 
L 670.315441 48.853109 
L 672.736214 48.228726 
L 675.156986 45.214638 
L 677.577759 44.680938 
L 679.998531 49.837317 
L 682.419304 51.016689 
L 682.419304 51.016689 
" clip-path="url(#p236a965775)" style="fill: none; stroke: #000000; stroke-opacity: 0; stroke-width: 0.886227; stroke-linejoin: miter"/>
   </g>
   <g id="FillBetweenPolyCollection_2">
    <path d="M 74.805384 270.516391 
L 74.805384 278.659257 
L 77.226156 279.995755 
L 79.646929 280.711988 
L 82.067701 282.089703 
L 84.488474 283.002947 
L 86.909246 283.207861 
L 89.330019 283.803816 
L 91.750792 283.997059 
L 94.171564 283.955104 
L 96.592337 285.275837 
L 99.013109 286.023803 
L 101.433882 285.548572 
L 103.854655 285.821422 
L 106.275427 286.27691 
L 108.6962 286.140552 
L 111.116972 286.568802 
L 113.537745 286.378116 
L 115.958518 287.675842 
L 118.37929 287.773102 
L 120.800063 287.604638 
L 123.220835 287.976053 
L 125.641608 287.997173 
L 128.062381 288.725795 
L 130.483153 288.523862 
L 132.903926 290.303505 
L 135.324698 290.046318 
L 137.745471 290.439019 
L 140.166243 290.432599 
L 142.587016 290.282311 
L 145.007789 289.317545 
L 147.428561 289.711767 
L 149.849334 289.990871 
L 152.270106 289.676312 
L 154.690879 290.865837 
L 157.111652 289.775986 
L 159.532424 290.190634 
L 161.953197 289.19325 
L 164.373969 289.418504 
L 166.794742 289.717308 
L 169.215515 290.167971 
L 171.636287 289.968489 
L 174.05706 290.624281 
L 176.477832 291.546163 
L 178.898605 292.361899 
L 181.319378 292.836141 
L 183.74015 292.857237 
L 186.160923 292.947317 
L 188.581695 293.454505 
L 191.002468 292.955708 
L 193.423241 292.979092 
L 195.844013 293.089454 
L 198.264786 291.432885 
L 200.685558 292.35209 
L 203.106331 293.301584 
L 205.527103 293.430352 
L 207.947876 294.207005 
L 210.368649 292.986192 
L 212.789421 292.588948 
L 215.210194 293.710748 
L 217.630966 294.038127 
L 220.051739 294.213826 
L 222.472512 293.509939 
L 224.893284 294.14024 
L 227.314057 293.946311 
L 229.734829 294.351249 
L 232.155602 293.931275 
L 234.576375 294.022399 
L 236.997147 293.767177 
L 239.41792 294.701658 
L 241.838692 293.280745 
L 244.259465 295.195587 
L 246.680238 293.558903 
L 249.10101 293.575492 
L 251.521783 293.173006 
L 253.942555 294.539683 
L 256.363328 293.591236 
L 258.7841 294.711857 
L 261.204873 292.889726 
L 263.625646 293.979285 
L 266.046418 294.572869 
L 268.467191 294.809548 
L 270.887963 294.08076 
L 273.308736 294.177613 
L 275.729509 294.181345 
L 278.150281 294.685766 
L 280.571054 294.660449 
L 282.991826 295.305872 
L 285.412599 295.290376 
L 287.833372 294.68283 
L 290.254144 294.108504 
L 292.674917 295.249826 
L 295.095689 296.699351 
L 297.516462 296.847345 
L 299.937235 296.625602 
L 302.358007 297.335188 
L 304.77878 296.615601 
L 307.199552 295.939434 
L 309.620325 295.030905 
L 312.041097 296.434968 
L 314.46187 295.959292 
L 316.882643 296.744397 
L 319.303415 297.222035 
L 321.724188 297.083516 
L 324.14496 296.429192 
L 326.565733 296.544178 
L 328.986506 297.867348 
L 331.407278 298.677097 
L 333.828051 298.054078 
L 336.248823 297.854416 
L 338.669596 296.372967 
L 341.090369 297.22438 
L 343.511141 296.861233 
L 345.931914 296.192536 
L 348.352686 295.623543 
L 350.773459 296.057438 
L 353.194232 295.714468 
L 355.615004 295.850253 
L 358.035777 295.054764 
L 360.456549 296.173155 
L 362.877322 295.284037 
L 365.298094 295.558273 
L 367.718867 296.763401 
L 370.13964 295.026837 
L 372.560412 296.530771 
L 374.981185 295.329907 
L 377.401957 294.971053 
L 379.82273 295.762357 
L 382.243503 295.04616 
L 384.664275 296.021159 
L 387.085048 294.929371 
L 389.50582 296.699721 
L 391.926593 295.2593 
L 394.347366 295.718424 
L 396.768138 295.178933 
L 399.188911 296.544224 
L 401.609683 296.346145 
L 404.030456 297.077513 
L 406.451229 296.409122 
L 408.872001 296.689372 
L 411.292774 296.322865 
L 413.713546 296.691183 
L 416.134319 296.311112 
L 418.555092 296.806827 
L 420.975864 296.884448 
L 423.396637 297.648472 
L 425.817409 297.365349 
L 428.238182 297.313068 
L 430.658954 297.041565 
L 433.079727 294.764315 
L 435.5005 295.907851 
L 437.921272 296.536001 
L 440.342045 296.908667 
L 442.762817 297.726443 
L 445.18359 297.865351 
L 447.604363 298.544445 
L 450.025135 298.525948 
L 452.445908 297.996539 
L 454.86668 297.263565 
L 457.287453 298.220401 
L 459.708226 298.498016 
L 462.128998 298.637527 
L 464.549771 298.036654 
L 466.970543 297.720235 
L 469.391316 300.051341 
L 471.812089 297.904148 
L 474.232861 299.284521 
L 476.653634 296.887944 
L 479.074406 296.56705 
L 481.495179 296.951779 
L 483.915951 297.244119 
L 486.336724 296.891816 
L 488.757497 297.203834 
L 491.178269 297.873622 
L 493.599042 297.644453 
L 496.019814 297.19867 
L 498.440587 298.272842 
L 500.86136 297.786326 
L 503.282132 299.213343 
L 505.702905 296.252697 
L 508.123677 298.080784 
L 510.54445 296.808291 
L 512.965223 296.915532 
L 515.385995 296.411879 
L 517.806768 297.72341 
L 520.22754 297.132629 
L 522.648313 298.72985 
L 525.069086 297.099571 
L 527.489858 294.412604 
L 529.910631 297.514299 
L 532.331403 296.314027 
L 534.752176 296.74352 
L 537.172948 295.627538 
L 539.593721 297.535753 
L 542.014494 296.960723 
L 544.435266 296.708084 
L 546.856039 296.519663 
L 549.276811 296.738917 
L 551.697584 296.734246 
L 554.118357 296.755352 
L 556.539129 296.969319 
L 558.959902 297.337959 
L 561.380674 296.844188 
L 563.801447 297.628899 
L 566.22222 296.274628 
L 568.642992 294.844893 
L 571.063765 293.794324 
L 573.484537 294.146174 
L 575.90531 295.784473 
L 578.326083 294.853297 
L 580.746855 294.130733 
L 583.167628 296.688134 
L 585.5884 295.210757 
L 588.009173 295.363159 
L 590.429946 295.404841 
L 592.850718 295.831212 
L 595.271491 295.66276 
L 597.692263 295.162802 
L 600.113036 294.843377 
L 602.533808 292.432256 
L 604.954581 292.532946 
L 607.375354 293.194555 
L 609.796126 293.175815 
L 612.216899 291.792238 
L 614.637671 291.598964 
L 617.058444 291.551435 
L 619.479217 291.130394 
L 621.899989 292.916325 
L 624.320762 292.830587 
L 626.741534 292.786659 
L 629.162307 292.125564 
L 631.58308 291.896318 
L 634.003852 292.093017 
L 636.424625 291.179755 
L 638.845397 290.465043 
L 641.26617 289.443291 
L 643.686943 290.101014 
L 646.107715 291.055102 
L 648.528488 289.879775 
L 650.94926 290.188416 
L 653.370033 291.829937 
L 655.790805 290.59547 
L 658.211578 290.393718 
L 660.632351 291.225612 
L 663.053123 290.472497 
L 665.473896 291.061322 
L 667.894668 291.7464 
L 670.315441 290.654312 
L 672.736214 290.444407 
L 675.156986 289.171653 
L 677.577759 288.862579 
L 679.998531 289.264692 
L 682.419304 290.043384 
L 682.419304 159.609034 
L 682.419304 159.609034 
L 679.998531 161.132347 
L 677.577759 162.913875 
L 675.156986 163.077469 
L 672.736214 164.61971 
L 670.315441 163.501573 
L 667.894668 164.737958 
L 665.473896 164.096685 
L 663.053123 162.667652 
L 660.632351 164.095074 
L 658.211578 164.433151 
L 655.790805 164.793006 
L 653.370033 163.413349 
L 650.94926 163.922581 
L 648.528488 164.814513 
L 646.107715 165.97532 
L 643.686943 165.704495 
L 641.26617 164.526605 
L 638.845397 166.027733 
L 636.424625 166.31596 
L 634.003852 168.559121 
L 631.58308 166.885554 
L 629.162307 168.597243 
L 626.741534 168.979441 
L 624.320762 169.877126 
L 621.899989 170.089615 
L 619.479217 171.618958 
L 617.058444 169.874749 
L 614.637671 171.682104 
L 612.216899 171.446841 
L 609.796126 170.294761 
L 607.375354 171.992885 
L 604.954581 170.596304 
L 602.533808 170.474992 
L 600.113036 171.346977 
L 597.692263 172.216063 
L 595.271491 172.410098 
L 592.850718 171.432614 
L 590.429946 172.295904 
L 588.009173 170.994407 
L 585.5884 172.378416 
L 583.167628 173.095279 
L 580.746855 174.23847 
L 578.326083 172.570584 
L 575.90531 174.173411 
L 573.484537 171.610149 
L 571.063765 171.888416 
L 568.642992 173.356109 
L 566.22222 173.479298 
L 563.801447 175.248801 
L 561.380674 175.645876 
L 558.959902 178.335472 
L 556.539129 176.238243 
L 554.118357 178.023168 
L 551.697584 179.344311 
L 549.276811 177.625059 
L 546.856039 177.096638 
L 544.435266 177.487592 
L 542.014494 178.089061 
L 539.593721 179.039244 
L 537.172948 177.01775 
L 534.752176 178.637028 
L 532.331403 179.082812 
L 529.910631 179.329817 
L 527.489858 179.533795 
L 525.069086 180.08277 
L 522.648313 179.647802 
L 520.22754 180.959163 
L 517.806768 183.153425 
L 515.385995 182.133784 
L 512.965223 182.465022 
L 510.54445 182.91623 
L 508.123677 183.557412 
L 505.702905 182.905472 
L 503.282132 184.37248 
L 500.86136 185.548683 
L 498.440587 187.724659 
L 496.019814 188.003025 
L 493.599042 187.455178 
L 491.178269 187.581113 
L 488.757497 188.392602 
L 486.336724 188.438349 
L 483.915951 188.202303 
L 481.495179 187.989569 
L 479.074406 186.374959 
L 476.653634 188.040462 
L 474.232861 187.576203 
L 471.812089 191.331337 
L 469.391316 191.541892 
L 466.970543 190.482459 
L 464.549771 189.703732 
L 462.128998 192.051349 
L 459.708226 191.962033 
L 457.287453 193.206238 
L 454.86668 191.861364 
L 452.445908 191.850687 
L 450.025135 192.92344 
L 447.604363 194.17255 
L 445.18359 194.887855 
L 442.762817 195.573263 
L 440.342045 194.611248 
L 437.921272 194.024355 
L 435.5005 192.860947 
L 433.079727 195.530898 
L 430.658954 195.069421 
L 428.238182 195.387441 
L 425.817409 194.959957 
L 423.396637 195.070032 
L 420.975864 193.517112 
L 418.555092 194.271647 
L 416.134319 194.680393 
L 413.713546 195.597391 
L 411.292774 194.745289 
L 408.872001 196.107913 
L 406.451229 195.574955 
L 404.030456 195.631968 
L 401.609683 196.863184 
L 399.188911 198.107734 
L 396.768138 199.524906 
L 394.347366 198.682305 
L 391.926593 198.614322 
L 389.50582 198.890098 
L 387.085048 199.71061 
L 384.664275 200.002196 
L 382.243503 201.333322 
L 379.82273 201.69768 
L 377.401957 202.489378 
L 374.981185 202.764756 
L 372.560412 203.484246 
L 370.13964 204.276905 
L 367.718867 204.382356 
L 365.298094 203.128424 
L 362.877322 203.215464 
L 360.456549 203.298848 
L 358.035777 204.742124 
L 355.615004 205.726651 
L 353.194232 205.641502 
L 350.773459 205.359271 
L 348.352686 207.226014 
L 345.931914 208.302249 
L 343.511141 207.529946 
L 341.090369 208.466378 
L 338.669596 208.378168 
L 336.248823 209.499893 
L 333.828051 209.170392 
L 331.407278 209.991307 
L 328.986506 209.3389 
L 326.565733 209.124775 
L 324.14496 206.927282 
L 321.724188 209.139297 
L 319.303415 209.470106 
L 316.882643 209.452161 
L 314.46187 210.076333 
L 312.041097 211.390694 
L 309.620325 211.260837 
L 307.199552 211.316579 
L 304.77878 210.76376 
L 302.358007 210.717933 
L 299.937235 210.966631 
L 297.516462 211.341214 
L 295.095689 212.743982 
L 292.674917 212.147949 
L 290.254144 213.666846 
L 287.833372 214.048185 
L 285.412599 215.704082 
L 282.991826 216.602039 
L 280.571054 215.724054 
L 278.150281 216.491129 
L 275.729509 218.398027 
L 273.308736 217.820934 
L 270.887963 218.156833 
L 268.467191 220.712565 
L 266.046418 220.888543 
L 263.625646 219.302197 
L 261.204873 220.110537 
L 258.7841 220.064256 
L 256.363328 221.741787 
L 253.942555 222.727228 
L 251.521783 221.508671 
L 249.10101 223.066792 
L 246.680238 223.053334 
L 244.259465 224.243108 
L 241.838692 225.343687 
L 239.41792 225.819532 
L 236.997147 226.804672 
L 234.576375 227.364538 
L 232.155602 226.462141 
L 229.734829 227.021662 
L 227.314057 228.191133 
L 224.893284 228.442588 
L 222.472512 229.659658 
L 220.051739 229.912386 
L 217.630966 231.323716 
L 215.210194 231.934227 
L 212.789421 232.178944 
L 210.368649 233.496137 
L 207.947876 233.887485 
L 205.527103 236.344117 
L 203.106331 235.583786 
L 200.685558 236.156631 
L 198.264786 236.138676 
L 195.844013 236.776694 
L 193.423241 237.963562 
L 191.002468 236.642251 
L 188.581695 238.165688 
L 186.160923 239.07077 
L 183.74015 238.46243 
L 181.319378 237.487083 
L 178.898605 239.928125 
L 176.477832 239.315465 
L 174.05706 240.634731 
L 171.636287 242.004853 
L 169.215515 242.178324 
L 166.794742 242.764461 
L 164.373969 243.027056 
L 161.953197 243.751386 
L 159.532424 244.183559 
L 157.111652 244.464606 
L 154.690879 245.134794 
L 152.270106 244.704755 
L 149.849334 244.411208 
L 147.428561 245.952554 
L 145.007789 246.622909 
L 142.587016 246.902515 
L 140.166243 248.047562 
L 137.745471 249.098027 
L 135.324698 249.409327 
L 132.903926 250.313144 
L 130.483153 250.866185 
L 128.062381 250.999922 
L 125.641608 252.243772 
L 123.220835 252.215825 
L 120.800063 252.535234 
L 118.37929 252.944555 
L 115.958518 253.864379 
L 113.537745 255.649769 
L 111.116972 255.736965 
L 108.6962 256.463689 
L 106.275427 257.244168 
L 103.854655 258.56418 
L 101.433882 259.008647 
L 99.013109 259.910954 
L 96.592337 260.448409 
L 94.171564 261.268648 
L 91.750792 262.053418 
L 89.330019 263.30917 
L 86.909246 264.868047 
L 84.488474 265.64627 
L 82.067701 266.964904 
L 79.646929 268.074795 
L 77.226156 268.902969 
L 74.805384 270.516391 
z
" clip-path="url(#p236a965775)" style="fill: #1f77b4; fill-opacity: 0.298039"/>
   </g>
   <g id="line2d_13">
    <path d="M 74.805384 278.659257 
L 77.226156 279.995755 
L 79.646929 280.711988 
L 82.067701 282.089703 
L 84.488474 283.002947 
L 86.909246 283.207861 
L 89.330019 283.803816 
L 91.750792 283.997059 
L 94.171564 283.955104 
L 96.592337 285.275837 
L 99.013109 286.023803 
L 101.433882 285.548572 
L 103.854655 285.821422 
L 106.275427 286.27691 
L 108.6962 286.140552 
L 111.116972 286.568802 
L 113.537745 286.378116 
L 115.958518 287.675842 
L 118.37929 287.773102 
L 120.800063 287.604638 
L 123.220835 287.976053 
L 125.641608 287.997173 
L 128.062381 288.725795 
L 130.483153 288.523862 
L 132.903926 290.303505 
L 135.324698 290.046318 
L 137.745471 290.439019 
L 140.166243 290.432599 
L 142.587016 290.282311 
L 145.007789 289.317545 
L 147.428561 289.711767 
L 149.849334 289.990871 
L 152.270106 289.676312 
L 154.690879 290.865837 
L 157.111652 289.775986 
L 159.532424 290.190634 
L 161.953197 289.19325 
L 166.794742 289.717308 
L 169.215515 290.167971 
L 171.636287 289.968489 
L 174.05706 290.624281 
L 178.898605 292.361899 
L 181.319378 292.836141 
L 186.160923 292.947317 
L 188.581695 293.454505 
L 191.002468 292.955708 
L 195.844013 293.089454 
L 198.264786 291.432885 
L 203.106331 293.301584 
L 205.527103 293.430352 
L 207.947876 294.207005 
L 210.368649 292.986192 
L 212.789421 292.588948 
L 215.210194 293.710748 
L 217.630966 294.038127 
L 220.051739 294.213826 
L 222.472512 293.509939 
L 224.893284 294.14024 
L 227.314057 293.946311 
L 229.734829 294.351249 
L 232.155602 293.931275 
L 234.576375 294.022399 
L 236.997147 293.767177 
L 239.41792 294.701658 
L 241.838692 293.280745 
L 244.259465 295.195587 
L 246.680238 293.558903 
L 249.10101 293.575492 
L 251.521783 293.173006 
L 253.942555 294.539683 
L 256.363328 293.591236 
L 258.7841 294.711857 
L 261.204873 292.889726 
L 263.625646 293.979285 
L 266.046418 294.572869 
L 268.467191 294.809548 
L 270.887963 294.08076 
L 275.729509 294.181345 
L 278.150281 294.685766 
L 280.571054 294.660449 
L 282.991826 295.305872 
L 285.412599 295.290376 
L 290.254144 294.108504 
L 292.674917 295.249826 
L 295.095689 296.699351 
L 297.516462 296.847345 
L 299.937235 296.625602 
L 302.358007 297.335188 
L 307.199552 295.939434 
L 309.620325 295.030905 
L 312.041097 296.434968 
L 314.46187 295.959292 
L 316.882643 296.744397 
L 319.303415 297.222035 
L 321.724188 297.083516 
L 324.14496 296.429192 
L 326.565733 296.544178 
L 328.986506 297.867348 
L 331.407278 298.677097 
L 333.828051 298.054078 
L 336.248823 297.854416 
L 338.669596 296.372967 
L 341.090369 297.22438 
L 343.511141 296.861233 
L 348.352686 295.623543 
L 350.773459 296.057438 
L 353.194232 295.714468 
L 355.615004 295.850253 
L 358.035777 295.054764 
L 360.456549 296.173155 
L 362.877322 295.284037 
L 365.298094 295.558273 
L 367.718867 296.763401 
L 370.13964 295.026837 
L 372.560412 296.530771 
L 374.981185 295.329907 
L 377.401957 294.971053 
L 379.82273 295.762357 
L 382.243503 295.04616 
L 384.664275 296.021159 
L 387.085048 294.929371 
L 389.50582 296.699721 
L 391.926593 295.2593 
L 394.347366 295.718424 
L 396.768138 295.178933 
L 399.188911 296.544224 
L 401.609683 296.346145 
L 404.030456 297.077513 
L 406.451229 296.409122 
L 408.872001 296.689372 
L 411.292774 296.322865 
L 413.713546 296.691183 
L 416.134319 296.311112 
L 418.555092 296.806827 
L 420.975864 296.884448 
L 423.396637 297.648472 
L 425.817409 297.365349 
L 428.238182 297.313068 
L 430.658954 297.041565 
L 433.079727 294.764315 
L 435.5005 295.907851 
L 437.921272 296.536001 
L 440.342045 296.908667 
L 442.762817 297.726443 
L 445.18359 297.865351 
L 447.604363 298.544445 
L 450.025135 298.525948 
L 452.445908 297.996539 
L 454.86668 297.263565 
L 457.287453 298.220401 
L 459.708226 298.498016 
L 462.128998 298.637527 
L 464.549771 298.036654 
L 466.970543 297.720235 
L 469.391316 300.051341 
L 471.812089 297.904148 
L 474.232861 299.284521 
L 476.653634 296.887944 
L 479.074406 296.56705 
L 483.915951 297.244119 
L 486.336724 296.891816 
L 488.757497 297.203834 
L 491.178269 297.873622 
L 493.599042 297.644453 
L 496.019814 297.19867 
L 498.440587 298.272842 
L 500.86136 297.786326 
L 503.282132 299.213343 
L 505.702905 296.252697 
L 508.123677 298.080784 
L 510.54445 296.808291 
L 512.965223 296.915532 
L 515.385995 296.411879 
L 517.806768 297.72341 
L 520.22754 297.132629 
L 522.648313 298.72985 
L 525.069086 297.099571 
L 527.489858 294.412604 
L 529.910631 297.514299 
L 532.331403 296.314027 
L 534.752176 296.74352 
L 537.172948 295.627538 
L 539.593721 297.535753 
L 542.014494 296.960723 
L 546.856039 296.519663 
L 549.276811 296.738917 
L 554.118357 296.755352 
L 556.539129 296.969319 
L 558.959902 297.337959 
L 561.380674 296.844188 
L 563.801447 297.628899 
L 568.642992 294.844893 
L 571.063765 293.794324 
L 573.484537 294.146174 
L 575.90531 295.784473 
L 578.326083 294.853297 
L 580.746855 294.130733 
L 583.167628 296.688134 
L 585.5884 295.210757 
L 590.429946 295.404841 
L 592.850718 295.831212 
L 595.271491 295.66276 
L 597.692263 295.162802 
L 600.113036 294.843377 
L 602.533808 292.432256 
L 604.954581 292.532946 
L 607.375354 293.194555 
L 609.796126 293.175815 
L 612.216899 291.792238 
L 614.637671 291.598964 
L 617.058444 291.551435 
L 619.479217 291.130394 
L 621.899989 292.916325 
L 626.741534 292.786659 
L 629.162307 292.125564 
L 631.58308 291.896318 
L 634.003852 292.093017 
L 636.424625 291.179755 
L 638.845397 290.465043 
L 641.26617 289.443291 
L 643.686943 290.101014 
L 646.107715 291.055102 
L 648.528488 289.879775 
L 650.94926 290.188416 
L 653.370033 291.829937 
L 655.790805 290.59547 
L 658.211578 290.393718 
L 660.632351 291.225612 
L 663.053123 290.472497 
L 667.894668 291.7464 
L 670.315441 290.654312 
L 672.736214 290.444407 
L 675.156986 289.171653 
L 677.577759 288.862579 
L 679.998531 289.264692 
L 682.419304 290.043384 
L 682.419304 290.043384 
" clip-path="url(#p236a965775)" style="fill: none; stroke: #000000; stroke-opacity: 0; stroke-width: 0.886227; stroke-linejoin: miter"/>
   </g>
   <g id="line2d_14">
    <path d="M 74.805384 270.516391 
L 77.226156 268.902969 
L 79.646929 268.074795 
L 82.067701 266.964904 
L 84.488474 265.64627 
L 86.909246 264.868047 
L 89.330019 263.30917 
L 91.750792 262.053418 
L 96.592337 260.448409 
L 99.013109 259.910954 
L 101.433882 259.008647 
L 103.854655 258.56418 
L 106.275427 257.244168 
L 111.116972 255.736965 
L 113.537745 255.649769 
L 115.958518 253.864379 
L 118.37929 252.944555 
L 123.220835 252.215825 
L 125.641608 252.243772 
L 128.062381 250.999922 
L 130.483153 250.866185 
L 132.903926 250.313144 
L 135.324698 249.409327 
L 137.745471 249.098027 
L 142.587016 246.902515 
L 145.007789 246.622909 
L 147.428561 245.952554 
L 149.849334 244.411208 
L 152.270106 244.704755 
L 154.690879 245.134794 
L 157.111652 244.464606 
L 159.532424 244.183559 
L 161.953197 243.751386 
L 164.373969 243.027056 
L 166.794742 242.764461 
L 169.215515 242.178324 
L 171.636287 242.004853 
L 176.477832 239.315465 
L 178.898605 239.928125 
L 181.319378 237.487083 
L 183.74015 238.46243 
L 186.160923 239.07077 
L 188.581695 238.165688 
L 191.002468 236.642251 
L 193.423241 237.963562 
L 195.844013 236.776694 
L 198.264786 236.138676 
L 200.685558 236.156631 
L 203.106331 235.583786 
L 205.527103 236.344117 
L 207.947876 233.887485 
L 210.368649 233.496137 
L 212.789421 232.178944 
L 215.210194 231.934227 
L 217.630966 231.323716 
L 220.051739 229.912386 
L 222.472512 229.659658 
L 224.893284 228.442588 
L 227.314057 228.191133 
L 229.734829 227.021662 
L 232.155602 226.462141 
L 234.576375 227.364538 
L 236.997147 226.804672 
L 239.41792 225.819532 
L 241.838692 225.343687 
L 246.680238 223.053334 
L 249.10101 223.066792 
L 251.521783 221.508671 
L 253.942555 222.727228 
L 256.363328 221.741787 
L 258.7841 220.064256 
L 261.204873 220.110537 
L 263.625646 219.302197 
L 266.046418 220.888543 
L 268.467191 220.712565 
L 270.887963 218.156833 
L 273.308736 217.820934 
L 275.729509 218.398027 
L 278.150281 216.491129 
L 280.571054 215.724054 
L 282.991826 216.602039 
L 285.412599 215.704082 
L 287.833372 214.048185 
L 290.254144 213.666846 
L 292.674917 212.147949 
L 295.095689 212.743982 
L 297.516462 211.341214 
L 299.937235 210.966631 
L 302.358007 210.717933 
L 304.77878 210.76376 
L 307.199552 211.316579 
L 309.620325 211.260837 
L 312.041097 211.390694 
L 314.46187 210.076333 
L 316.882643 209.452161 
L 319.303415 209.470106 
L 321.724188 209.139297 
L 324.14496 206.927282 
L 326.565733 209.124775 
L 328.986506 209.3389 
L 331.407278 209.991307 
L 333.828051 209.170392 
L 336.248823 209.499893 
L 338.669596 208.378168 
L 341.090369 208.466378 
L 343.511141 207.529946 
L 345.931914 208.302249 
L 348.352686 207.226014 
L 350.773459 205.359271 
L 353.194232 205.641502 
L 355.615004 205.726651 
L 358.035777 204.742124 
L 360.456549 203.298848 
L 365.298094 203.128424 
L 367.718867 204.382356 
L 370.13964 204.276905 
L 374.981185 202.764756 
L 377.401957 202.489378 
L 379.82273 201.69768 
L 382.243503 201.333322 
L 384.664275 200.002196 
L 387.085048 199.71061 
L 389.50582 198.890098 
L 391.926593 198.614322 
L 394.347366 198.682305 
L 396.768138 199.524906 
L 399.188911 198.107734 
L 404.030456 195.631968 
L 406.451229 195.574955 
L 408.872001 196.107913 
L 411.292774 194.745289 
L 413.713546 195.597391 
L 416.134319 194.680393 
L 418.555092 194.271647 
L 420.975864 193.517112 
L 423.396637 195.070032 
L 425.817409 194.959957 
L 428.238182 195.387441 
L 430.658954 195.069421 
L 433.079727 195.530898 
L 435.5005 192.860947 
L 437.921272 194.024355 
L 440.342045 194.611248 
L 442.762817 195.573263 
L 447.604363 194.17255 
L 450.025135 192.92344 
L 452.445908 191.850687 
L 454.86668 191.861364 
L 457.287453 193.206238 
L 459.708226 191.962033 
L 462.128998 192.051349 
L 464.549771 189.703732 
L 466.970543 190.482459 
L 469.391316 191.541892 
L 471.812089 191.331337 
L 474.232861 187.576203 
L 476.653634 188.040462 
L 479.074406 186.374959 
L 481.495179 187.989569 
L 486.336724 188.438349 
L 488.757497 188.392602 
L 491.178269 187.581113 
L 493.599042 187.455178 
L 496.019814 188.003025 
L 498.440587 187.724659 
L 500.86136 185.548683 
L 503.282132 184.37248 
L 505.702905 182.905472 
L 508.123677 183.557412 
L 510.54445 182.91623 
L 512.965223 182.465022 
L 515.385995 182.133784 
L 517.806768 183.153425 
L 520.22754 180.959163 
L 522.648313 179.647802 
L 525.069086 180.08277 
L 527.489858 179.533795 
L 532.331403 179.082812 
L 534.752176 178.637028 
L 537.172948 177.01775 
L 539.593721 179.039244 
L 542.014494 178.089061 
L 544.435266 177.487592 
L 546.856039 177.096638 
L 549.276811 177.625059 
L 551.697584 179.344311 
L 554.118357 178.023168 
L 556.539129 176.238243 
L 558.959902 178.335472 
L 561.380674 175.645876 
L 563.801447 175.248801 
L 566.22222 173.479298 
L 568.642992 173.356109 
L 571.063765 171.888416 
L 573.484537 171.610149 
L 575.90531 174.173411 
L 578.326083 172.570584 
L 580.746855 174.23847 
L 583.167628 173.095279 
L 585.5884 172.378416 
L 588.009173 170.994407 
L 590.429946 172.295904 
L 592.850718 171.432614 
L 595.271491 172.410098 
L 597.692263 172.216063 
L 602.533808 170.474992 
L 604.954581 170.596304 
L 607.375354 171.992885 
L 609.796126 170.294761 
L 612.216899 171.446841 
L 614.637671 171.682104 
L 617.058444 169.874749 
L 619.479217 171.618958 
L 621.899989 170.089615 
L 624.320762 169.877126 
L 626.741534 168.979441 
L 629.162307 168.597243 
L 631.58308 166.885554 
L 634.003852 168.559121 
L 636.424625 166.31596 
L 638.845397 166.027733 
L 641.26617 164.526605 
L 643.686943 165.704495 
L 646.107715 165.97532 
L 648.528488 164.814513 
L 650.94926 163.922581 
L 653.370033 163.413349 
L 655.790805 164.793006 
L 660.632351 164.095074 
L 663.053123 162.667652 
L 665.473896 164.096685 
L 667.894668 164.737958 
L 670.315441 163.501573 
L 672.736214 164.61971 
L 675.156986 163.077469 
L 677.577759 162.913875 
L 679.998531 161.132347 
L 682.419304 159.609034 
L 682.419304 159.609034 
" clip-path="url(#p236a965775)" style="fill: none; stroke: #000000; stroke-opacity: 0; stroke-width: 0.886227; stroke-linejoin: miter"/>
   </g>
   <g id="line2d_15">
    <path d="M 74.805384 274.756299 
L 79.646929 274.702798 
L 82.067701 274.4277 
L 84.488474 274.01363 
L 86.909246 273.084592 
L 89.330019 273.136888 
L 91.750792 273.374149 
L 94.171564 273.17672 
L 96.592337 272.588542 
L 99.013109 273.122744 
L 101.433882 272.155671 
L 103.854655 272.473885 
L 106.275427 272.5594 
L 108.6962 271.741393 
L 111.116972 270.634667 
L 113.537745 271.356741 
L 115.958518 270.370412 
L 118.37929 270.491455 
L 120.800063 270.748114 
L 123.220835 270.749147 
L 125.641608 271.843065 
L 128.062381 271.174373 
L 130.483153 269.909101 
L 132.903926 269.230546 
L 135.324698 269.154138 
L 137.745471 269.799169 
L 140.166243 269.036551 
L 142.587016 268.517923 
L 145.007789 268.330546 
L 154.690879 268.202994 
L 157.111652 267.456707 
L 159.532424 268.202877 
L 161.953197 268.343759 
L 164.373969 267.61615 
L 166.794742 267.143769 
L 169.215515 265.882994 
L 171.636287 266.182746 
L 174.05706 266.784087 
L 176.477832 266.941727 
L 178.898605 267.46103 
L 181.319378 267.50909 
L 183.74015 266.367995 
L 186.160923 267.508302 
L 188.581695 266.865257 
L 193.423241 265.274119 
L 195.844013 266.154855 
L 198.264786 264.656371 
L 200.685558 265.762893 
L 203.106331 265.039371 
L 205.527103 264.885183 
L 210.368649 263.318163 
L 212.789421 264.154696 
L 215.210194 263.356798 
L 217.630966 263.888693 
L 220.051739 263.961891 
L 222.472512 263.687725 
L 224.893284 262.088803 
L 227.314057 262.867038 
L 229.734829 262.589508 
L 234.576375 262.973475 
L 236.997147 261.802416 
L 239.41792 262.000961 
L 241.838692 260.521905 
L 244.259465 260.034378 
L 246.680238 259.872126 
L 249.10101 259.195796 
L 251.521783 260.464983 
L 253.942555 259.571834 
L 256.363328 259.902383 
L 258.7841 259.34925 
L 261.204873 261.550043 
L 263.625646 259.804738 
L 266.046418 260.306003 
L 268.467191 258.898953 
L 270.887963 259.731775 
L 273.308736 257.907199 
L 275.729509 257.594353 
L 278.150281 258.796753 
L 280.571054 257.80577 
L 282.991826 258.642986 
L 285.412599 258.399222 
L 287.833372 258.466461 
L 290.254144 258.05456 
L 292.674917 256.158926 
L 295.095689 257.371193 
L 297.516462 256.694593 
L 299.937235 256.53776 
L 302.358007 256.139608 
L 304.77878 256.162095 
L 307.199552 256.878447 
L 309.620325 256.612659 
L 312.041097 255.671633 
L 314.46187 257.211159 
L 316.882643 257.796801 
L 319.303415 257.692776 
L 321.724188 257.331285 
L 324.14496 257.612788 
L 326.565733 257.601561 
L 328.986506 257.162705 
L 331.407278 257.318101 
L 333.828051 255.524956 
L 338.669596 255.712684 
L 341.090369 255.055587 
L 343.511141 254.936217 
L 345.931914 255.291516 
L 348.352686 254.834891 
L 350.773459 253.475944 
L 353.194232 254.795643 
L 355.615004 253.638067 
L 358.035777 252.619001 
L 360.456549 253.233723 
L 362.877322 252.998583 
L 365.298094 253.655095 
L 367.718867 252.047161 
L 370.13964 252.309043 
L 372.560412 251.587047 
L 374.981185 252.688651 
L 377.401957 251.617335 
L 379.82273 252.017661 
L 382.243503 251.390847 
L 384.664275 250.215277 
L 387.085048 250.983396 
L 389.50582 252.645814 
L 391.926593 252.173891 
L 394.347366 252.814836 
L 396.768138 251.655123 
L 399.188911 251.273295 
L 401.609683 251.970963 
L 404.030456 251.36714 
L 406.451229 251.82592 
L 408.872001 250.507632 
L 411.292774 250.567775 
L 413.713546 249.789988 
L 418.555092 249.138372 
L 420.975864 249.892744 
L 423.396637 249.169132 
L 425.817409 249.144873 
L 428.238182 249.971996 
L 430.658954 249.096427 
L 433.079727 248.688966 
L 435.5005 248.976037 
L 437.921272 248.678665 
L 440.342045 249.201796 
L 445.18359 247.711803 
L 447.604363 247.346421 
L 450.025135 249.217863 
L 452.445908 247.738577 
L 457.287453 247.770339 
L 459.708226 247.795708 
L 462.128998 247.206078 
L 464.549771 247.37802 
L 466.970543 248.037815 
L 469.391316 248.012843 
L 471.812089 247.70395 
L 474.232861 247.09611 
L 476.653634 246.952143 
L 479.074406 244.658879 
L 481.495179 245.984989 
L 483.915951 247.146095 
L 486.336724 246.565982 
L 488.757497 245.165185 
L 491.178269 244.859373 
L 493.599042 246.981839 
L 496.019814 246.949708 
L 498.440587 247.078899 
L 500.86136 245.621053 
L 503.282132 245.811192 
L 505.702905 246.364487 
L 508.123677 245.912696 
L 510.54445 244.363201 
L 512.965223 244.542135 
L 515.385995 243.542681 
L 517.806768 243.606281 
L 520.22754 242.928142 
L 522.648313 242.854518 
L 525.069086 243.433317 
L 527.489858 241.824347 
L 529.910631 241.874513 
L 532.331403 242.480815 
L 534.752176 241.276491 
L 537.172948 239.755266 
L 539.593721 240.413411 
L 542.014494 240.833956 
L 544.435266 239.93475 
L 546.856039 238.68082 
L 549.276811 239.901265 
L 551.697584 239.329995 
L 554.118357 239.530936 
L 556.539129 238.350978 
L 558.959902 238.527853 
L 561.380674 239.603363 
L 563.801447 238.371188 
L 566.22222 239.099404 
L 568.642992 239.596072 
L 571.063765 239.120139 
L 573.484537 239.752277 
L 575.90531 238.252654 
L 578.326083 238.016913 
L 580.746855 239.03614 
L 583.167628 237.841839 
L 585.5884 238.079371 
L 588.009173 236.440336 
L 590.429946 236.115716 
L 592.850718 237.464648 
L 595.271491 237.716845 
L 597.692263 238.502101 
L 600.113036 237.029112 
L 602.533808 238.050481 
L 604.954581 237.022067 
L 607.375354 236.153146 
L 609.796126 234.070653 
L 614.637671 235.638595 
L 617.058444 235.746928 
L 619.479217 236.213986 
L 621.899989 236.231417 
L 624.320762 236.844205 
L 626.741534 235.135867 
L 629.162307 234.893881 
L 631.58308 236.192934 
L 634.003852 235.770721 
L 636.424625 234.639192 
L 638.845397 234.097711 
L 641.26617 234.007448 
L 643.686943 231.848542 
L 646.107715 234.278016 
L 648.528488 232.669523 
L 650.94926 231.517379 
L 655.790805 233.125901 
L 658.211578 233.278568 
L 660.632351 230.90234 
L 663.053123 231.036247 
L 665.473896 230.975764 
L 670.315441 229.256217 
L 672.736214 227.792381 
L 675.156986 225.648111 
L 677.577759 226.807154 
L 679.998531 227.198203 
L 682.419304 228.61284 
L 682.419304 228.61284 
" clip-path="url(#p236a965775)" style="fill: none; stroke: #1f77b4; stroke-width: 2.126945"/>
   </g>
   <g id="line2d_16">
    <path d="M 74.805384 274.626317 
L 77.226156 274.358355 
L 79.646929 274.60881 
L 82.067701 274.428184 
L 89.330019 273.210618 
L 94.171564 272.658256 
L 99.013109 272.508974 
L 101.433882 272.087655 
L 103.854655 271.946033 
L 111.116972 270.897325 
L 113.537745 270.459483 
L 115.958518 270.394369 
L 123.220835 269.780217 
L 125.641608 269.957601 
L 128.062381 269.797559 
L 130.483153 269.450199 
L 132.903926 268.935941 
L 135.324698 268.988606 
L 140.166243 268.614907 
L 142.587016 268.070709 
L 149.849334 266.909993 
L 159.532424 266.980294 
L 161.953197 266.518237 
L 164.373969 266.182616 
L 166.794742 266.078471 
L 169.215515 265.754102 
L 171.636287 265.636695 
L 174.05706 265.762047 
L 176.477832 265.446023 
L 178.898605 265.455013 
L 181.319378 265.197573 
L 188.581695 264.948982 
L 191.002468 264.679499 
L 195.844013 264.490681 
L 198.264786 264.06958 
L 200.685558 263.892241 
L 207.947876 262.964746 
L 212.789421 262.303313 
L 215.210194 262.21637 
L 222.472512 261.064455 
L 224.893284 260.615668 
L 227.314057 260.576785 
L 229.734829 260.270901 
L 234.576375 260.143214 
L 239.41792 259.525677 
L 244.259465 258.910039 
L 246.680238 258.547407 
L 249.10101 258.305319 
L 251.521783 258.252952 
L 253.942555 258.34467 
L 256.363328 257.651179 
L 258.7841 257.560393 
L 266.046418 256.974831 
L 270.887963 256.551865 
L 273.308736 256.122604 
L 275.729509 255.87345 
L 278.150281 255.989725 
L 280.571054 255.424589 
L 282.991826 255.363358 
L 295.095689 254.069146 
L 297.516462 253.496519 
L 302.358007 253.281975 
L 304.77878 253.016908 
L 307.199552 253.037103 
L 312.041097 252.304781 
L 314.46187 252.090676 
L 324.14496 251.785217 
L 326.565733 252.036918 
L 328.986506 251.824646 
L 331.407278 251.966486 
L 333.828051 251.689982 
L 336.248823 251.700984 
L 338.669596 251.331816 
L 341.090369 251.235253 
L 345.931914 250.658681 
L 348.352686 250.090431 
L 355.615004 249.343817 
L 358.035777 248.960996 
L 360.456549 249.294009 
L 365.298094 248.837355 
L 367.718867 248.779743 
L 370.13964 248.43285 
L 372.560412 248.353183 
L 374.981185 248.068739 
L 377.401957 247.459701 
L 384.664275 247.608715 
L 387.085048 247.183751 
L 394.347366 247.10133 
L 396.768138 246.70102 
L 399.188911 246.592162 
L 411.292774 244.643254 
L 413.713546 244.700886 
L 423.396637 244.029899 
L 425.817409 243.590981 
L 428.238182 243.315537 
L 433.079727 242.54953 
L 435.5005 242.366502 
L 437.921272 242.348337 
L 440.342045 242.547576 
L 445.18359 242.250359 
L 450.025135 242.499545 
L 457.287453 241.834795 
L 459.708226 241.746577 
L 462.128998 241.225092 
L 469.391316 240.721542 
L 471.812089 240.287201 
L 474.232861 240.252608 
L 476.653634 240.019419 
L 479.074406 239.944559 
L 481.495179 240.113819 
L 488.757497 239.675001 
L 493.599042 239.216102 
L 496.019814 239.352507 
L 498.440587 239.298539 
L 500.86136 238.75283 
L 503.282132 238.344567 
L 505.702905 238.201998 
L 508.123677 237.892465 
L 510.54445 237.932839 
L 515.385995 237.234917 
L 517.806768 237.316468 
L 522.648313 236.772642 
L 525.069086 236.281315 
L 527.489858 235.651639 
L 532.331403 235.597233 
L 534.752176 235.20057 
L 539.593721 234.876057 
L 542.014494 235.209709 
L 546.856039 234.301855 
L 551.697584 233.851625 
L 554.118357 233.805545 
L 556.539129 233.894217 
L 558.959902 233.603256 
L 563.801447 232.732471 
L 566.22222 232.566656 
L 571.063765 231.863318 
L 575.90531 231.493681 
L 578.326083 231.455985 
L 580.746855 231.116663 
L 583.167628 231.057462 
L 585.5884 230.776738 
L 588.009173 230.621792 
L 590.429946 230.934652 
L 592.850718 231.009284 
L 595.271491 230.879851 
L 600.113036 230.389857 
L 602.533808 230.41505 
L 604.954581 230.012622 
L 607.375354 229.842483 
L 609.796126 229.384303 
L 612.216899 229.399615 
L 617.058444 228.901915 
L 619.479217 228.929672 
L 621.899989 228.524582 
L 629.162307 227.92829 
L 631.58308 227.605955 
L 634.003852 227.459435 
L 636.424625 226.972641 
L 638.845397 226.303988 
L 646.107715 226.248783 
L 648.528488 225.842359 
L 650.94926 225.655995 
L 653.370033 225.878556 
L 655.790805 225.581694 
L 660.632351 224.692802 
L 663.053123 224.568072 
L 665.473896 224.240672 
L 667.894668 223.783564 
L 672.736214 223.314246 
L 675.156986 222.732865 
L 679.998531 222.580201 
L 682.419304 222.617152 
L 682.419304 222.617152 
" clip-path="url(#p236a965775)" style="fill: none; stroke-dasharray: 6.558079,2.835926; stroke-dashoffset: 0; stroke: #ff7f0e; stroke-width: 1.772454"/>
   </g>
   <g id="LineCollection_1">
    <path d="M 44.424688 274.756299 
L 712.8 274.756299 
" clip-path="url(#p236a965775)" style="fill: none; stroke-dasharray: 0.886227,1.462274; stroke-dashoffset: 0; stroke: #888888; stroke-width: 0.886227"/>
   </g>
  </g>
  <g id="text_11">
   <!-- Monte Carlo Simulation — Portfolio Value Paths -->
   <g transform="translate(190.983906 17.837813) scale(0.14 -0.14)">
    <defs>
     <path id="DejaVuSans-Bold-4d" d="M 588 4666 
L 2119 4666 
L 3181 2169 
L 4250 4666 
L 5778 4666 
L 5778 0 
L 4641 0 
L 4641 3413 
L 3566 897 
L 2803 897 
L 1728 3413 
L 1728 0 
L 588 0 
L 588 4666 
z
" transform="scale(0.015625)"/>
     <path id="DejaVuSans-Bold-6f" d="M 2203 2784 
Q 1831 2784 1636 2517 
Q 1441 2250 1441 1747 
Q 1441 1244 1636 976 
Q 1831 709 2203 709 
Q 2569 709 2762 976 
Q 2956 1244 2956 1747 
Q 2956 2250 2762 2517 
Q 2569 2784 2203 2784 
z
M 2203 3584 
Q 3106 3584 3614 3096 
Q 4122 2609 4122 1747 
Q 4122 884 3614 396 
Q 3106 -91 2203 -91 
Q 1297 -91 786 396 
Q 275 884 275 1747 
Q 275 2609 786 3096 
Q 1297 3584 2203 3584 
z
" transform="scale(0.015625)"/>
     <path id="DejaVuSans-Bold-6e" d="M 4056 2131 
L 4056 0 
L 2931 0 
L 2931 347 
L 2931 1631 
Q 2931 2084 2911 2256 
Q 2891 2428 2841 2509 
Q 2775 2619 2662 2680 
Q 2550 2741 2406 2741 
Q 2056 2741 1856 2470 
Q 1656 2200 1656 1722 
L 1656 0 
L 538 0 
L 538 3500 
L 1656 3500 
L 1656 2988 
Q 1909 3294 2193 3439 
Q 2478 3584 2822 3584 
Q 3428 3584 3742 3212 
Q 4056 2841 4056 2131 
z
" transform="scale(0.015625)"/>
     <path id="DejaVuSans-Bold-74" d="M 1759 4494 
L 1759 3500 
L 2913 3500 
L 2913 2700 
L 1759 2700 
L 1759 1216 
Q 1759 972 1856 886 
Q 1953 800 2241 800 
L 2816 800 
L 2816 0 
L 1856 0 
Q 1194 0 917 276 
Q 641 553 641 1216 
L 641 2700 
L 84 2700 
L 84 3500 
L 641 3500 
L 641 4494 
L 1759 4494 
z
" transform="scale(0.015625)"/>
     <path id="DejaVuSans-Bold-65" d="M 4031 1759 
L 4031 1441 
L 1416 1441 
Q 1456 1047 1700 850 
Q 1944 653 2381 653 
Q 2734 653 3104 758 
Q 3475 863 3866 1075 
L 3866 213 
Q 3469 63 3072 -14 
Q 2675 -91 2278 -91 
Q 1328 -91 801 392 
Q 275 875 275 1747 
Q 275 2603 792 3093 
Q 1309 3584 2216 3584 
Q 3041 3584 3536 3087 
Q 4031 2591 4031 1759 
z
M 2881 2131 
Q 2881 2450 2695 2645 
Q 2509 2841 2209 2841 
Q 1884 2841 1681 2658 
Q 1478 2475 1428 2131 
L 2881 2131 
z
" transform="scale(0.015625)"/>
     <path id="DejaVuSans-Bold-20" transform="scale(0.015625)"/>
     <path id="DejaVuSans-Bold-43" d="M 4288 256 
Q 3956 84 3597 -3 
Q 3238 -91 2847 -91 
Q 1681 -91 1000 561 
Q 319 1213 319 2328 
Q 319 3447 1000 4098 
Q 1681 4750 2847 4750 
Q 3238 4750 3597 4662 
Q 3956 4575 4288 4403 
L 4288 3438 
Q 3953 3666 3628 3772 
Q 3303 3878 2944 3878 
Q 2300 3878 1931 3465 
Q 1563 3053 1563 2328 
Q 1563 1606 1931 1193 
Q 2300 781 2944 781 
Q 3303 781 3628 887 
Q 3953 994 4288 1222 
L 4288 256 
z
" transform="scale(0.015625)"/>
     <path id="DejaVuSans-Bold-61" d="M 2106 1575 
Q 1756 1575 1579 1456 
Q 1403 1338 1403 1106 
Q 1403 894 1545 773 
Q 1688 653 1941 653 
Q 2256 653 2472 879 
Q 2688 1106 2688 1447 
L 2688 1575 
L 2106 1575 
z
M 3816 1997 
L 3816 0 
L 2688 0 
L 2688 519 
Q 2463 200 2181 54 
Q 1900 -91 1497 -91 
Q 953 -91 614 226 
Q 275 544 275 1050 
Q 275 1666 698 1953 
Q 1122 2241 2028 2241 
L 2688 2241 
L 2688 2328 
Q 2688 2594 2478 2717 
Q 2269 2841 1825 2841 
Q 1466 2841 1156 2769 
Q 847 2697 581 2553 
L 581 3406 
Q 941 3494 1303 3539 
Q 1666 3584 2028 3584 
Q 2975 3584 3395 3211 
Q 3816 2838 3816 1997 
z
" transform="scale(0.015625)"/>
     <path id="DejaVuSans-Bold-72" d="M 3138 2547 
Q 2991 2616 2845 2648 
Q 2700 2681 2553 2681 
Q 2122 2681 1889 2404 
Q 1656 2128 1656 1613 
L 1656 0 
L 538 0 
L 538 3500 
L 1656 3500 
L 1656 2925 
Q 1872 3269 2151 3426 
Q 2431 3584 2822 3584 
Q 2878 3584 2943 3579 
Q 3009 3575 3134 3559 
L 3138 2547 
z
" transform="scale(0.015625)"/>
     <path id="DejaVuSans-Bold-6c" d="M 538 4863 
L 1656 4863 
L 1656 0 
L 538 0 
L 538 4863 
z
" transform="scale(0.015625)"/>
     <path id="DejaVuSans-Bold-53" d="M 3834 4519 
L 3834 3531 
Q 3450 3703 3084 3790 
Q 2719 3878 2394 3878 
Q 1963 3878 1756 3759 
Q 1550 3641 1550 3391 
Q 1550 3203 1689 3098 
Q 1828 2994 2194 2919 
L 2706 2816 
Q 3484 2659 3812 2340 
Q 4141 2022 4141 1434 
Q 4141 663 3683 286 
Q 3225 -91 2284 -91 
Q 1841 -91 1394 -6 
Q 947 78 500 244 
L 500 1259 
Q 947 1022 1364 901 
Q 1781 781 2169 781 
Q 2563 781 2772 912 
Q 2981 1044 2981 1288 
Q 2981 1506 2839 1625 
Q 2697 1744 2272 1838 
L 1806 1941 
Q 1106 2091 782 2419 
Q 459 2747 459 3303 
Q 459 4000 909 4375 
Q 1359 4750 2203 4750 
Q 2588 4750 2994 4692 
Q 3400 4634 3834 4519 
z
" transform="scale(0.015625)"/>
     <path id="DejaVuSans-Bold-69" d="M 538 3500 
L 1656 3500 
L 1656 0 
L 538 0 
L 538 3500 
z
M 538 4863 
L 1656 4863 
L 1656 3950 
L 538 3950 
L 538 4863 
z
" transform="scale(0.015625)"/>
     <path id="DejaVuSans-Bold-6d" d="M 3781 2919 
Q 3994 3244 4286 3414 
Q 4578 3584 4928 3584 
Q 5531 3584 5847 3212 
Q 6163 2841 6163 2131 
L 6163 0 
L 5038 0 
L 5038 1825 
Q 5041 1866 5042 1909 
Q 5044 1953 5044 2034 
Q 5044 2406 4934 2573 
Q 4825 2741 4581 2741 
Q 4263 2741 4089 2478 
Q 3916 2216 3909 1719 
L 3909 0 
L 2784 0 
L 2784 1825 
Q 2784 2406 2684 2573 
Q 2584 2741 2328 2741 
Q 2006 2741 1831 2477 
Q 1656 2213 1656 1722 
L 1656 0 
L 531 0 
L 531 3500 
L 1656 3500 
L 1656 2988 
Q 1863 3284 2130 3434 
Q 2397 3584 2719 3584 
Q 3081 3584 3359 3409 
Q 3638 3234 3781 2919 
z
" transform="scale(0.015625)"/>
     <path id="DejaVuSans-Bold-75" d="M 500 1363 
L 500 3500 
L 1625 3500 
L 1625 3150 
Q 1625 2866 1622 2436 
Q 1619 2006 1619 1863 
Q 1619 1441 1641 1255 
Q 1663 1069 1716 984 
Q 1784 875 1895 815 
Q 2006 756 2150 756 
Q 2500 756 2700 1025 
Q 2900 1294 2900 1772 
L 2900 3500 
L 4019 3500 
L 4019 0 
L 2900 0 
L 2900 506 
Q 2647 200 2364 54 
Q 2081 -91 1741 -91 
Q 1134 -91 817 281 
Q 500 653 500 1363 
z
" transform="scale(0.015625)"/>
     <path id="DejaVuSans-Bold-2014" d="M 344 2156 
L 6056 2156 
L 6056 1350 
L 344 1350 
L 344 2156 
z
" transform="scale(0.015625)"/>
     <path id="DejaVuSans-Bold-50" d="M 588 4666 
L 2584 4666 
Q 3475 4666 3951 4270 
Q 4428 3875 4428 3144 
Q 4428 2409 3951 2014 
Q 3475 1619 2584 1619 
L 1791 1619 
L 1791 0 
L 588 0 
L 588 4666 
z
M 1791 3794 
L 1791 2491 
L 2456 2491 
Q 2806 2491 2997 2661 
Q 3188 2831 3188 3144 
Q 3188 3456 2997 3625 
Q 2806 3794 2456 3794 
L 1791 3794 
z
" transform="scale(0.015625)"/>
     <path id="DejaVuSans-Bold-66" d="M 2841 4863 
L 2841 4128 
L 2222 4128 
Q 1984 4128 1890 4042 
Q 1797 3956 1797 3744 
L 1797 3500 
L 2753 3500 
L 2753 2700 
L 1797 2700 
L 1797 0 
L 678 0 
L 678 2700 
L 122 2700 
L 122 3500 
L 678 3500 
L 678 3744 
Q 678 4316 997 4589 
Q 1316 4863 1984 4863 
L 2841 4863 
z
" transform="scale(0.015625)"/>
     <path id="DejaVuSans-Bold-56" d="M 31 4666 
L 1241 4666 
L 2478 1222 
L 3713 4666 
L 4922 4666 
L 3194 0 
L 1759 0 
L 31 4666 
z
" transform="scale(0.015625)"/>
     <path id="DejaVuSans-Bold-68" d="M 4056 2131 
L 4056 0 
L 2931 0 
L 2931 347 
L 2931 1625 
Q 2931 2084 2911 2256 
Q 2891 2428 2841 2509 
Q 2775 2619 2662 2680 
Q 2550 2741 2406 2741 
Q 2056 2741 1856 2470 
Q 1656 2200 1656 1722 
L 1656 0 
L 538 0 
L 538 4863 
L 1656 4863 
L 1656 2988 
Q 1909 3294 2193 3439 
Q 2478 3584 2822 3584 
Q 3428 3584 3742 3212 
Q 4056 2841 4056 2131 
z
" transform="scale(0.015625)"/>
     <path id="DejaVuSans-Bold-73" d="M 3272 3391 
L 3272 2541 
Q 2913 2691 2578 2766 
Q 2244 2841 1947 2841 
Q 1628 2841 1473 2761 
Q 1319 2681 1319 2516 
Q 1319 2381 1436 2309 
Q 1553 2238 1856 2203 
L 2053 2175 
Q 2913 2066 3209 1816 
Q 3506 1566 3506 1031 
Q 3506 472 3093 190 
Q 2681 -91 1863 -91 
Q 1516 -91 1145 -36 
Q 775 19 384 128 
L 384 978 
Q 719 816 1070 734 
Q 1422 653 1784 653 
Q 2113 653 2278 743 
Q 2444 834 2444 1013 
Q 2444 1163 2330 1236 
Q 2216 1309 1875 1350 
L 1678 1375 
Q 931 1469 631 1722 
Q 331 1975 331 2491 
Q 331 3047 712 3315 
Q 1094 3584 1881 3584 
Q 2191 3584 2531 3537 
Q 2872 3491 3272 3391 
z
" transform="scale(0.015625)"/>
    </defs>
    <use xlink:href="#DejaVuSans-Bold-4d"/>
    <use xlink:href="#DejaVuSans-Bold-6f" transform="translate(99.511719 0)"/>
    <use xlink:href="#DejaVuSans-Bold-6e" transform="translate(168.212891 0)"/>
    <use xlink:href="#DejaVuSans-Bold-74" transform="translate(239.404297 0)"/>
    <use xlink:href="#DejaVuSans-Bold-65" transform="translate(287.207031 0)"/>
    <use xlink:href="#DejaVuSans-Bold-20" transform="translate(355.029297 0)"/>
    <use xlink:href="#DejaVuSans-Bold-43" transform="translate(389.84375 0)"/>
    <use xlink:href="#DejaVuSans-Bold-61" transform="translate(463.232422 0)"/>
    <use xlink:href="#DejaVuSans-Bold-72" transform="translate(530.712891 0)"/>
    <use xlink:href="#DejaVuSans-Bold-6c" transform="translate(580.029297 0)"/>
    <use xlink:href="#DejaVuSans-Bold-6f" transform="translate(614.306641 0)"/>
    <use xlink:href="#DejaVuSans-Bold-20" transform="translate(683.007812 0)"/>
    <use xlink:href="#DejaVuSans-Bold-53" transform="translate(717.822266 0)"/>
    <use xlink:href="#DejaVuSans-Bold-69" transform="translate(789.84375 0)"/>
    <use xlink:href="#DejaVuSans-Bold-6d" transform="translate(824.121094 0)"/>
    <use xlink:href="#DejaVuSans-Bold-75" transform="translate(928.320312 0)"/>
    <use xlink:href="#DejaVuSans-Bold-6c" transform="translate(999.511719 0)"/>
    <use xlink:href="#DejaVuSans-Bold-61" transform="translate(1033.789062 0)"/>
    <use xlink:href="#DejaVuSans-Bold-74" transform="translate(1101.269531 0)"/>
    <use xlink:href="#DejaVuSans-Bold-69" transform="translate(1149.072266 0)"/>
    <use xlink:href="#DejaVuSans-Bold-6f" transform="translate(1183.349609 0)"/>
    <use xlink:href="#DejaVuSans-Bold-6e" transform="translate(1252.050781 0)"/>
    <use xlink:href="#DejaVuSans-Bold-20" transform="translate(1323.242188 0)"/>
    <use xlink:href="#DejaVuSans-Bold-2014" transform="translate(1358.056641 0)"/>
    <use xlink:href="#DejaVuSans-Bold-20" transform="translate(1458.056641 0)"/>
    <use xlink:href="#DejaVuSans-Bold-50" transform="translate(1492.871094 0)"/>
    <use xlink:href="#DejaVuSans-Bold-6f" transform="translate(1566.162109 0)"/>
    <use xlink:href="#DejaVuSans-Bold-72" transform="translate(1634.863281 0)"/>
    <use xlink:href="#DejaVuSans-Bold-74" transform="translate(1684.179688 0)"/>
    <use xlink:href="#DejaVuSans-Bold-66" transform="translate(1731.982422 0)"/>
    <use xlink:href="#DejaVuSans-Bold-6f" transform="translate(1775.488281 0)"/>
    <use xlink:href="#DejaVuSans-Bold-6c" transform="translate(1844.189453 0)"/>
    <use xlink:href="#DejaVuSans-Bold-69" transform="translate(1878.466797 0)"/>
    <use xlink:href="#DejaVuSans-Bold-6f" transform="translate(1912.744141 0)"/>
    <use xlink:href="#DejaVuSans-Bold-20" transform="translate(1981.445312 0)"/>
    <use xlink:href="#DejaVuSans-Bold-56" transform="translate(2016.259766 0)"/>
    <use xlink:href="#DejaVuSans-Bold-61" transform="translate(2088.152344 0)"/>
    <use xlink:href="#DejaVuSans-Bold-6c" transform="translate(2155.632812 0)"/>
    <use xlink:href="#DejaVuSans-Bold-75" transform="translate(2189.910156 0)"/>
    <use xlink:href="#DejaVuSans-Bold-65" transform="translate(2261.101562 0)"/>
    <use xlink:href="#DejaVuSans-Bold-20" transform="translate(2328.923828 0)"/>
    <use xlink:href="#DejaVuSans-Bold-50" transform="translate(2363.738281 0)"/>
    <use xlink:href="#DejaVuSans-Bold-61" transform="translate(2434.404297 0)"/>
    <use xlink:href="#DejaVuSans-Bold-74" transform="translate(2501.884766 0)"/>
    <use xlink:href="#DejaVuSans-Bold-68" transform="translate(2549.6875 0)"/>
    <use xlink:href="#DejaVuSans-Bold-73" transform="translate(2620.878906 0)"/>
   </g>
  </g>
  <g id="text_12">
   <!-- Trading Day -->
   <g transform="translate(345.827187 422.512344) scale(0.11 -0.11)">
    <defs>
     <path id="DejaVuSans-54" d="M -19 4666 
L 3928 4666 
L 3928 4134 
L 2272 4134 
L 2272 0 
L 1638 0 
L 1638 4134 
L -19 4134 
L -19 4666 
z
" transform="scale(0.015625)"/>
     <path id="DejaVuSans-72" d="M 2631 2963 
Q 2534 3019 2420 3045 
Q 2306 3072 2169 3072 
Q 1681 3072 1420 2755 
Q 1159 2438 1159 1844 
L 1159 0 
L 581 0 
L 581 3500 
L 1159 3500 
L 1159 2956 
Q 1341 3275 1631 3429 
Q 1922 3584 2338 3584 
Q 2397 3584 2469 3576 
Q 2541 3569 2628 3553 
L 2631 2963 
z
" transform="scale(0.015625)"/>
     <path id="DejaVuSans-61" d="M 2194 1759 
Q 1497 1759 1228 1600 
Q 959 1441 959 1056 
Q 959 750 1161 570 
Q 1363 391 1709 391 
Q 2188 391 2477 730 
Q 2766 1069 2766 1631 
L 2766 1759 
L 2194 1759 
z
M 3341 1997 
L 3341 0 
L 2766 0 
L 2766 531 
Q 2569 213 2275 61 
Q 1981 -91 1556 -91 
Q 1019 -91 701 211 
Q 384 513 384 1019 
Q 384 1609 779 1909 
Q 1175 2209 1959 2209 
L 2766 2209 
L 2766 2266 
Q 2766 2663 2505 2880 
Q 2244 3097 1772 3097 
Q 1472 3097 1187 3025 
Q 903 2953 641 2809 
L 641 3341 
Q 956 3463 1253 3523 
Q 1550 3584 1831 3584 
Q 2591 3584 2966 3190 
Q 3341 2797 3341 1997 
z
" transform="scale(0.015625)"/>
     <path id="DejaVuSans-64" d="M 2906 2969 
L 2906 4863 
L 3481 4863 
L 3481 0 
L 2906 0 
L 2906 525 
Q 2725 213 2448 61 
Q 2172 -91 1784 -91 
Q 1150 -91 751 415 
Q 353 922 353 1747 
Q 353 2572 751 3078 
Q 1150 3584 1784 3584 
Q 2172 3584 2448 3432 
Q 2725 3281 2906 2969 
z
M 947 1747 
Q 947 1113 1208 752 
Q 1469 391 1925 391 
Q 2381 391 2643 752 
Q 2906 1113 2906 1747 
Q 2906 2381 2643 2742 
Q 2381 3103 1925 3103 
Q 1469 3103 1208 2742 
Q 947 2381 947 1747 
z
" transform="scale(0.015625)"/>
     <path id="DejaVuSans-69" d="M 603 3500 
L 1178 3500 
L 1178 0 
L 603 0 
L 603 3500 
z
M 603 4863 
L 1178 4863 
L 1178 4134 
L 603 4134 
L 603 4863 
z
" transform="scale(0.015625)"/>
     <path id="DejaVuSans-6e" d="M 3513 2113 
L 3513 0 
L 2938 0 
L 2938 2094 
Q 2938 2591 2744 2837 
Q 2550 3084 2163 3084 
Q 1697 3084 1428 2787 
Q 1159 2491 1159 1978 
L 1159 0 
L 581 0 
L 581 3500 
L 1159 3500 
L 1159 2956 
Q 1366 3272 1645 3428 
Q 1925 3584 2291 3584 
Q 2894 3584 3203 3211 
Q 3513 2838 3513 2113 
z
" transform="scale(0.015625)"/>
     <path id="DejaVuSans-67" d="M 2906 1791 
Q 2906 2416 2648 2759 
Q 2391 3103 1925 3103 
Q 1463 3103 1205 2759 
Q 947 2416 947 1791 
Q 947 1169 1205 825 
Q 1463 481 1925 481 
Q 2391 481 2648 825 
Q 2906 1169 2906 1791 
z
M 3481 434 
Q 3481 -459 3084 -895 
Q 2688 -1331 1869 -1331 
Q 1566 -1331 1297 -1286 
Q 1028 -1241 775 -1147 
L 775 -588 
Q 1028 -725 1275 -790 
Q 1522 -856 1778 -856 
Q 2344 -856 2625 -561 
Q 2906 -266 2906 331 
L 2906 616 
Q 2728 306 2450 153 
Q 2172 0 1784 0 
Q 1141 0 747 490 
Q 353 981 353 1791 
Q 353 2603 747 3093 
Q 1141 3584 1784 3584 
Q 2172 3584 2450 3431 
Q 2728 3278 2906 2969 
L 2906 3500 
L 3481 3500 
L 3481 434 
z
" transform="scale(0.015625)"/>
     <path id="DejaVuSans-20" transform="scale(0.015625)"/>
     <path id="DejaVuSans-44" d="M 1259 4147 
L 1259 519 
L 2022 519 
Q 2988 519 3436 956 
Q 3884 1394 3884 2338 
Q 3884 3275 3436 3711 
Q 2988 4147 2022 4147 
L 1259 4147 
z
M 628 4666 
L 1925 4666 
Q 3281 4666 3915 4102 
Q 4550 3538 4550 2338 
Q 4550 1131 3912 565 
Q 3275 0 1925 0 
L 628 0 
L 628 4666 
z
" transform="scale(0.015625)"/>
     <path id="DejaVuSans-79" d="M 2059 -325 
Q 1816 -950 1584 -1140 
Q 1353 -1331 966 -1331 
L 506 -1331 
L 506 -850 
L 844 -850 
Q 1081 -850 1212 -737 
Q 1344 -625 1503 -206 
L 1606 56 
L 191 3500 
L 800 3500 
L 1894 763 
L 2988 3500 
L 3597 3500 
L 2059 -325 
z
" transform="scale(0.015625)"/>
    </defs>
    <use xlink:href="#DejaVuSans-54"/>
    <use xlink:href="#DejaVuSans-72" transform="translate(46.333984 0)"/>
    <use xlink:href="#DejaVuSans-61" transform="translate(87.447266 0)"/>
    <use xlink:href="#DejaVuSans-64" transform="translate(148.726562 0)"/>
    <use xlink:href="#DejaVuSans-69" transform="translate(212.203125 0)"/>
    <use xlink:href="#DejaVuSans-6e" transform="translate(239.986328 0)"/>
    <use xlink:href="#DejaVuSans-67" transform="translate(303.365234 0)"/>
    <use xlink:href="#DejaVuSans-20" transform="translate(366.841797 0)"/>
    <use xlink:href="#DejaVuSans-44" transform="translate(398.628906 0)"/>
    <use xlink:href="#DejaVuSans-61" transform="translate(475.630859 0)"/>
    <use xlink:href="#DejaVuSans-79" transform="translate(536.910156 0)"/>
   </g>
  </g>
  <g id="text_13">
   <!-- Portfolio Value ($) -->
   <g transform="translate(15.558281 261.010156) rotate(-90) scale(0.11 -0.11)">
    <defs>
     <path id="DejaVuSans-50" d="M 1259 4147 
L 1259 2394 
L 2053 2394 
Q 2494 2394 2734 2622 
Q 2975 2850 2975 3272 
Q 2975 3691 2734 3919 
Q 2494 4147 2053 4147 
L 1259 4147 
z
M 628 4666 
L 2053 4666 
Q 2838 4666 3239 4311 
Q 3641 3956 3641 3272 
Q 3641 2581 3239 2228 
Q 2838 1875 2053 1875 
L 1259 1875 
L 1259 0 
L 628 0 
L 628 4666 
z
" transform="scale(0.015625)"/>
     <path id="DejaVuSans-6f" d="M 1959 3097 
Q 1497 3097 1228 2736 
Q 959 2375 959 1747 
Q 959 1119 1226 758 
Q 1494 397 1959 397 
Q 2419 397 2687 759 
Q 2956 1122 2956 1747 
Q 2956 2369 2687 2733 
Q 2419 3097 1959 3097 
z
M 1959 3584 
Q 2709 3584 3137 3096 
Q 3566 2609 3566 1747 
Q 3566 888 3137 398 
Q 2709 -91 1959 -91 
Q 1206 -91 779 398 
Q 353 888 353 1747 
Q 353 2609 779 3096 
Q 1206 3584 1959 3584 
z
" transform="scale(0.015625)"/>
     <path id="DejaVuSans-74" d="M 1172 4494 
L 1172 3500 
L 2356 3500 
L 2356 3053 
L 1172 3053 
L 1172 1153 
Q 1172 725 1289 603 
Q 1406 481 1766 481 
L 2356 481 
L 2356 0 
L 1766 0 
Q 1100 0 847 248 
Q 594 497 594 1153 
L 594 3053 
L 172 3053 
L 172 3500 
L 594 3500 
L 594 4494 
L 1172 4494 
z
" transform="scale(0.015625)"/>
     <path id="DejaVuSans-66" d="M 2375 4863 
L 2375 4384 
L 1825 4384 
Q 1516 4384 1395 4259 
Q 1275 4134 1275 3809 
L 1275 3500 
L 2222 3500 
L 2222 3053 
L 1275 3053 
L 1275 0 
L 697 0 
L 697 3053 
L 147 3053 
L 147 3500 
L 697 3500 
L 697 3744 
Q 697 4328 969 4595 
Q 1241 4863 1831 4863 
L 2375 4863 
z
" transform="scale(0.015625)"/>
     <path id="DejaVuSans-6c" d="M 603 4863 
L 1178 4863 
L 1178 0 
L 603 0 
L 603 4863 
z
" transform="scale(0.015625)"/>
     <path id="DejaVuSans-56" d="M 1831 0 
L 50 4666 
L 709 4666 
L 2188 738 
L 3669 4666 
L 4325 4666 
L 2547 0 
L 1831 0 
z
" transform="scale(0.015625)"/>
     <path id="DejaVuSans-75" d="M 544 1381 
L 544 3500 
L 1119 3500 
L 1119 1403 
Q 1119 906 1312 657 
Q 1506 409 1894 409 
Q 2359 409 2629 706 
Q 2900 1003 2900 1516 
L 2900 3500 
L 3475 3500 
L 3475 0 
L 2900 0 
L 2900 538 
Q 2691 219 2414 64 
Q 2138 -91 1772 -91 
Q 1169 -91 856 284 
Q 544 659 544 1381 
z
M 1991 3584 
L 1991 3584 
z
" transform="scale(0.015625)"/>
     <path id="DejaVuSans-65" d="M 3597 1894 
L 3597 1613 
L 953 1613 
Q 991 1019 1311 708 
Q 1631 397 2203 397 
Q 2534 397 2845 478 
Q 3156 559 3463 722 
L 3463 178 
Q 3153 47 2828 -22 
Q 2503 -91 2169 -91 
Q 1331 -91 842 396 
Q 353 884 353 1716 
Q 353 2575 817 3079 
Q 1281 3584 2069 3584 
Q 2775 3584 3186 3129 
Q 3597 2675 3597 1894 
z
M 3022 2063 
Q 3016 2534 2758 2815 
Q 2500 3097 2075 3097 
Q 1594 3097 1305 2825 
Q 1016 2553 972 2059 
L 3022 2063 
z
" transform="scale(0.015625)"/>
     <path id="DejaVuSans-28" d="M 1984 4856 
Q 1566 4138 1362 3434 
Q 1159 2731 1159 2009 
Q 1159 1288 1364 580 
Q 1569 -128 1984 -844 
L 1484 -844 
Q 1016 -109 783 600 
Q 550 1309 550 2009 
Q 550 2706 781 3412 
Q 1013 4119 1484 4856 
L 1984 4856 
z
" transform="scale(0.015625)"/>
     <path id="DejaVuSans-24" d="M 2163 -941 
L 1850 -941 
L 1847 0 
Q 1519 6 1191 76 
Q 863 147 531 288 
L 531 850 
Q 850 650 1176 548 
Q 1503 447 1850 444 
L 1850 1869 
Q 1159 1981 845 2250 
Q 531 2519 531 2988 
Q 531 3497 872 3790 
Q 1213 4084 1850 4128 
L 1850 4863 
L 2163 4863 
L 2163 4138 
Q 2453 4125 2725 4076 
Q 2997 4028 3256 3944 
L 3256 3397 
Q 2997 3528 2723 3600 
Q 2450 3672 2163 3684 
L 2163 2350 
Q 2872 2241 3206 1959 
Q 3541 1678 3541 1191 
Q 3541 663 3186 358 
Q 2831 53 2163 6 
L 2163 -941 
z
M 1850 2406 
L 1850 3688 
Q 1488 3647 1297 3481 
Q 1106 3316 1106 3041 
Q 1106 2772 1282 2622 
Q 1459 2472 1850 2406 
z
M 2163 1806 
L 2163 453 
Q 2559 506 2761 678 
Q 2963 850 2963 1131 
Q 2963 1406 2770 1568 
Q 2578 1731 2163 1806 
z
" transform="scale(0.015625)"/>
     <path id="DejaVuSans-29" d="M 513 4856 
L 1013 4856 
Q 1481 4119 1714 3412 
Q 1947 2706 1947 2009 
Q 1947 1309 1714 600 
Q 1481 -109 1013 -844 
L 513 -844 
Q 928 -128 1133 580 
Q 1338 1288 1338 2009 
Q 1338 2731 1133 3434 
Q 928 4138 513 4856 
z
" transform="scale(0.015625)"/>
    </defs>
    <use xlink:href="#DejaVuSans-50"/>
    <use xlink:href="#DejaVuSans-6f" transform="translate(56.677734 0)"/>
    <use xlink:href="#DejaVuSans-72" transform="translate(117.859375 0)"/>
    <use xlink:href="#DejaVuSans-74" transform="translate(158.972656 0)"/>
    <use xlink:href="#DejaVuSans-66" transform="translate(198.181641 0)"/>
    <use xlink:href="#DejaVuSans-6f" transform="translate(233.386719 0)"/>
    <use xlink:href="#DejaVuSans-6c" transform="translate(294.568359 0)"/>
    <use xlink:href="#DejaVuSans-69" transform="translate(322.351562 0)"/>
    <use xlink:href="#DejaVuSans-6f" transform="translate(350.134766 0)"/>
    <use xlink:href="#DejaVuSans-20" transform="translate(411.316406 0)"/>
    <use xlink:href="#DejaVuSans-56" transform="translate(443.103516 0)"/>
    <use xlink:href="#DejaVuSans-61" transform="translate(503.761719 0)"/>
    <use xlink:href="#DejaVuSans-6c" transform="translate(565.041016 0)"/>
    <use xlink:href="#DejaVuSans-75" transform="translate(592.824219 0)"/>
    <use xlink:href="#DejaVuSans-65" transform="translate(656.203125 0)"/>
    <use xlink:href="#DejaVuSans-20" transform="translate(717.726562 0)"/>
    <use xlink:href="#DejaVuSans-28" transform="translate(749.513672 0)"/>
    <use xlink:href="#DejaVuSans-24" transform="translate(788.527344 0)"/>
    <use xlink:href="#DejaVuSans-29" transform="translate(852.150391 0)"/>
   </g>
  </g>
 </g>
 <defs>
  <clipPath id="p236a965775">
   <rect x="44.424688" y="27.949375" width="668.375312" height="368.094375"/>
  </clipPath>
 </defs>
</svg>
