<?xml version="1.0" encoding="utf-8" standalone="no"?>
<!DOCTYPE svg PUBLIC "-//W3C//DTD SVG 1.1//EN"
  "http://www.w3.org/Graphics/SVG/1.1/DTD/svg11.dtd">
<svg xmlns:xlink="http://www.w3.org/1999/xlink" width="720pt" height="360pt" viewBox="0 0 720 360" xmlns="http://www.w3.org/2000/svg" version="1.1">
 <metadata>
  <rdf:RDF xmlns:dc="http://purl.org/dc/elements/1.1/" xmlns:cc="http://creativecommons.org/ns#" xmlns:rdf="http://www.w3.org/1999/02/22-rdf-syntax-ns#">
   <cc:Work>
    <dc:type rdf:resource="http://purl.org/dc/dcmitype/StillImage"/>
    <dc:date>2026-03-08T08:45:08.985271</dc:date>
    <dc:format>image/svg+xml</dc:format>
    <dc:creator>
     <cc:Agent>
      <dc:title>Matplotlib v3.10.6, https://matplotlib.org/</dc:title>
     </cc:Agent>
    </dc:creator>
   </cc:Work>
  </rdf:RDF>
 </metadata>
 <defs>
  <style type="text/css">*{stroke-linejoin: round; stroke-linecap: butt}</style>
 </defs>
 <g id="figure_1">
  <g id="patch_1">
   <path d="M 0 360 
L 720 360 
L 720 0 
L 0 0 
z
" style="fill: #ffffff"/>
  </g>
  <g id="patch_2">
   <path d="M 0 360 
L 720 360 
L 720 0 
L 0 0 
z
" style="fill: #ffffff; stroke: #ffffff; stroke-linejoin: miter"/>
  </g>
  <g id="axes_1">
   <g id="matplotlib.axis_1">
    <g id="xtick_1">
     <g id="line2d_1">
      <path d="M 174.767939 324.04375 
L 174.767939 27.949375 
" clip-path="url(#p35969679ac)" style="fill: none; stroke: #e0e0e0; stroke-width: 0.4; stroke-linecap: round"/>
     </g>
     <g id="text_1">
      <!-- 90 -->
      <g style="fill: #4d4d4d" transform="translate(169.041689 333.082344) scale(0.09 -0.09)">
       <defs>
        <path id="DejaVuSans-39" d="M 703 97 
L 703 672 
Q 941 559 1184 500 
Q 1428 441 1663 441 
Q 2288 441 2617 861 
Q 2947 1281 2994 2138 
Q 2813 1869 2534 1725 
Q 2256 1581 1919 1581 
Q 1219 1581 811 2004 
Q 403 2428 403 3163 
Q 403 3881 828 4315 
Q 1253 4750 1959 4750 
Q 2769 4750 3195 4129 
Q 3622 3509 3622 2328 
Q 3622 1225 3098 567 
Q 2575 -91 1691 -91 
Q 1453 -91 1209 -44 
Q 966 3 703 97 
z
M 1959 2075 
Q 2384 2075 2632 2365 
Q 2881 2656 2881 3163 
Q 2881 3666 2632 3958 
Q 2384 4250 1959 4250 
Q 1534 4250 1286 3958 
Q 1038 3666 1038 3163 
Q 1038 2656 1286 2365 
Q 1534 2075 1959 2075 
z
" transform="scale(0.015625)"/>
        <path id="DejaVuSans-30" d="M 2034 4250 
Q 1547 4250 1301 3770 
Q 1056 3291 1056 2328 
Q 1056 1369 1301 889 
Q 1547 409 2034 409 
Q 2525 409 2770 889 
Q 3016 1369 3016 2328 
Q 3016 3291 2770 3770 
Q 2525 4250 2034 4250 
z
M 2034 4750 
Q 2819 4750 3233 4129 
Q 3647 3509 3647 2328 
Q 3647 1150 3233 529 
Q 2819 -91 2034 -91 
Q 1250 -91 836 529 
Q 422 1150 422 2328 
Q 422 3509 836 4129 
Q 1250 4750 2034 4750 
z
" transform="scale(0.015625)"/>
       </defs>
       <use xlink:href="#DejaVuSans-39"/>
       <use xlink:href="#DejaVuSans-30" transform="translate(63.623047 0)"/>
      </g>
     </g>
    </g>
    <g id="xtick_2">
     <g id="line2d_2">
      <path d="M 360.253238 324.04375 
L 360.253238 27.949375 
" clip-path="url(#p35969679ac)" style="fill: none; stroke: #e0e0e0; stroke-width: 0.4; stroke-linecap: round"/>
     </g>
     <g id="text_2">
      <!-- 110 -->
      <g style="fill: #4d4d4d" transform="translate(351.663863 333.082344) scale(0.09 -0.09)">
       <defs>
        <path id="DejaVuSans-31" d="M 794 531 
L 1825 531 
L 1825 4091 
L 703 3866 
L 703 4441 
L 1819 4666 
L 2450 4666 
L 2450 531 
L 3481 531 
L 3481 0 
L 794 0 
L 794 531 
z
" transform="scale(0.015625)"/>
       </defs>
       <use xlink:href="#DejaVuSans-31"/>
       <use xlink:href="#DejaVuSans-31" transform="translate(63.623047 0)"/>
       <use xlink:href="#DejaVuSans-30" transform="translate(127.246094 0)"/>
      </g>
     </g>
    </g>
    <g id="xtick_3">
     <g id="line2d_3">
      <path d="M 545.738538 324.04375 
L 545.738538 27.949375 
" clip-path="url(#p35969679ac)" style="fill: none; stroke: #e0e0e0; stroke-width: 0.4; stroke-linecap: round"/>
     </g>
     <g id="text_3">
      <!-- 130 -->
      <g style="fill: #4d4d4d" transform="translate(537.149163 333.082344) scale(0.09 -0.09)">
       <defs>
        <path id="DejaVuSans-33" d="M 2597 2516 
Q 3050 2419 3304 2112 
Q 3559 1806 3559 1356 
Q 3559 666 3084 287 
Q 2609 -91 1734 -91 
Q 1441 -91 1130 -33 
Q 819 25 488 141 
L 488 750 
Q 750 597 1062 519 
Q 1375 441 1716 441 
Q 2309 441 2620 675 
Q 2931 909 2931 1356 
Q 2931 1769 2642 2001 
Q 2353 2234 1838 2234 
L 1294 2234 
L 1294 2753 
L 1863 2753 
Q 2328 2753 2575 2939 
Q 2822 3125 2822 3475 
Q 2822 3834 2567 4026 
Q 2313 4219 1838 4219 
Q 1578 4219 1281 4162 
Q 984 4106 628 3988 
L 628 4550 
Q 988 4650 1302 4700 
Q 1616 4750 1894 4750 
Q 2613 4750 3031 4423 
Q 3450 4097 3450 3541 
Q 3450 3153 3228 2886 
Q 3006 2619 2597 2516 
z
" transform="scale(0.015625)"/>
       </defs>
       <use xlink:href="#DejaVuSans-31"/>
       <use xlink:href="#DejaVuSans-33" transform="translate(63.623047 0)"/>
       <use xlink:href="#DejaVuSans-30" transform="translate(127.246094 0)"/>
      </g>
     </g>
    </g>
    <g id="xtick_4"/>
    <g id="xtick_5"/>
    <g id="xtick_6"/>
    <g id="xtick_7"/>
   </g>
   <g id="matplotlib.axis_2">
    <g id="ytick_1">
     <g id="line2d_4">
      <path d="M 38.698438 310.584915 
L 712.8 310.584915 
" clip-path="url(#p35969679ac)" style="fill: none; stroke: #e0e0e0; stroke-width: 0.4; stroke-linecap: round"/>
     </g>
     <g id="text_4">
      <!-- 0 -->
      <g style="fill: #4d4d4d" transform="translate(30.772187 314.004212) scale(0.09 -0.09)">
       <use xlink:href="#DejaVuSans-30"/>
      </g>
     </g>
    </g>
    <g id="ytick_2">
     <g id="line2d_5">
      <path d="M 38.698438 214.450377 
L 712.8 214.450377 
" clip-path="url(#p35969679ac)" style="fill: none; stroke: #e0e0e0; stroke-width: 0.4; stroke-linecap: round"/>
     </g>
     <g id="text_5">
      <!-- 20 -->
      <g style="fill: #4d4d4d" transform="translate(25.045937 217.869674) scale(0.09 -0.09)">
       <defs>
        <path id="DejaVuSans-32" d="M 1228 531 
L 3431 531 
L 3431 0 
L 469 0 
L 469 531 
Q 828 903 1448 1529 
Q 2069 2156 2228 2338 
Q 2531 2678 2651 2914 
Q 2772 3150 2772 3378 
Q 2772 3750 2511 3984 
Q 2250 4219 1831 4219 
Q 1534 4219 1204 4116 
Q 875 4013 500 3803 
L 500 4441 
Q 881 4594 1212 4672 
Q 1544 4750 1819 4750 
Q 2544 4750 2975 4387 
Q 3406 4025 3406 3419 
Q 3406 3131 3298 2873 
Q 3191 2616 2906 2266 
Q 2828 2175 2409 1742 
Q 1991 1309 1228 531 
z
" transform="scale(0.015625)"/>
       </defs>
       <use xlink:href="#DejaVuSans-32"/>
       <use xlink:href="#DejaVuSans-30" transform="translate(63.623047 0)"/>
      </g>
     </g>
    </g>
    <g id="ytick_3">
     <g id="line2d_6">
      <path d="M 38.698438 118.31584 
L 712.8 118.31584 
" clip-path="url(#p35969679ac)" style="fill: none; stroke: #e0e0e0; stroke-width: 0.4; stroke-linecap: round"/>
     </g>
     <g id="text_6">
      <!-- 40 -->
      <g style="fill: #4d4d4d" transform="translate(25.045937 121.735137) scale(0.09 -0.09)">
       <defs>
        <path id="DejaVuSans-34" d="M 2419 4116 
L 825 1625 
L 2419 1625 
L 2419 4116 
z
M 2253 4666 
L 3047 4666 
L 3047 1625 
L 3713 1625 
L 3713 1100 
L 3047 1100 
L 3047 0 
L 2419 0 
L 2419 1100 
L 313 1100 
L 313 1709 
L 2253 4666 
z
" transform="scale(0.015625)"/>
       </defs>
       <use xlink:href="#DejaVuSans-34"/>
       <use xlink:href="#DejaVuSans-30" transform="translate(63.623047 0)"/>
      </g>
     </g>
    </g>
    <g id="ytick_4"/>
    <g id="ytick_5"/>
    <g id="ytick_6"/>
   </g>
   <g id="PolyCollection_1">
    <path d="M 69.339418 310.584915 
L 69.339418 305.778188 
L 81.59581 305.778188 
L 81.59581 310.584915 
z
" clip-path="url(#p35969679ac)" style="fill: #1f77b4; fill-opacity: 0.698039; stroke: #ffffff; stroke-width: 0.886227"/>
    <path d="M 81.59581 310.584915 
L 81.59581 296.164734 
L 93.852202 296.164734 
L 93.852202 310.584915 
z
" clip-path="url(#p35969679ac)" style="fill: #1f77b4; fill-opacity: 0.698039; stroke: #ffffff; stroke-width: 0.886227"/>
    <path d="M 93.852202 310.584915 
L 93.852202 296.164734 
L 106.108594 296.164734 
L 106.108594 310.584915 
z
" clip-path="url(#p35969679ac)" style="fill: #1f77b4; fill-opacity: 0.698039; stroke: #ffffff; stroke-width: 0.886227"/>
    <path d="M 106.108594 310.584915 
L 106.108594 286.55128 
L 118.364986 286.55128 
L 118.364986 310.584915 
z
" clip-path="url(#p35969679ac)" style="fill: #1f77b4; fill-opacity: 0.698039; stroke: #ffffff; stroke-width: 0.886227"/>
    <path d="M 118.364986 310.584915 
L 118.364986 262.517646 
L 130.621378 262.517646 
L 130.621378 310.584915 
z
" clip-path="url(#p35969679ac)" style="fill: #1f77b4; fill-opacity: 0.698039; stroke: #ffffff; stroke-width: 0.886227"/>
    <path d="M 130.621378 310.584915 
L 130.621378 272.1311 
L 142.87777 272.1311 
L 142.87777 310.584915 
z
" clip-path="url(#p35969679ac)" style="fill: #1f77b4; fill-opacity: 0.698039; stroke: #ffffff; stroke-width: 0.886227"/>
    <path d="M 142.87777 310.584915 
L 142.87777 257.710919 
L 155.134162 257.710919 
L 155.134162 310.584915 
z
" clip-path="url(#p35969679ac)" style="fill: #1f77b4; fill-opacity: 0.698039; stroke: #ffffff; stroke-width: 0.886227"/>
    <path d="M 155.134162 310.584915 
L 155.134162 228.870558 
L 167.390554 228.870558 
L 167.390554 310.584915 
z
" clip-path="url(#p35969679ac)" style="fill: #1f77b4; fill-opacity: 0.698039; stroke: #ffffff; stroke-width: 0.886227"/>
    <path d="M 167.390554 310.584915 
L 167.390554 224.063831 
L 179.646946 224.063831 
L 179.646946 310.584915 
z
" clip-path="url(#p35969679ac)" style="fill: #1f77b4; fill-opacity: 0.698039; stroke: #ffffff; stroke-width: 0.886227"/>
    <path d="M 179.646946 310.584915 
L 179.646946 214.450377 
L 191.903338 214.450377 
L 191.903338 310.584915 
z
" clip-path="url(#p35969679ac)" style="fill: #1f77b4; fill-opacity: 0.698039; stroke: #ffffff; stroke-width: 0.886227"/>
    <path d="M 191.903338 310.584915 
L 191.903338 204.836924 
L 204.15973 204.836924 
L 204.15973 310.584915 
z
" clip-path="url(#p35969679ac)" style="fill: #1f77b4; fill-opacity: 0.698039; stroke: #ffffff; stroke-width: 0.886227"/>
    <path d="M 204.15973 310.584915 
L 204.15973 185.610016 
L 216.416122 185.610016 
L 216.416122 310.584915 
z
" clip-path="url(#p35969679ac)" style="fill: #1f77b4; fill-opacity: 0.698039; stroke: #ffffff; stroke-width: 0.886227"/>
    <path d="M 216.416122 310.584915 
L 216.416122 161.576382 
L 228.672514 161.576382 
L 228.672514 310.584915 
z
" clip-path="url(#p35969679ac)" style="fill: #1f77b4; fill-opacity: 0.698039; stroke: #ffffff; stroke-width: 0.886227"/>
    <path d="M 228.672514 310.584915 
L 228.672514 137.542748 
L 240.928906 137.542748 
L 240.928906 310.584915 
z
" clip-path="url(#p35969679ac)" style="fill: #1f77b4; fill-opacity: 0.698039; stroke: #ffffff; stroke-width: 0.886227"/>
    <path d="M 240.928906 310.584915 
L 240.928906 94.282206 
L 253.185298 94.282206 
L 253.185298 310.584915 
z
" clip-path="url(#p35969679ac)" style="fill: #1f77b4; fill-opacity: 0.698039; stroke: #ffffff; stroke-width: 0.886227"/>
    <path d="M 253.185298 310.584915 
L 253.185298 70.248571 
L 265.44169 70.248571 
L 265.44169 310.584915 
z
" clip-path="url(#p35969679ac)" style="fill: #1f77b4; fill-opacity: 0.698039; stroke: #ffffff; stroke-width: 0.886227"/>
    <path d="M 265.44169 310.584915 
L 265.44169 65.441845 
L 277.698082 65.441845 
L 277.698082 310.584915 
z
" clip-path="url(#p35969679ac)" style="fill: #1f77b4; fill-opacity: 0.698039; stroke: #ffffff; stroke-width: 0.886227"/>
    <path d="M 277.698082 310.584915 
L 277.698082 108.702386 
L 289.954474 108.702386 
L 289.954474 310.584915 
z
" clip-path="url(#p35969679ac)" style="fill: #1f77b4; fill-opacity: 0.698039; stroke: #ffffff; stroke-width: 0.886227"/>
    <path d="M 289.954474 310.584915 
L 289.954474 84.668752 
L 302.210866 84.668752 
L 302.210866 310.584915 
z
" clip-path="url(#p35969679ac)" style="fill: #1f77b4; fill-opacity: 0.698039; stroke: #ffffff; stroke-width: 0.886227"/>
    <path d="M 302.210866 310.584915 
L 302.210866 70.248571 
L 314.467259 70.248571 
L 314.467259 310.584915 
z
" clip-path="url(#p35969679ac)" style="fill: #1f77b4; fill-opacity: 0.698039; stroke: #ffffff; stroke-width: 0.886227"/>
    <path d="M 314.467259 310.584915 
L 314.467259 108.702386 
L 326.723651 108.702386 
L 326.723651 310.584915 
z
" clip-path="url(#p35969679ac)" style="fill: #1f77b4; fill-opacity: 0.698039; stroke: #ffffff; stroke-width: 0.886227"/>
    <path d="M 326.723651 310.584915 
L 326.723651 41.40821 
L 338.980043 41.40821 
L 338.980043 310.584915 
z
" clip-path="url(#p35969679ac)" style="fill: #1f77b4; fill-opacity: 0.698039; stroke: #ffffff; stroke-width: 0.886227"/>
    <path d="M 338.980043 310.584915 
L 338.980043 118.31584 
L 351.236435 118.31584 
L 351.236435 310.584915 
z
" clip-path="url(#p35969679ac)" style="fill: #1f77b4; fill-opacity: 0.698039; stroke: #ffffff; stroke-width: 0.886227"/>
    <path d="M 351.236435 310.584915 
L 351.236435 65.441845 
L 363.492827 65.441845 
L 363.492827 310.584915 
z
" clip-path="url(#p35969679ac)" style="fill: #1f77b4; fill-opacity: 0.698039; stroke: #ffffff; stroke-width: 0.886227"/>
    <path d="M 363.492827 310.584915 
L 363.492827 123.122567 
L 375.749219 123.122567 
L 375.749219 310.584915 
z
" clip-path="url(#p35969679ac)" style="fill: #1f77b4; fill-opacity: 0.698039; stroke: #ffffff; stroke-width: 0.886227"/>
    <path d="M 375.749219 310.584915 
L 375.749219 180.803289 
L 388.005611 180.803289 
L 388.005611 310.584915 
z
" clip-path="url(#p35969679ac)" style="fill: #1f77b4; fill-opacity: 0.698039; stroke: #ffffff; stroke-width: 0.886227"/>
    <path d="M 388.005611 310.584915 
L 388.005611 118.31584 
L 400.262003 118.31584 
L 400.262003 310.584915 
z
" clip-path="url(#p35969679ac)" style="fill: #1f77b4; fill-opacity: 0.698039; stroke: #ffffff; stroke-width: 0.886227"/>
    <path d="M 400.262003 310.584915 
L 400.262003 190.416743 
L 412.518395 190.416743 
L 412.518395 310.584915 
z
" clip-path="url(#p35969679ac)" style="fill: #1f77b4; fill-opacity: 0.698039; stroke: #ffffff; stroke-width: 0.886227"/>
    <path d="M 412.518395 310.584915 
L 412.518395 175.996562 
L 424.774787 175.996562 
L 424.774787 310.584915 
z
" clip-path="url(#p35969679ac)" style="fill: #1f77b4; fill-opacity: 0.698039; stroke: #ffffff; stroke-width: 0.886227"/>
    <path d="M 424.774787 310.584915 
L 424.774787 161.576382 
L 437.031179 161.576382 
L 437.031179 310.584915 
z
" clip-path="url(#p35969679ac)" style="fill: #1f77b4; fill-opacity: 0.698039; stroke: #ffffff; stroke-width: 0.886227"/>
    <path d="M 437.031179 310.584915 
L 437.031179 219.257104 
L 449.287571 219.257104 
L 449.287571 310.584915 
z
" clip-path="url(#p35969679ac)" style="fill: #1f77b4; fill-opacity: 0.698039; stroke: #ffffff; stroke-width: 0.886227"/>
    <path d="M 449.287571 310.584915 
L 449.287571 224.063831 
L 461.543963 224.063831 
L 461.543963 310.584915 
z
" clip-path="url(#p35969679ac)" style="fill: #1f77b4; fill-opacity: 0.698039; stroke: #ffffff; stroke-width: 0.886227"/>
    <path d="M 461.543963 310.584915 
L 461.543963 257.710919 
L 473.800355 257.710919 
L 473.800355 310.584915 
z
" clip-path="url(#p35969679ac)" style="fill: #1f77b4; fill-opacity: 0.698039; stroke: #ffffff; stroke-width: 0.886227"/>
    <path d="M 473.800355 310.584915 
L 473.800355 272.1311 
L 486.056747 272.1311 
L 486.056747 310.584915 
z
" clip-path="url(#p35969679ac)" style="fill: #1f77b4; fill-opacity: 0.698039; stroke: #ffffff; stroke-width: 0.886227"/>
    <path d="M 486.056747 310.584915 
L 486.056747 238.484012 
L 498.313139 238.484012 
L 498.313139 310.584915 
z
" clip-path="url(#p35969679ac)" style="fill: #1f77b4; fill-opacity: 0.698039; stroke: #ffffff; stroke-width: 0.886227"/>
    <path d="M 498.313139 310.584915 
L 498.313139 267.324373 
L 510.569531 267.324373 
L 510.569531 310.584915 
z
" clip-path="url(#p35969679ac)" style="fill: #1f77b4; fill-opacity: 0.698039; stroke: #ffffff; stroke-width: 0.886227"/>
    <path d="M 510.569531 310.584915 
L 510.569531 281.744554 
L 522.825923 281.744554 
L 522.825923 310.584915 
z
" clip-path="url(#p35969679ac)" style="fill: #1f77b4; fill-opacity: 0.698039; stroke: #ffffff; stroke-width: 0.886227"/>
    <path d="M 522.825923 310.584915 
L 522.825923 286.55128 
L 535.082315 286.55128 
L 535.082315 310.584915 
z
" clip-path="url(#p35969679ac)" style="fill: #1f77b4; fill-opacity: 0.698039; stroke: #ffffff; stroke-width: 0.886227"/>
    <path d="M 535.082315 310.584915 
L 535.082315 262.517646 
L 547.338707 262.517646 
L 547.338707 310.584915 
z
" clip-path="url(#p35969679ac)" style="fill: #1f77b4; fill-opacity: 0.698039; stroke: #ffffff; stroke-width: 0.886227"/>
    <path d="M 547.338707 310.584915 
L 547.338707 296.164734 
L 559.595099 296.164734 
L 559.595099 310.584915 
z
" clip-path="url(#p35969679ac)" style="fill: #1f77b4; fill-opacity: 0.698039; stroke: #ffffff; stroke-width: 0.886227"/>
    <path d="M 559.595099 310.584915 
L 559.595099 296.164734 
L 571.851491 296.164734 
L 571.851491 310.584915 
z
" clip-path="url(#p35969679ac)" style="fill: #1f77b4; fill-opacity: 0.698039; stroke: #ffffff; stroke-width: 0.886227"/>
    <path d="M 571.851491 310.584915 
L 571.851491 272.1311 
L 584.107884 272.1311 
L 584.107884 310.584915 
z
" clip-path="url(#p35969679ac)" style="fill: #1f77b4; fill-opacity: 0.698039; stroke: #ffffff; stroke-width: 0.886227"/>
    <path d="M 584.107884 310.584915 
L 584.107884 300.971461 
L 596.364276 300.971461 
L 596.364276 310.584915 
z
" clip-path="url(#p35969679ac)" style="fill: #1f77b4; fill-opacity: 0.698039; stroke: #ffffff; stroke-width: 0.886227"/>
    <path d="M 596.364276 310.584915 
L 596.364276 300.971461 
L 608.620668 300.971461 
L 608.620668 310.584915 
z
" clip-path="url(#p35969679ac)" style="fill: #1f77b4; fill-opacity: 0.698039; stroke: #ffffff; stroke-width: 0.886227"/>
    <path d="M 608.620668 310.584915 
L 608.620668 296.164734 
L 620.87706 296.164734 
L 620.87706 310.584915 
z
" clip-path="url(#p35969679ac)" style="fill: #1f77b4; fill-opacity: 0.698039; stroke: #ffffff; stroke-width: 0.886227"/>
    <path d="M 620.87706 310.584915 
L 620.87706 310.584915 
L 633.133452 310.584915 
L 633.133452 310.584915 
z
" clip-path="url(#p35969679ac)" style="fill: #1f77b4; fill-opacity: 0.698039; stroke: #ffffff; stroke-width: 0.886227"/>
    <path d="M 633.133452 310.584915 
L 633.133452 305.778188 
L 645.389844 305.778188 
L 645.389844 310.584915 
z
" clip-path="url(#p35969679ac)" style="fill: #1f77b4; fill-opacity: 0.698039; stroke: #ffffff; stroke-width: 0.886227"/>
    <path d="M 645.389844 310.584915 
L 645.389844 310.584915 
L 657.646236 310.584915 
L 657.646236 310.584915 
z
" clip-path="url(#p35969679ac)" style="fill: #1f77b4; fill-opacity: 0.698039; stroke: #ffffff; stroke-width: 0.886227"/>
    <path d="M 657.646236 310.584915 
L 657.646236 310.584915 
L 669.902628 310.584915 
L 669.902628 310.584915 
z
" clip-path="url(#p35969679ac)" style="fill: #1f77b4; fill-opacity: 0.698039; stroke: #ffffff; stroke-width: 0.886227"/>
    <path d="M 669.902628 310.584915 
L 669.902628 300.971461 
L 682.15902 300.971461 
L 682.15902 310.584915 
z
" clip-path="url(#p35969679ac)" style="fill: #1f77b4; fill-opacity: 0.698039; stroke: #ffffff; stroke-width: 0.886227"/>
   </g>
   <g id="LineCollection_1">
    <path d="M 321.859162 324.04375 
L 321.859162 27.949375 
" clip-path="url(#p35969679ac)" style="fill: none; stroke-dasharray: 6.558079,2.835926; stroke-dashoffset: 0; stroke: #ff7f0e; stroke-width: 1.772454"/>
   </g>
   <g id="LineCollection_2">
    <path d="M 315.599891 324.04375 
L 315.599891 27.949375 
" clip-path="url(#p35969679ac)" style="fill: none; stroke: #2ca02c; stroke-width: 1.772454"/>
   </g>
  </g>
  <g id="text_7">
   <!-- Terminal Value Distribution -->
   <g transform="translate(268.034531 17.837812) scale(0.14 -0.14)">
    <defs>
     <path id="DejaVuSans-Bold-54" d="M 31 4666 
L 4331 4666 
L 4331 3756 
L 2784 3756 
L 2784 0 
L 1581 0 
L 1581 3756 
L 31 3756 
L 31 4666 
z
" transform="scale(0.015625)"/>
     <path id="DejaVuSans-Bold-65" d="M 4031 1759 
L 4031 1441 
L 1416 1441 
Q 1456 1047 1700 850 
Q 1944 653 2381 653 
Q 2734 653 3104 758 
Q 3475 863 3866 1075 
L 3866 213 
Q 3469 63 3072 -14 
Q 2675 -91 2278 -91 
Q 1328 -91 801 392 
Q 275 875 275 1747 
Q 275 2603 792 3093 
Q 1309 3584 2216 3584 
Q 3041 3584 3536 3087 
Q 4031 2591 4031 1759 
z
M 2881 2131 
Q 2881 2450 2695 2645 
Q 2509 2841 2209 2841 
Q 1884 2841 1681 2658 
Q 1478 2475 1428 2131 
L 2881 2131 
z
" transform="scale(0.015625)"/>
     <path id="DejaVuSans-Bold-72" d="M 3138 2547 
Q 2991 2616 2845 2648 
Q 2700 2681 2553 2681 
Q 2122 2681 1889 2404 
Q 1656 2128 1656 1613 
L 1656 0 
L 538 0 
L 538 3500 
L 1656 3500 
L 1656 2925 
Q 1872 3269 2151 3426 
Q 2431 3584 2822 3584 
Q 2878 3584 2943 3579 
Q 3009 3575 3134 3559 
L 3138 2547 
z
" transform="scale(0.015625)"/>
     <path id="DejaVuSans-Bold-6d" d="M 3781 2919 
Q 3994 3244 4286 3414 
Q 4578 3584 4928 3584 
Q 5531 3584 5847 3212 
Q 6163 2841 6163 2131 
L 6163 0 
L 5038 0 
L 5038 1825 
Q 5041 1866 5042 1909 
Q 5044 1953 5044 2034 
Q 5044 2406 4934 2573 
Q 4825 2741 4581 2741 
Q 4263 2741 4089 2478 
Q 3916 2216 3909 1719 
L 3909 0 
L 2784 0 
L 2784 1825 
Q 2784 2406 2684 2573 
Q 2584 2741 2328 2741 
Q 2006 2741 1831 2477 
Q 1656 2213 1656 1722 
L 1656 0 
L 531 0 
L 531 3500 
L 1656 3500 
L 1656 2988 
Q 1863 3284 2130 3434 
Q 2397 3584 2719 3584 
Q 3081 3584 3359 3409 
Q 3638 3234 3781 2919 
z
" transform="scale(0.015625)"/>
     <path id="DejaVuSans-Bold-69" d="M 538 3500 
L 1656 3500 
L 1656 0 
L 538 0 
L 538 3500 
z
M 538 4863 
L 1656 4863 
L 1656 3950 
L 538 3950 
L 538 4863 
z
" transform="scale(0.015625)"/>
     <path id="DejaVuSans-Bold-6e" d="M 4056 2131 
L 4056 0 
L 2931 0 
L 2931 347 
L 2931 1631 
Q 2931 2084 2911 2256 
Q 2891 2428 2841 2509 
Q 2775 2619 2662 2680 
Q 2550 2741 2406 2741 
Q 2056 2741 1856 2470 
Q 1656 2200 1656 1722 
L 1656 0 
L 538 0 
L 538 3500 
L 1656 3500 
L 1656 2988 
Q 1909 3294 2193 3439 
Q 2478 3584 2822 3584 
Q 3428 3584 3742 3212 
Q 4056 2841 4056 2131 
z
" transform="scale(0.015625)"/>
     <path id="DejaVuSans-Bold-61" d="M 2106 1575 
Q 1756 1575 1579 1456 
Q 1403 1338 1403 1106 
Q 1403 894 1545 773 
Q 1688 653 1941 653 
Q 2256 653 2472 879 
Q 2688 1106 2688 1447 
L 2688 1575 
L 2106 1575 
z
M 3816 1997 
L 3816 0 
L 2688 0 
L 2688 519 
Q 2463 200 2181 54 
Q 1900 -91 1497 -91 
Q 953 -91 614 226 
Q 275 544 275 1050 
Q 275 1666 698 1953 
Q 1122 2241 2028 2241 
L 2688 2241 
L 2688 2328 
Q 2688 2594 2478 2717 
Q 2269 2841 1825 2841 
Q 1466 2841 1156 2769 
Q 847 2697 581 2553 
L 581 3406 
Q 941 3494 1303 3539 
Q 1666 3584 2028 3584 
Q 2975 3584 3395 3211 
Q 3816 2838 3816 1997 
z
" transform="scale(0.015625)"/>
     <path id="DejaVuSans-Bold-6c" d="M 538 4863 
L 1656 4863 
L 1656 0 
L 538 0 
L 538 4863 
z
" transform="scale(0.015625)"/>
     <path id="DejaVuSans-Bold-20" transform="scale(0.015625)"/>
     <path id="DejaVuSans-Bold-56" d="M 31 4666 
L 1241 4666 
L 2478 1222 
L 3713 4666 
L 4922 4666 
L 3194 0 
L 1759 0 
L 31 4666 
z
" transform="scale(0.015625)"/>
     <path id="DejaVuSans-Bold-75" d="M 500 1363 
L 500 3500 
L 1625 3500 
L 1625 3150 
Q 1625 2866 1622 2436 
Q 1619 2006 1619 1863 
Q 1619 1441 1641 1255 
Q 1663 1069 1716 984 
Q 1784 875 1895 815 
Q 2006 756 2150 756 
Q 2500 756 2700 1025 
Q 2900 1294 2900 1772 
L 2900 3500 
L 4019 3500 
L 4019 0 
L 2900 0 
L 2900 506 
Q 2647 200 2364 54 
Q 2081 -91 1741 -91 
Q 1134 -91 817 281 
Q 500 653 500 1363 
z
" transform="scale(0.015625)"/>
     <path id="DejaVuSans-Bold-44" d="M 1791 3756 
L 1791 909 
L 2222 909 
Q 2959 909 3348 1275 
Q 3738 1641 3738 2338 
Q 3738 3031 3350 3393 
Q 2963 3756 2222 3756 
L 1791 3756 
z
M 588 4666 
L 1856 4666 
Q 2919 4666 3439 4514 
Q 3959 4363 4331 4000 
Q 4659 3684 4818 3271 
Q 4978 2859 4978 2338 
Q 4978 1809 4818 1395 
Q 4659 981 4331 666 
Q 3956 303 3431 151 
Q 2906 0 1856 0 
L 588 0 
L 588 4666 
z
" transform="scale(0.015625)"/>
     <path id="DejaVuSans-Bold-73" d="M 3272 3391 
L 3272 2541 
Q 2913 2691 2578 2766 
Q 2244 2841 1947 2841 
Q 1628 2841 1473 2761 
Q 1319 2681 1319 2516 
Q 1319 2381 1436 2309 
Q 1553 2238 1856 2203 
L 2053 2175 
Q 2913 2066 3209 1816 
Q 3506 1566 3506 1031 
Q 3506 472 3093 190 
Q 2681 -91 1863 -91 
Q 1516 -91 1145 -36 
Q 775 19 384 128 
L 384 978 
Q 719 816 1070 734 
Q 1422 653 1784 653 
Q 2113 653 2278 743 
Q 2444 834 2444 1013 
Q 2444 1163 2330 1236 
Q 2216 1309 1875 1350 
L 1678 1375 
Q 931 1469 631 1722 
Q 331 1975 331 2491 
Q 331 3047 712 3315 
Q 1094 3584 1881 3584 
Q 2191 3584 2531 3537 
Q 2872 3491 3272 3391 
z
" transform="scale(0.015625)"/>
     <path id="DejaVuSans-Bold-74" d="M 1759 4494 
L 1759 3500 
L 2913 3500 
L 2913 2700 
L 1759 2700 
L 1759 1216 
Q 1759 972 1856 886 
Q 1953 800 2241 800 
L 2816 800 
L 2816 0 
L 1856 0 
Q 1194 0 917 276 
Q 641 553 641 1216 
L 641 2700 
L 84 2700 
L 84 3500 
L 641 3500 
L 641 4494 
L 1759 4494 
z
" transform="scale(0.015625)"/>
     <path id="DejaVuSans-Bold-62" d="M 2400 722 
Q 2759 722 2948 984 
Q 3138 1247 3138 1747 
Q 3138 2247 2948 2509 
Q 2759 2772 2400 2772 
Q 2041 2772 1848 2508 
Q 1656 2244 1656 1747 
Q 1656 1250 1848 986 
Q 2041 722 2400 722 
z
M 1656 2988 
Q 1888 3294 2169 3439 
Q 2450 3584 2816 3584 
Q 3463 3584 3878 3070 
Q 4294 2556 4294 1747 
Q 4294 938 3878 423 
Q 3463 -91 2816 -91 
Q 2450 -91 2169 54 
Q 1888 200 1656 506 
L 1656 0 
L 538 0 
L 538 4863 
L 1656 4863 
L 1656 2988 
z
" transform="scale(0.015625)"/>
     <path id="DejaVuSans-Bold-6f" d="M 2203 2784 
Q 1831 2784 1636 2517 
Q 1441 2250 1441 1747 
Q 1441 1244 1636 976 
Q 1831 709 2203 709 
Q 2569 709 2762 976 
Q 2956 1244 2956 1747 
Q 2956 2250 2762 2517 
Q 2569 2784 2203 2784 
z
M 2203 3584 
Q 3106 3584 3614 3096 
Q 4122 2609 4122 1747 
Q 4122 884 3614 396 
Q 3106 -91 2203 -91 
Q 1297 -91 786 396 
Q 275 884 275 1747 
Q 275 2609 786 3096 
Q 1297 3584 2203 3584 
z
" transform="scale(0.015625)"/>
    </defs>
    <use xlink:href="#DejaVuSans-Bold-54"/>
    <use xlink:href="#DejaVuSans-Bold-65" transform="translate(54.962891 0)"/>
    <use xlink:href="#DejaVuSans-Bold-72" transform="translate(122.785156 0)"/>
    <use xlink:href="#DejaVuSans-Bold-6d" transform="translate(172.101562 0)"/>
    <use xlink:href="#DejaVuSans-Bold-69" transform="translate(276.300781 0)"/>
    <use xlink:href="#DejaVuSans-Bold-6e" transform="translate(310.578125 0)"/>
    <use xlink:href="#DejaVuSans-Bold-61" transform="translate(381.769531 0)"/>
    <use xlink:href="#DejaVuSans-Bold-6c" transform="translate(449.25 0)"/>
    <use xlink:href="#DejaVuSans-Bold-20" transform="translate(483.527344 0)"/>
    <use xlink:href="#DejaVuSans-Bold-56" transform="translate(518.341797 0)"/>
    <use xlink:href="#DejaVuSans-Bold-61" transform="translate(590.234375 0)"/>
    <use xlink:href="#DejaVuSans-Bold-6c" transform="translate(657.714844 0)"/>
    <use xlink:href="#DejaVuSans-Bold-75" transform="translate(691.992188 0)"/>
    <use xlink:href="#DejaVuSans-Bold-65" transform="translate(763.183594 0)"/>
    <use xlink:href="#DejaVuSans-Bold-20" transform="translate(831.005859 0)"/>
    <use xlink:href="#DejaVuSans-Bold-44" transform="translate(865.820312 0)"/>
    <use xlink:href="#DejaVuSans-Bold-69" transform="translate(948.828125 0)"/>
    <use xlink:href="#DejaVuSans-Bold-73" transform="translate(983.105469 0)"/>
    <use xlink:href="#DejaVuSans-Bold-74" transform="translate(1042.626953 0)"/>
    <use xlink:href="#DejaVuSans-Bold-72" transform="translate(1090.429688 0)"/>
    <use xlink:href="#DejaVuSans-Bold-69" transform="translate(1139.746094 0)"/>
    <use xlink:href="#DejaVuSans-Bold-62" transform="translate(1174.023438 0)"/>
    <use xlink:href="#DejaVuSans-Bold-75" transform="translate(1245.605469 0)"/>
    <use xlink:href="#DejaVuSans-Bold-74" transform="translate(1316.796875 0)"/>
    <use xlink:href="#DejaVuSans-Bold-69" transform="translate(1364.599609 0)"/>
    <use xlink:href="#DejaVuSans-Bold-6f" transform="translate(1398.876953 0)"/>
    <use xlink:href="#DejaVuSans-Bold-6e" transform="translate(1467.578125 0)"/>
   </g>
  </g>
  <g id="text_8">
   <!-- Terminal Portfolio Value ($) -->
   <g transform="translate(301.745 350.512344) scale(0.11 -0.11)">
    <defs>
     <path id="DejaVuSans-54" d="M -19 4666 
L 3928 4666 
L 3928 4134 
L 2272 4134 
L 2272 0 
L 1638 0 
L 1638 4134 
L -19 4134 
L -19 4666 
z
" transform="scale(0.015625)"/>
     <path id="DejaVuSans-65" d="M 3597 1894 
L 3597 1613 
L 953 1613 
Q 991 1019 1311 708 
Q 1631 397 2203 397 
Q 2534 397 2845 478 
Q 3156 559 3463 722 
L 3463 178 
Q 3153 47 2828 -22 
Q 2503 -91 2169 -91 
Q 1331 -91 842 396 
Q 353 884 353 1716 
Q 353 2575 817 3079 
Q 1281 3584 2069 3584 
Q 2775 3584 3186 3129 
Q 3597 2675 3597 1894 
z
M 3022 2063 
Q 3016 2534 2758 2815 
Q 2500 3097 2075 3097 
Q 1594 3097 1305 2825 
Q 1016 2553 972 2059 
L 3022 2063 
z
" transform="scale(0.015625)"/>
     <path id="DejaVuSans-72" d="M 2631 2963 
Q 2534 3019 2420 3045 
Q 2306 3072 2169 3072 
Q 1681 3072 1420 2755 
Q 1159 2438 1159 1844 
L 1159 0 
L 581 0 
L 581 3500 
L 1159 3500 
L 1159 2956 
Q 1341 3275 1631 3429 
Q 1922 3584 2338 3584 
Q 2397 3584 2469 3576 
Q 2541 3569 2628 3553 
L 2631 2963 
z
" transform="scale(0.015625)"/>
     <path id="DejaVuSans-6d" d="M 3328 2828 
Q 3544 3216 3844 3400 
Q 4144 3584 4550 3584 
Q 5097 3584 5394 3201 
Q 5691 2819 5691 2113 
L 5691 0 
L 5113 0 
L 5113 2094 
Q 5113 2597 4934 2840 
Q 4756 3084 4391 3084 
Q 3944 3084 3684 2787 
Q 3425 2491 3425 1978 
L 3425 0 
L 2847 0 
L 2847 2094 
Q 2847 2600 2669 2842 
Q 2491 3084 2119 3084 
Q 1678 3084 1418 2786 
Q 1159 2488 1159 1978 
L 1159 0 
L 581 0 
L 581 3500 
L 1159 3500 
L 1159 2956 
Q 1356 3278 1631 3431 
Q 1906 3584 2284 3584 
Q 2666 3584 2933 3390 
Q 3200 3197 3328 2828 
z
" transform="scale(0.015625)"/>
     <path id="DejaVuSans-69" d="M 603 3500 
L 1178 3500 
L 1178 0 
L 603 0 
L 603 3500 
z
M 603 4863 
L 1178 4863 
L 1178 4134 
L 603 4134 
L 603 4863 
z
" transform="scale(0.015625)"/>
     <path id="DejaVuSans-6e" d="M 3513 2113 
L 3513 0 
L 2938 0 
L 2938 2094 
Q 2938 2591 2744 2837 
Q 2550 3084 2163 3084 
Q 1697 3084 1428 2787 
Q 1159 2491 1159 1978 
L 1159 0 
L 581 0 
L 581 3500 
L 1159 3500 
L 1159 2956 
Q 1366 3272 1645 3428 
Q 1925 3584 2291 3584 
Q 2894 3584 3203 3211 
Q 3513 2838 3513 2113 
z
" transform="scale(0.015625)"/>
     <path id="DejaVuSans-61" d="M 2194 1759 
Q 1497 1759 1228 1600 
Q 959 1441 959 1056 
Q 959 750 1161 570 
Q 1363 391 1709 391 
Q 2188 391 2477 730 
Q 2766 1069 2766 1631 
L 2766 1759 
L 2194 1759 
z
M 3341 1997 
L 3341 0 
L 2766 0 
L 2766 531 
Q 2569 213 2275 61 
Q 1981 -91 1556 -91 
Q 1019 -91 701 211 
Q 384 513 384 1019 
Q 384 1609 779 1909 
Q 1175 2209 1959 2209 
L 2766 2209 
L 2766 2266 
Q 2766 2663 2505 2880 
Q 2244 3097 1772 3097 
Q 1472 3097 1187 3025 
Q 903 2953 641 2809 
L 641 3341 
Q 956 3463 1253 3523 
Q 1550 3584 1831 3584 
Q 2591 3584 2966 3190 
Q 3341 2797 3341 1997 
z
" transform="scale(0.015625)"/>
     <path id="DejaVuSans-6c" d="M 603 4863 
L 1178 4863 
L 1178 0 
L 603 0 
L 603 4863 
z
" transform="scale(0.015625)"/>
     <path id="DejaVuSans-20" transform="scale(0.015625)"/>
     <path id="DejaVuSans-50" d="M 1259 4147 
L 1259 2394 
L 2053 2394 
Q 2494 2394 2734 2622 
Q 2975 2850 2975 3272 
Q 2975 3691 2734 3919 
Q 2494 4147 2053 4147 
L 1259 4147 
z
M 628 4666 
L 2053 4666 
Q 2838 4666 3239 4311 
Q 3641 3956 3641 3272 
Q 3641 2581 3239 2228 
Q 2838 1875 2053 1875 
L 1259 1875 
L 1259 0 
L 628 0 
L 628 4666 
z
" transform="scale(0.015625)"/>
     <path id="DejaVuSans-6f" d="M 1959 3097 
Q 1497 3097 1228 2736 
Q 959 2375 959 1747 
Q 959 1119 1226 758 
Q 1494 397 1959 397 
Q 2419 397 2687 759 
Q 2956 1122 2956 1747 
Q 2956 2369 2687 2733 
Q 2419 3097 1959 3097 
z
M 1959 3584 
Q 2709 3584 3137 3096 
Q 3566 2609 3566 1747 
Q 3566 888 3137 398 
Q 2709 -91 1959 -91 
Q 1206 -91 779 398 
Q 353 888 353 1747 
Q 353 2609 779 3096 
Q 1206 3584 1959 3584 
z
" transform="scale(0.015625)"/>
     <path id="DejaVuSans-74" d="M 1172 4494 
L 1172 3500 
L 2356 3500 
L 2356 3053 
L 1172 3053 
L 1172 1153 
Q 1172 725 1289 603 
Q 1406 481 1766 481 
L 2356 481 
L 2356 0 
L 1766 0 
Q 1100 0 847 248 
Q 594 497 594 1153 
L 594 3053 
L 172 3053 
L 172 3500 
L 594 3500 
L 594 4494 
L 1172 4494 
z
" transform="scale(0.015625)"/>
     <path id="DejaVuSans-66" d="M 2375 4863 
L 2375 4384 
L 1825 4384 
Q 1516 4384 1395 4259 
Q 1275 4134 1275 3809 
L 1275 3500 
L 2222 3500 
L 2222 3053 
L 1275 3053 
L 1275 0 
L 697 0 
L 697 3053 
L 147 3053 
L 147 3500 
L 697 3500 
L 697 3744 
Q 697 4328 969 4595 
Q 1241 4863 1831 4863 
L 2375 4863 
z
" transform="scale(0.015625)"/>
     <path id="DejaVuSans-56" d="M 1831 0 
L 50 4666 
L 709 4666 
L 2188 738 
L 3669 4666 
L 4325 4666 
L 2547 0 
L 1831 0 
z
" transform="scale(0.015625)"/>
     <path id="DejaVuSans-75" d="M 544 1381 
L 544 3500 
L 1119 3500 
L 1119 1403 
Q 1119 906 1312 657 
Q 1506 409 1894 409 
Q 2359 409 2629 706 
Q 2900 1003 2900 1516 
L 2900 3500 
L 3475 3500 
L 3475 0 
L 2900 0 
L 2900 538 
Q 2691 219 2414 64 
Q 2138 -91 1772 -91 
Q 1169 -91 856 284 
Q 544 659 544 1381 
z
M 1991 3584 
L 1991 3584 
z
" transform="scale(0.015625)"/>
     <path id="DejaVuSans-28" d="M 1984 4856 
Q 1566 4138 1362 3434 
Q 1159 2731 1159 2009 
Q 1159 1288 1364 580 
Q 1569 -128 1984 -844 
L 1484 -844 
Q 1016 -109 783 600 
Q 550 1309 550 2009 
Q 550 2706 781 3412 
Q 1013 4119 1484 4856 
L 1984 4856 
z
" transform="scale(0.015625)"/>
     <path id="DejaVuSans-24" d="M 2163 -941 
L 1850 -941 
L 1847 0 
Q 1519 6 1191 76 
Q 863 147 531 288 
L 531 850 
Q 850 650 1176 548 
Q 1503 447 1850 444 
L 1850 1869 
Q 1159 1981 845 2250 
Q 531 2519 531 2988 
Q 531 3497 872 3790 
Q 1213 4084 1850 4128 
L 1850 4863 
L 2163 4863 
L 2163 4138 
Q 2453 4125 2725 4076 
Q 2997 4028 3256 3944 
L 3256 3397 
Q 2997 3528 2723 3600 
Q 2450 3672 2163 3684 
L 2163 2350 
Q 2872 2241 3206 1959 
Q 3541 1678 3541 1191 
Q 3541 663 3186 358 
Q 2831 53 2163 6 
L 2163 -941 
z
M 1850 2406 
L 1850 3688 
Q 1488 3647 1297 3481 
Q 1106 3316 1106 3041 
Q 1106 2772 1282 2622 
Q 1459 2472 1850 2406 
z
M 2163 1806 
L 2163 453 
Q 2559 506 2761 678 
Q 2963 850 2963 1131 
Q 2963 1406 2770 1568 
Q 2578 1731 2163 1806 
z
" transform="scale(0.015625)"/>
     <path id="DejaVuSans-29" d="M 513 4856 
L 1013 4856 
Q 1481 4119 1714 3412 
Q 1947 2706 1947 2009 
Q 1947 1309 1714 600 
Q 1481 -109 1013 -844 
L 513 -844 
Q 928 -128 1133 580 
Q 1338 1288 1338 2009 
Q 1338 2731 1133 3434 
Q 928 4138 513 4856 
z
" transform="scale(0.015625)"/>
    </defs>
    <use xlink:href="#DejaVuSans-54"/>
    <use xlink:href="#DejaVuSans-65" transform="translate(44.083984 0)"/>
    <use xlink:href="#DejaVuSans-72" transform="translate(105.607422 0)"/>
    <use xlink:href="#DejaVuSans-6d" transform="translate(144.970703 0)"/>
    <use xlink:href="#DejaVuSans-69" transform="translate(242.382812 0)"/>
    <use xlink:href="#DejaVuSans-6e" transform="translate(270.166016 0)"/>
    <use xlink:href="#DejaVuSans-61" transform="translate(333.544922 0)"/>
    <use xlink:href="#DejaVuSans-6c" transform="translate(394.824219 0)"/>
    <use xlink:href="#DejaVuSans-20" transform="translate(422.607422 0)"/>
    <use xlink:href="#DejaVuSans-50" transform="translate(454.394531 0)"/>
    <use xlink:href="#DejaVuSans-6f" transform="translate(511.072266 0)"/>
    <use xlink:href="#DejaVuSans-72" transform="translate(572.253906 0)"/>
    <use xlink:href="#DejaVuSans-74" transform="translate(613.367188 0)"/>
    <use xlink:href="#DejaVuSans-66" transform="translate(652.576172 0)"/>
    <use xlink:href="#DejaVuSans-6f" transform="translate(687.78125 0)"/>
    <use xlink:href="#DejaVuSans-6c" transform="translate(748.962891 0)"/>
    <use xlink:href="#DejaVuSans-69" transform="translate(776.746094 0)"/>
    <use xlink:href="#DejaVuSans-6f" transform="translate(804.529297 0)"/>
    <use xlink:href="#DejaVuSans-20" transform="translate(865.710938 0)"/>
    <use xlink:href="#DejaVuSans-56" transform="translate(897.498047 0)"/>
    <use xlink:href="#DejaVuSans-61" transform="translate(958.15625 0)"/>
    <use xlink:href="#DejaVuSans-6c" transform="translate(1019.435547 0)"/>
    <use xlink:href="#DejaVuSans-75" transform="translate(1047.21875 0)"/>
    <use xlink:href="#DejaVuSans-65" transform="translate(1110.597656 0)"/>
    <use xlink:href="#DejaVuSans-20" transform="translate(1172.121094 0)"/>
    <use xlink:href="#DejaVuSans-28" transform="translate(1203.908203 0)"/>
    <use xlink:href="#DejaVuSans-24" transform="translate(1242.921875 0)"/>
    <use xlink:href="#DejaVuSans-29" transform="translate(1306.544922 0)"/>
   </g>
  </g>
  <g id="text_9">
   <!-- Frequency -->
   <g transform="translate(15.558281 204.409219) rotate(-90) scale(0.11 -0.11)">
    <defs>
     <path id="DejaVuSans-46" d="M 628 4666 
L 3309 4666 
L 3309 4134 
L 1259 4134 
L 1259 2759 
L 3109 2759 
L 3109 2228 
L 1259 2228 
L 1259 0 
L 628 0 
L 628 4666 
z
" transform="scale(0.015625)"/>
     <path id="DejaVuSans-71" d="M 947 1747 
Q 947 1113 1208 752 
Q 1469 391 1925 391 
Q 2381 391 2643 752 
Q 2906 1113 2906 1747 
Q 2906 2381 2643 2742 
Q 2381 3103 1925 3103 
Q 1469 3103 1208 2742 
Q 947 2381 947 1747 
z
M 2906 525 
Q 2725 213 2448 61 
Q 2172 -91 1784 -91 
Q 1150 -91 751 415 
Q 353 922 353 1747 
Q 353 2572 751 3078 
Q 1150 3584 1784 3584 
Q 2172 3584 2448 3432 
Q 2725 3281 2906 2969 
L 2906 3500 
L 3481 3500 
L 3481 -1331 
L 2906 -1331 
L 2906 525 
z
" transform="scale(0.015625)"/>
     <path id="DejaVuSans-63" d="M 3122 3366 
L 3122 2828 
Q 2878 2963 2633 3030 
Q 2388 3097 2138 3097 
Q 1578 3097 1268 2742 
Q 959 2388 959 1747 
Q 959 1106 1268 751 
Q 1578 397 2138 397 
Q 2388 397 2633 464 
Q 2878 531 3122 666 
L 3122 134 
Q 2881 22 2623 -34 
Q 2366 -91 2075 -91 
Q 1284 -91 818 406 
Q 353 903 353 1747 
Q 353 2603 823 3093 
Q 1294 3584 2113 3584 
Q 2378 3584 2631 3529 
Q 2884 3475 3122 3366 
z
" transform="scale(0.015625)"/>
     <path id="DejaVuSans-79" d="M 2059 -325 
Q 1816 -950 1584 -1140 
Q 1353 -1331 966 -1331 
L 506 -1331 
L 506 -850 
L 844 -850 
Q 1081 -850 1212 -737 
Q 1344 -625 1503 -206 
L 1606 56 
L 191 3500 
L 800 3500 
L 1894 763 
L 2988 3500 
L 3597 3500 
L 2059 -325 
z
" transform="scale(0.015625)"/>
    </defs>
    <use xlink:href="#DejaVuSans-46"/>
    <use xlink:href="#DejaVuSans-72" transform="translate(50.269531 0)"/>
    <use xlink:href="#DejaVuSans-65" transform="translate(89.132812 0)"/>
    <use xlink:href="#DejaVuSans-71" transform="translate(150.65625 0)"/>
    <use xlink:href="#DejaVuSans-75" transform="translate(214.132812 0)"/>
    <use xlink:href="#DejaVuSans-65" transform="translate(277.511719 0)"/>
    <use xlink:href="#DejaVuSans-6e" transform="translate(339.035156 0)"/>
    <use xlink:href="#DejaVuSans-63" transform="translate(402.414062 0)"/>
    <use xlink:href="#DejaVuSans-79" transform="translate(457.394531 0)"/>
   </g>
  </g>
 </g>
 <defs>
  <clipPath id="p35969679ac">
   <rect x="38.698438" y="27.949375" width="674.101562" height="296.094375"/>
  </clipPath>
 </defs>
</svg>
